{"glyphs":{"0":{"ha":966,"x_min":34,"x_max":932,"o":"m 483 -1432 l 483 -1432 q 801 -1219 669 -1432 q 932 -706 932 -1006 l 932 -706 q 801 -193 932 -405 q 483 19 669 19 l 483 19 q 165 -193 296 19 q 34 -706 34 -405 l 34 -706 q 165 -1219 34 -1006 q 483 -1432 296 -1432 z m 481 -48 l 481 -48 q 630 -256 604 -48 q 655 -708 655 -464 q 626 -1160 655 -952 q 481 -1369 597 -1369 l 481 -1369 q 343 -1162 364 -1369 q 321 -703 321 -955 q 340 -249 321 -451 q 481 -48 358 -48 z"},"1":{"ha":657,"x_min":31,"x_max":632,"o":"m 70 -1018 l 70 -1018 q 31 -1007 41 -989 q 39 -1042 21 -1026 l 39 -1042 q 374 -1394 240 -1209 l 374 -1394 q 387 -1401 379 -1401 l 387 -1401 l 432 -1401 q 449 -1385 449 -1401 l 449 -1385 l 447 -328 q 614 -52 448 -54 l 614 -52 q 632 -25 633 -50 q 611 -1 631 -1 l 611 -1 l 92 -1 q 69 -27 69 -1 q 91 -54 69 -54 l 91 -54 q 237 -334 237 -48 l 237 -334 l 239 -925 q 70 -1018 239 -1137 z"},"2":{"ha":920,"x_min":34,"x_max":881,"o":"m 54 -1000 l 54 -1000 q 177 -1278 71 -1163 q 463 -1398 282 -1393 l 463 -1398 q 865 -1060 831 -1398 l 865 -1060 q 807 -776 881 -889 q 638 -572 732 -663 l 638 -572 l 293 -238 q 288 -219 283 -229 q 305 -210 293 -210 l 305 -210 l 795 -210 q 811 -225 809 -210 l 811 -225 l 828 -374 q 857 -400 831 -401 q 881 -363 882 -399 l 881 -363 l 848 -11 q 832 3 846 3 l 832 3 l 50 3 q 35 -4 39 3 q 37 -22 30 -12 l 37 -22 l 439 -539 q 614 -1007 642 -800 q 387 -1222 585 -1215 l 387 -1222 q 195 -1138 263 -1217 q 112 -987 126 -1060 l 112 -987 q 76 -957 106 -955 q 54 -1000 45 -959 z"},"3":{"ha":955,"x_min":44,"x_max":919,"o":"m 91 -1196 l 91 -1196 q 240 -1355 137 -1287 q 489 -1422 342 -1424 l 489 -1422 q 729 -1361 618 -1422 q 862 -1155 840 -1301 l 862 -1155 q 805 -940 872 -1003 q 649 -850 737 -877 l 649 -850 q 919 -483 915 -774 l 919 -483 q 780 -135 922 -281 q 469 13 637 11 l 469 13 q 188 -39 301 14 q 44 -234 74 -93 l 44 -234 q 59 -332 31 -287 q 150 -379 87 -377 l 150 -379 q 254 -322 224 -382 q 282 -184 284 -263 l 282 -184 q 328 -76 287 -120 q 467 -38 369 -32 l 467 -38 q 648 -137 594 -44 q 689 -365 702 -231 l 689 -365 q 563 -646 670 -593 q 322 -692 456 -700 l 322 -692 q 287 -713 289 -689 q 313 -746 284 -738 l 313 -746 q 513 -846 429 -778 q 613 -1039 596 -914 l 613 -1039 q 560 -1227 628 -1153 q 371 -1304 492 -1301 l 371 -1304 q 236 -1264 293 -1306 q 132 -1172 179 -1223 l 132 -1172 q 92 -1157 108 -1147 q 91 -1196 76 -1167 z"},"4":{"ha":937,"x_min":20,"x_max":909,"o":"m 689 -1378 l 689 -1378 l 689 -578 q 704 -563 689 -563 l 704 -563 l 893 -563 q 909 -546 909 -563 l 909 -546 l 909 -437 q 893 -420 909 -420 l 893 -420 l 704 -420 q 689 -403 689 -420 l 689 -403 l 689 -328 q 854 -52 688 -52 l 854 -52 q 873 -25 874 -50 l 873 -25 q 853 -1 873 -1 l 853 -1 l 332 -1 q 310 -27 310 -1 l 310 -27 q 332 -54 311 -54 l 332 -54 q 479 -334 480 -52 l 479 -334 l 479 -403 q 474 -415 479 -410 l 474 -415 q 463 -420 470 -420 l 463 -420 l 36 -420 q 20 -437 20 -420 l 20 -437 l 20 -558 q 22 -566 20 -560 l 22 -566 l 549 -1387 q 563 -1394 556 -1394 l 563 -1394 l 673 -1394 q 689 -1378 689 -1394 z m 120 -563 l 120 -563 l 463 -563 q 480 -578 480 -563 l 480 -578 l 480 -1113 q 468 -1128 480 -1126 l 468 -1128 q 450 -1122 457 -1133 l 450 -1122 l 106 -587 q 106 -571 101 -579 l 106 -571 q 120 -563 110 -563 z"},"5":{"ha":954,"x_min":46,"x_max":921,"o":"m 709 -471 l 709 -471 q 417 -758 688 -755 l 417 -758 q 151 -628 279 -761 l 151 -628 q 110 -644 110 -596 l 110 -644 q 166 -1006 140 -815 q 174 -1388 191 -1198 l 174 -1388 q 219 -1417 148 -1437 l 219 -1417 q 541 -1370 402 -1360 q 786 -1431 680 -1381 l 786 -1431 q 806 -1428 799 -1437 q 808 -1411 813 -1420 l 808 -1411 q 616 -1202 745 -1260 q 263 -1186 486 -1144 l 263 -1186 q 243 -1170 243 -1189 l 243 -1170 q 216 -935 236 -1051 l 216 -935 q 233 -918 216 -914 l 233 -918 q 483 -970 349 -975 l 483 -970 q 810 -816 696 -962 q 921 -483 924 -671 l 921 -483 q 782 -135 924 -281 q 471 13 639 11 l 471 13 q 192 -42 303 14 q 46 -234 81 -99 l 46 -234 q 61 -332 33 -287 q 152 -379 89 -377 l 152 -379 q 248 -324 214 -379 q 284 -184 282 -270 l 284 -184 q 330 -76 289 -120 q 469 -38 371 -32 l 469 -38 q 662 -164 596 -44 q 709 -471 728 -284 z"},"6":{"ha":930,"x_min":52,"x_max":891,"o":"m 614 -1254 l 614 -1254 q 583 -1344 610 -1301 q 502 -1391 556 -1388 l 502 -1391 q 345 -1246 376 -1397 q 308 -1012 314 -1095 l 308 -1012 q 300 -692 298 -845 l 300 -692 q 573 -925 399 -932 l 573 -925 q 794 -813 692 -920 q 891 -503 896 -707 l 891 -503 q 757 -142 885 -301 q 494 15 629 16 l 494 15 q 151 -169 269 12 q 52 -716 33 -350 l 52 -716 q 141 -1135 67 -981 q 303 -1363 215 -1289 l 303 -1363 q 527 -1438 391 -1438 l 527 -1438 q 755 -1362 665 -1438 l 755 -1362 q 852 -1204 825 -1302 l 852 -1204 q 837 -1105 865 -1150 q 746 -1060 808 -1060 l 746 -1060 q 646 -1123 683 -1058 q 614 -1254 609 -1188 z m 496 -40 l 496 -40 q 623 -145 584 -38 q 660 -395 662 -253 l 660 -395 q 624 -696 657 -567 q 494 -821 590 -826 l 494 -821 q 308 -489 350 -813 l 308 -489 q 328 -262 316 -358 l 328 -262 q 373 -96 339 -153 q 496 -40 406 -40 z"},"7":{"ha":880,"x_min":32,"x_max":856,"o":"m 32 -1049 l 32 -1049 l 120 -1387 q 136 -1398 121 -1398 l 136 -1398 l 841 -1398 q 853 -1392 850 -1398 l 853 -1392 q 856 -1378 857 -1385 l 856 -1378 l 417 -12 q 402 0 414 0 l 402 0 l 160 0 q 146 -7 150 0 l 146 -7 q 146 -24 141 -14 l 146 -24 l 724 -1171 q 723 -1187 727 -1179 l 723 -1187 q 710 -1195 718 -1195 l 710 -1195 q 515 -1195 612 -1195 q 319 -1195 417 -1195 l 319 -1195 q 318 -1195 319 -1195 q 233 -1194 317 -1195 q 83 -1036 148 -1193 l 83 -1036 q 64 -1026 78 -1022 l 64 -1026 l 45 -1028 q 34 -1036 37 -1029 l 34 -1036 q 32 -1049 32 -1040 z"},"8":{"ha":957,"x_min":34,"x_max":901,"o":"m 281 -745 l 281 -745 q 80 -1107 75 -884 l 80 -1107 q 200 -1340 81 -1240 q 495 -1436 318 -1441 l 495 -1436 q 751 -1349 652 -1436 q 849 -1130 849 -1262 l 849 -1130 q 786 -964 849 -1034 l 786 -964 q 655 -859 732 -904 l 655 -859 q 646 -844 646 -854 l 646 -844 q 648 -835 646 -838 q 655 -830 650 -833 l 655 -830 q 852 -615 795 -741 l 852 -615 q 901 -360 912 -483 l 901 -360 q 743 -82 872 -165 q 446 0 614 0 l 446 0 q 156 -96 277 0 q 34 -367 34 -193 l 34 -367 q 107 -582 34 -493 l 107 -582 q 282 -730 176 -667 l 282 -730 q 286 -737 286 -732 l 286 -737 q 281 -745 286 -742 z m 335 -698 l 335 -698 q 186 -363 168 -570 l 186 -363 q 262 -120 182 -198 q 449 -43 341 -43 l 449 -43 q 637 -103 557 -43 q 723 -334 717 -163 l 723 -334 q 633 -527 727 -445 q 446 -655 538 -610 l 446 -655 q 357 -699 381 -687 l 357 -699 q 346 -702 352 -702 l 346 -702 q 335 -698 339 -702 z m 725 -1127 l 725 -1127 q 495 -1398 723 -1394 l 495 -1398 q 317 -1334 390 -1398 q 246 -1176 244 -1270 l 246 -1176 q 349 -1009 247 -1074 l 349 -1009 q 558 -886 444 -950 l 558 -886 q 576 -882 563 -882 q 593 -888 589 -883 l 593 -888 q 725 -1127 702 -974 z"},"9":{"ha":930,"x_min":38,"x_max":876,"o":"m 315 -184 l 315 -184 q 345 -93 318 -136 q 427 -47 372 -50 l 427 -47 q 584 -191 553 -40 q 620 -427 614 -343 l 620 -427 q 629 -746 630 -584 l 629 -746 q 356 -513 529 -505 l 356 -513 q 135 -624 236 -517 q 38 -935 34 -731 l 38 -935 q 172 -1295 43 -1136 q 435 -1454 300 -1455 l 435 -1454 q 778 -1269 659 -1451 q 876 -722 897 -1087 l 876 -722 q 787 -302 861 -456 q 626 -75 713 -148 l 626 -75 q 402 0 537 0 l 402 0 q 174 -76 263 0 l 174 -76 q 77 -234 103 -134 l 77 -234 q 92 -332 63 -287 q 183 -379 120 -377 l 183 -379 q 281 -323 245 -379 q 315 -184 317 -268 z m 433 -1398 l 433 -1398 q 305 -1291 344 -1399 q 269 -1043 266 -1184 l 269 -1043 q 309 -744 272 -871 q 443 -624 346 -618 l 443 -624 q 621 -949 586 -631 l 621 -949 q 601 -1176 612 -1079 l 601 -1176 q 556 -1341 589 -1284 q 433 -1398 522 -1398 z"}," ":{"ha":600,"x_min":0,"x_max":0,"o":""},"!":{"ha":476,"x_min":76,"x_max":400,"o":"m 93 -159 l 93 -159 q 224 -291 171 -209 l 224 -291 q 253 -291 240 -315 l 253 -291 q 384 -159 300 -202 l 384 -159 q 384 -131 412 -145 l 384 -131 q 253 0 296 -88 l 253 0 q 224 0 238 29 l 224 0 q 93 -131 181 -80 l 93 -131 q 93 -159 69 -143 z m 76 -1306 l 76 -1306 q 222 -1453 163 -1361 l 222 -1453 q 254 -1453 239 -1479 l 254 -1453 q 400 -1306 306 -1353 l 400 -1306 q 400 -1274 431 -1290 l 400 -1274 q 254 -507 302 -1083 l 254 -507 q 222 -507 237 -475 l 222 -507 q 76 -1274 174 -1074 l 76 -1274 q 76 -1306 49 -1288 z"},"\"":{"ha":825,"x_min":76,"x_max":758,"o":"m 459 -1304 l 459 -1304 q 590 -1436 537 -1354 l 590 -1436 q 619 -1436 606 -1460 l 619 -1436 q 750 -1304 666 -1347 l 750 -1304 q 758 -1290 758 -1300 l 758 -1290 q 699 -1093 758 -1206 q 585 -907 640 -980 l 585 -907 q 565 -902 576 -897 l 565 -902 q 556 -921 550 -911 l 556 -921 q 606 -1112 617 -1015 q 459 -1276 594 -1210 l 459 -1276 q 459 -1304 432 -1286 z m 76 -1304 l 76 -1304 q 207 -1436 154 -1354 l 207 -1436 q 236 -1436 223 -1460 l 236 -1436 q 367 -1304 283 -1347 l 367 -1304 q 375 -1290 375 -1300 l 375 -1290 q 316 -1093 375 -1206 q 202 -907 257 -980 l 202 -907 q 182 -902 193 -897 l 182 -902 q 173 -921 167 -911 l 173 -921 q 223 -1112 234 -1015 q 76 -1276 211 -1210 l 76 -1276 q 76 -1304 49 -1286 z"},"#":{"ha":1055,"x_min":66,"x_max":982,"o":"m 929 -614 l 929 -457 l 739 -457 l 693 -144 l 544 -144 l 589 -457 l 406 -457 l 361 -144 l 210 -144 l 255 -457 l 66 -457 l 66 -614 l 270 -614 l 307 -873 l 125 -873 l 125 -1030 l 322 -1030 l 355 -1311 l 506 -1311 l 473 -1030 l 656 -1030 l 688 -1311 l 837 -1311 l 805 -1030 l 982 -1030 l 982 -873 l 790 -873 l 753 -614 l 929 -614 z m 641 -873 l 459 -873 l 422 -614 l 605 -614 l 641 -873 z"},"$":{"ha":858,"x_min":72,"x_max":774,"o":"m 467 -105 l 467 93 l 392 93 l 392 -105 q 240 -166 312 -119 q 120 -291 167 -213 q 72 -465 72 -369 l 72 -465 q 94 -552 72 -518 q 160 -587 116 -587 l 160 -587 q 205 -571 187 -587 q 233 -529 223 -556 q 242 -475 242 -503 l 242 -475 q 226 -396 242 -447 l 226 -396 q 209 -331 209 -353 l 209 -331 q 244 -246 209 -281 q 326 -191 278 -211 q 414 -172 374 -172 l 414 -172 q 509 -196 464 -172 q 583 -264 554 -220 q 611 -370 611 -309 l 611 -370 q 595 -459 611 -425 q 535 -530 579 -494 q 398 -621 491 -566 l 398 -621 q 283 -694 327 -665 q 197 -769 239 -724 q 131 -873 154 -814 q 107 -1011 107 -932 l 107 -1011 q 128 -1149 107 -1088 q 188 -1257 149 -1210 q 280 -1334 227 -1304 q 392 -1372 332 -1364 l 392 -1372 l 392 -1559 l 467 -1559 l 467 -1372 q 570 -1343 519 -1369 q 663 -1274 621 -1318 q 728 -1173 704 -1230 q 752 -1054 752 -1116 l 752 -1054 q 731 -974 752 -1006 q 669 -943 709 -943 l 669 -943 q 608 -978 632 -943 q 584 -1059 584 -1013 l 584 -1059 q 594 -1127 584 -1081 q 604 -1192 604 -1174 l 604 -1192 q 553 -1279 604 -1253 q 444 -1305 502 -1305 l 444 -1305 q 314 -1256 369 -1305 q 258 -1122 258 -1207 l 258 -1122 q 314 -989 258 -1037 q 503 -864 370 -942 q 705 -705 636 -786 q 774 -492 774 -625 l 774 -492 q 735 -304 774 -388 q 626 -169 695 -221 q 467 -105 556 -118 l 467 -105 z"},"%":{"ha":1461,"x_min":55,"x_max":1403,"o":"m 1114 -768 l 1114 -768 q 910 -659 994 -768 q 826 -397 826 -550 l 826 -397 q 910 -135 826 -243 q 1114 -27 994 -27 l 1114 -27 q 1319 -135 1234 -27 q 1403 -397 1403 -243 l 1403 -397 q 1319 -659 1403 -550 q 1114 -768 1234 -768 z m 1114 -705 l 1114 -705 q 1191 -615 1178 -705 q 1203 -397 1203 -525 l 1203 -397 q 1191 -179 1203 -269 q 1114 -89 1178 -89 l 1114 -89 q 1039 -179 1050 -89 q 1027 -397 1027 -269 l 1027 -397 q 1039 -615 1027 -525 q 1114 -705 1050 -705 z m 1345 -1441 l 1345 -1441 l 1375 -1415 q 1376 -1392 1386 -1403 l 1376 -1392 l 198 -31 q 175 -29 187 -18 l 175 -29 l 145 -55 q 143 -78 133 -64 l 143 -78 l 1322 -1439 q 1345 -1441 1330 -1451 z m 343 -1434 l 343 -1434 q 547 -1325 462 -1434 q 631 -1064 631 -1217 l 631 -1064 q 547 -801 631 -910 q 343 -693 462 -693 l 343 -693 q 139 -801 223 -693 q 55 -1064 55 -910 l 55 -1064 q 139 -1325 55 -1217 q 343 -1434 223 -1434 z m 343 -1371 l 343 -1371 q 267 -1281 279 -1371 q 255 -1064 255 -1191 l 255 -1064 q 267 -846 255 -936 q 343 -756 279 -756 l 343 -756 q 419 -846 406 -756 q 432 -1064 432 -936 l 432 -1064 q 419 -1281 432 -1191 q 343 -1371 406 -1371 z"},"&":{"ha":1174,"x_min":66,"x_max":1119,"o":"m 265 -438 l 265 -438 q 295 -270 265 -357 q 378 -126 324 -183 q 501 -70 432 -70 l 501 -70 q 571 -83 532 -70 q 632 -118 609 -96 l 632 -118 q 531 -276 575 -198 q 447 -441 486 -355 q 365 -630 407 -527 l 365 -630 q 265 -438 265 -581 z m 777 -683 l 777 -739 l 1107 -739 l 1107 -683 q 1042 -656 1063 -670 q 1000 -604 1020 -643 q 956 -487 979 -566 l 956 -487 q 830 -222 909 -322 l 830 -222 q 967 -109 887 -109 l 967 -109 q 1093 -180 1022 -109 l 1093 -180 l 1119 -150 q 1051 -61 1089 -100 q 967 -1 1012 -22 q 870 20 921 20 l 870 20 q 774 -1 815 20 q 685 -67 732 -22 l 685 -67 q 413 20 568 20 l 413 20 q 147 -82 228 20 q 66 -307 66 -184 l 66 -307 q 145 -539 66 -440 q 338 -699 224 -639 l 338 -699 q 283 -945 283 -841 l 283 -945 q 325 -1113 283 -1041 q 434 -1222 366 -1185 q 576 -1260 502 -1260 l 576 -1260 q 686 -1233 633 -1260 q 773 -1155 739 -1207 q 806 -1032 806 -1104 l 806 -1032 q 770 -911 806 -965 q 690 -822 734 -857 q 572 -739 645 -787 l 572 -739 q 621 -620 593 -683 q 677 -499 649 -557 q 732 -392 705 -442 q 791 -280 758 -342 l 791 -280 q 870 -405 841 -334 q 899 -551 899 -476 l 899 -551 q 866 -650 899 -618 q 777 -683 832 -683 l 777 -683 z m 673 -1060 l 673 -1060 q 648 -1164 673 -1124 q 573 -1205 623 -1205 l 573 -1205 q 499 -1166 525 -1205 q 473 -1065 473 -1127 l 473 -1065 q 544 -802 473 -960 l 544 -802 q 639 -910 604 -844 q 673 -1060 673 -976 z"},"'":{"ha":411,"x_min":60,"x_max":359,"o":"m 60 -1304 l 60 -1304 q 191 -1436 138 -1354 l 191 -1436 q 220 -1436 207 -1460 l 220 -1436 q 351 -1304 267 -1347 l 351 -1304 q 359 -1290 359 -1300 l 359 -1290 q 300 -1093 359 -1206 q 186 -907 241 -980 l 186 -907 q 166 -902 177 -897 l 166 -902 q 157 -921 151 -911 l 157 -921 q 207 -1112 218 -1015 q 60 -1276 195 -1210 l 60 -1276 q 60 -1304 33 -1286 z"},"(":{"ha":509,"x_min":30,"x_max":459,"o":"m 442 52 l 442 52 q 150 -200 269 42 q 30 -780 30 -442 l 30 -780 q 150 -1357 30 -1116 q 442 -1612 269 -1599 l 442 -1612 q 453 -1608 447 -1613 l 453 -1608 q 443 -1570 485 -1575 l 443 -1570 q 312 -1467 366 -1562 q 258 -780 258 -1372 q 312 -94 258 -188 q 443 9 366 0 l 443 9 q 459 26 457 11 q 453 49 461 41 l 453 49 q 442 52 448 53 z"},")":{"ha":509,"x_min":56,"x_max":485,"o":"m 73 -1606 l 73 -1606 q 365 -1354 245 -1596 q 485 -775 485 -1112 l 485 -775 q 365 -196 485 -438 q 73 58 245 45 l 73 58 q 62 54 68 59 l 62 54 q 71 16 30 21 l 71 16 q 202 -87 148 7 q 256 -774 256 -182 q 202 -1460 256 -1366 q 71 -1563 148 -1555 l 71 -1563 q 56 -1580 58 -1566 q 62 -1603 54 -1595 l 62 -1603 q 73 -1606 67 -1607 z"},"*":{"ha":720,"x_min":9,"x_max":675,"o":"m 219 -1396 l 219 -1396 q 328 -1505 283 -1436 l 328 -1505 q 352 -1505 341 -1529 l 352 -1505 q 468 -1388 393 -1429 l 468 -1388 q 468 -1364 492 -1376 l 468 -1364 q 366 -1191 388 -1319 l 366 -1191 q 373 -1177 364 -1183 l 373 -1177 q 389 -1179 382 -1173 l 389 -1179 q 492 -1359 496 -1265 l 492 -1359 q 513 -1370 489 -1381 l 513 -1370 q 662 -1331 578 -1334 l 662 -1331 q 674 -1309 686 -1328 l 674 -1309 q 630 -1150 630 -1236 l 630 -1150 q 610 -1138 630 -1123 l 610 -1138 q 408 -1139 530 -1185 l 408 -1139 q 399 -1127 399 -1137 l 399 -1127 q 408 -1114 399 -1117 l 408 -1114 q 614 -1114 534 -1064 l 614 -1114 q 635 -1103 635 -1127 l 635 -1103 q 675 -953 637 -1025 l 675 -953 q 663 -932 684 -932 l 663 -932 q 503 -891 576 -935 l 503 -891 q 482 -902 482 -877 l 482 -902 q 389 -1073 484 -992 l 389 -1073 q 374 -1075 381 -1077 l 374 -1075 q 367 -1060 364 -1067 l 367 -1060 q 468 -893 387 -932 l 468 -893 q 468 -869 489 -882 l 468 -869 q 352 -751 392 -827 l 352 -751 q 328 -751 342 -731 l 328 -751 q 219 -861 281 -820 l 219 -861 q 219 -885 195 -874 l 219 -885 q 323 -1066 303 -924 l 323 -1066 q 316 -1080 324 -1074 l 316 -1080 q 302 -1079 309 -1084 l 302 -1079 q 202 -903 196 -995 l 202 -903 q 181 -891 204 -877 l 181 -891 q 22 -932 107 -934 l 22 -932 q 9 -954 0 -932 l 9 -954 q 50 -1103 47 -1027 l 50 -1103 q 70 -1115 50 -1129 l 70 -1115 q 278 -1114 146 -1061 l 278 -1114 q 287 -1127 287 -1117 l 287 -1127 q 278 -1139 287 -1137 l 278 -1139 q 75 -1138 152 -1188 l 75 -1138 q 54 -1150 54 -1124 l 54 -1150 q 10 -1309 55 -1234 l 10 -1309 q 22 -1330 -3 -1330 l 22 -1330 q 171 -1370 106 -1334 l 171 -1370 q 192 -1358 194 -1380 l 192 -1358 q 302 -1173 184 -1261 l 302 -1173 q 316 -1172 310 -1167 l 316 -1172 q 323 -1186 324 -1177 l 323 -1186 q 219 -1372 304 -1327 l 219 -1372 q 219 -1396 195 -1382 z"},"+":{"ha":810,"x_min":77,"x_max":751,"o":"m 462 -731 l 751 -731 l 751 -639 l 462 -639 l 462 -313 l 372 -313 l 372 -639 l 77 -639 l 77 -731 l 372 -731 l 372 -1037 l 462 -1037 l 462 -731 z"},",":{"ha":376,"x_min":36,"x_max":335,"o":"m 36 -159 l 36 -159 q 167 -291 114 -209 l 167 -291 q 196 -291 183 -315 l 196 -291 q 327 -159 243 -202 l 327 -159 q 335 -145 335 -155 l 335 -145 q 276 52 335 -61 q 162 238 217 165 l 162 238 q 142 243 153 248 l 142 243 q 133 224 127 234 l 133 224 q 183 33 194 130 q 36 -131 171 -65 l 36 -131 q 36 -159 9 -141 z"},"-":{"ha":610,"x_min":59,"x_max":617,"o":"m 214 -767 l 214 -767 l 605 -805 q 617 -799 613 -806 l 617 -799 q 617 -787 620 -793 l 617 -787 l 561 -675 q 549 -666 555 -666 l 549 -666 l 156 -628 q 145 -633 147 -628 l 145 -633 q 145 -647 140 -639 l 145 -647 l 201 -758 q 214 -767 205 -765 z m 127 -546 l 127 -546 l 519 -584 q 531 -579 526 -585 l 531 -579 q 531 -566 534 -572 l 531 -566 l 474 -454 q 462 -446 470 -446 l 462 -446 l 70 -407 q 59 -413 62 -407 l 59 -413 q 59 -426 54 -418 l 59 -426 l 115 -538 q 127 -546 119 -546 z"},".":{"ha":411,"x_min":53,"x_max":344,"o":"m 53 -159 l 53 -159 q 184 -291 131 -209 l 184 -291 q 213 -291 200 -315 l 213 -291 q 344 -159 260 -202 l 344 -159 q 344 -131 372 -145 l 344 -131 q 213 0 256 -88 l 213 0 q 184 0 198 29 l 184 0 q 53 -131 141 -80 l 53 -131 q 53 -159 29 -143 z"},"/":{"ha":1069,"x_min":63,"x_max":1032,"o":"m 993 -1525 l 993 -1525 l 1027 -1505 q 1032 -1482 1040 -1495 l 1032 -1482 l 125 72 q 103 79 117 87 l 103 79 l 69 59 q 63 36 55 52 l 63 36 l 970 -1519 q 993 -1525 976 -1532 z"},":":{"ha":411,"x_min":53,"x_max":344,"o":"m 53 -817 l 53 -817 q 184 -949 131 -867 l 184 -949 q 213 -949 200 -973 l 213 -949 q 344 -817 260 -860 l 344 -817 q 344 -789 372 -803 l 344 -789 q 213 -658 256 -746 l 213 -658 q 184 -658 198 -629 l 184 -658 q 53 -789 141 -738 l 53 -789 q 53 -817 29 -801 z m 53 -159 l 53 -159 q 184 -291 131 -209 l 184 -291 q 213 -291 200 -315 l 213 -291 q 344 -159 260 -202 l 344 -159 q 344 -131 372 -145 l 344 -131 q 213 0 256 -88 l 213 0 q 184 0 198 29 l 184 0 q 53 -131 141 -80 l 53 -131 q 53 -159 29 -143 z"},";":{"ha":351,"x_min":36,"x_max":344,"o":"m 36 -159 l 36 -159 q 167 -291 114 -209 l 167 -291 q 196 -291 183 -315 l 196 -291 q 327 -159 243 -202 l 327 -159 q 335 -145 335 -155 l 335 -145 q 276 52 335 -61 q 162 238 217 165 l 162 238 q 142 243 153 248 l 142 243 q 133 224 127 234 l 133 224 q 183 33 194 130 q 36 -131 171 -65 l 36 -131 q 36 -159 9 -141 z m 53 -817 l 53 -817 q 184 -949 131 -867 l 184 -949 q 213 -949 200 -973 l 213 -949 q 344 -817 260 -860 l 344 -817 q 344 -789 372 -803 l 344 -789 q 213 -658 256 -746 l 213 -658 q 184 -658 198 -629 l 184 -658 q 53 -789 141 -738 l 53 -789 q 53 -817 29 -801 z"},"<":{"ha":591,"x_min":8,"x_max":559,"o":"m 505 -956 l 505 -956 l 544 -956 q 559 -947 556 -956 l 559 -947 q 557 -930 563 -938 l 557 -930 l 269 -588 q 269 -568 258 -577 l 269 -568 l 557 -226 q 559 -209 563 -217 l 559 -209 q 544 -200 556 -200 l 544 -200 l 505 -200 q 495 -203 497 -200 l 495 -203 l 15 -565 q 8 -578 8 -570 l 8 -578 q 15 -591 8 -584 l 15 -591 l 495 -953 q 505 -956 498 -956 z"},"=":{"ha":793,"x_min":47,"x_max":752,"o":"m 63 -537 l 63 -537 l 736 -537 q 752 -520 752 -537 l 752 -520 l 752 -406 q 736 -389 752 -389 l 736 -389 l 63 -389 q 47 -406 47 -389 l 47 -406 l 47 -520 q 63 -537 47 -537 z m 63 -834 l 63 -834 l 736 -834 q 752 -817 752 -834 l 752 -817 l 752 -703 q 736 -686 752 -686 l 736 -686 l 63 -686 q 47 -703 47 -686 l 47 -703 l 47 -817 q 63 -834 47 -834 z"},">":{"ha":591,"x_min":12,"x_max":563,"o":"m 66 -200 l 66 -200 l 27 -200 q 12 -209 15 -200 l 12 -209 q 14 -226 8 -218 l 14 -226 l 302 -568 q 302 -588 313 -579 l 302 -588 l 14 -930 q 12 -947 8 -939 l 12 -947 q 27 -956 15 -956 l 27 -956 l 66 -956 q 76 -953 74 -956 l 76 -953 l 556 -591 q 563 -578 563 -586 l 563 -578 q 556 -565 563 -572 l 556 -565 l 76 -203 q 66 -200 73 -200 z"},"?":{"ha":933,"x_min":67,"x_max":841,"o":"m 240 -1202 l 240 -1202 q 319 -1104 320 -1202 l 319 -1104 q 295 -1051 319 -1077 q 227 -1025 271 -1025 l 227 -1025 q 67 -1180 74 -1022 l 67 -1180 q 465 -1457 75 -1448 l 465 -1457 q 841 -1109 842 -1459 l 841 -1109 q 757 -888 837 -956 q 582 -788 677 -820 q 408 -719 486 -757 q 332 -613 330 -682 l 332 -613 q 384 -496 332 -547 q 500 -449 436 -446 l 500 -449 q 615 -492 566 -450 q 677 -604 664 -534 l 677 -604 q 709 -626 687 -628 l 709 -626 q 720 -596 730 -621 l 720 -596 q 656 -467 713 -526 q 500 -408 599 -408 l 500 -408 q 296 -457 386 -407 q 187 -609 205 -508 l 187 -609 q 216 -813 163 -734 q 368 -936 268 -892 q 551 -1021 467 -980 q 637 -1164 635 -1062 l 637 -1164 q 444 -1413 630 -1409 l 444 -1413 q 277 -1365 352 -1412 q 200 -1266 201 -1318 l 200 -1266 q 240 -1202 200 -1201 z m 342 -159 l 342 -159 q 473 -291 420 -209 l 473 -291 q 502 -291 489 -315 l 502 -291 q 633 -159 549 -202 l 633 -159 q 633 -131 661 -145 l 633 -131 q 502 0 545 -88 l 502 0 q 473 0 487 29 l 473 0 q 342 -131 430 -80 l 342 -131 q 342 -159 318 -143 z"},"@":{"ha":1245,"x_min":33,"x_max":1221,"o":"m 1146 -148 l 1184 -148 q 1217 -141 1205 -148 q 1221 -123 1228 -134 l 1221 -123 q 1135 38 1192 -36 q 995 171 1078 112 l 995 171 q 825 255 917 226 q 629 283 733 283 l 629 283 q 391 242 498 283 q 202 116 284 201 l 202 116 q 33 -303 33 -54 l 33 -303 q 55 -472 33 -391 q 118 -631 76 -553 l 118 -631 q 219 -760 158 -702 q 356 -863 280 -819 l 356 -863 q 510 -925 428 -903 q 676 -948 592 -948 l 676 -948 q 1049 -809 929 -948 l 1049 -809 q 1172 -490 1172 -665 l 1172 -490 q 1073 -172 1172 -326 l 1073 -172 q 780 -19 973 -19 l 780 -19 q 644 -122 645 -19 l 644 -122 q 442 -19 534 -19 l 442 -19 q 328 -71 367 -19 l 328 -71 q 287 -187 287 -124 l 287 -187 q 321 -343 287 -264 q 419 -500 354 -422 l 419 -500 q 548 -615 482 -575 q 678 -655 614 -655 l 678 -655 q 777 -629 740 -655 l 777 -629 q 790 -634 782 -632 q 804 -637 797 -637 l 804 -637 l 905 -651 q 940 -645 927 -653 q 947 -626 953 -637 l 947 -626 l 872 -371 q 814 -134 814 -178 l 814 -134 q 824 -105 814 -105 l 824 -105 q 976 -222 898 -105 l 976 -222 q 1056 -502 1056 -338 l 1056 -502 q 948 -778 1056 -686 l 948 -778 q 680 -877 831 -877 l 680 -877 q 400 -783 527 -877 l 400 -783 q 226 -551 287 -696 l 226 -551 q 171 -287 171 -419 l 171 -287 q 300 70 171 -58 l 300 70 q 633 205 435 205 l 633 205 q 931 107 807 205 l 931 107 q 1111 -137 1046 15 l 1111 -137 q 1125 -144 1114 -141 q 1146 -148 1136 -148 l 1146 -148 z m 727 -513 l 727 -513 q 685 -586 727 -586 l 685 -586 q 646 -570 667 -586 q 602 -526 625 -555 q 556 -458 579 -498 q 510 -369 532 -418 l 510 -369 q 478 -279 490 -322 q 466 -206 466 -236 l 466 -206 q 477 -156 466 -177 q 501 -135 487 -135 l 501 -135 q 606 -206 540 -135 l 606 -206 q 660 -283 635 -241 q 699 -371 684 -325 l 699 -371 q 720 -450 713 -415 q 727 -513 727 -486 z"},"A":{"ha":1667,"x_min":46,"x_max":1616,"o":"m 1101 -1201 l 1101 -1201 q 1078 -1223 1078 -1201 l 1078 -1223 q 1093 -1244 1078 -1236 l 1093 -1244 l 1511 -1445 q 1545 -1437 1537 -1455 q 1530 -1404 1552 -1419 l 1530 -1404 q 1441 -1258 1461 -1350 q 1421 -1041 1421 -1166 l 1421 -1041 l 1421 -349 q 1580 -214 1421 -138 l 1580 -214 q 1616 -210 1607 -229 q 1608 -179 1625 -192 l 1608 -179 l 1399 11 q 1353 18 1379 25 l 1353 18 q 1177 -205 1203 -25 l 1177 -205 q 1166 -218 1175 -214 l 1166 -218 q 1150 -214 1157 -221 l 1150 -214 q 1100 -160 1126 -190 q 968 -43 1073 -130 q 778 25 862 44 q 642 -37 693 5 l 642 -37 q 495 -164 562 -102 q 329 -201 428 -226 l 329 -201 q 297 -190 319 -198 q 266 -201 275 -182 q 296 -243 257 -220 l 296 -243 q 449 -351 374 -295 q 589 -477 524 -408 l 589 -477 q 730 -698 677 -570 q 756 -975 782 -826 l 756 -975 q 614 -1221 731 -1118 q 335 -1300 497 -1324 l 335 -1300 q 181 -1213 230 -1284 q 125 -1079 132 -1143 l 125 -1079 q 166 -938 114 -989 q 287 -878 218 -888 l 287 -878 q 503 -740 448 -849 q 422 -510 558 -632 l 422 -510 q 390 -505 404 -495 q 387 -536 376 -516 l 387 -536 q 321 -656 430 -625 l 321 -656 q 125 -770 204 -689 q 46 -989 46 -851 l 46 -989 q 197 -1319 46 -1181 q 542 -1459 348 -1458 l 542 -1459 q 887 -1324 768 -1459 q 1007 -1018 1005 -1189 l 1007 -1018 q 872 -668 1009 -819 q 605 -415 734 -517 l 605 -415 q 599 -400 597 -410 l 599 -400 q 609 -388 600 -391 l 609 -388 q 733 -318 678 -359 q 826 -239 788 -278 l 826 -239 q 944 -164 888 -174 q 1086 -218 999 -155 l 1086 -218 q 1127 -254 1108 -234 q 1165 -299 1146 -275 l 1165 -299 q 1169 -310 1169 -304 l 1169 -310 q 1166 -695 1165 -502 q 1167 -1083 1167 -889 l 1167 -1083 q 1158 -1161 1167 -1121 q 1101 -1201 1149 -1201 z"},"B":{"ha":1830,"x_min":31,"x_max":1777,"o":"m 387 -286 l 387 -286 q 369 -276 378 -281 q 352 -269 359 -272 l 352 -269 q 342 -266 346 -266 l 342 -266 q 320 -289 320 -266 l 320 -289 q 331 -308 320 -301 l 331 -308 q 652 -519 489 -395 q 813 -857 814 -643 l 813 -857 q 723 -1133 812 -991 q 453 -1275 634 -1275 l 453 -1275 q 225 -1188 330 -1275 q 120 -995 120 -1102 l 120 -995 q 184 -801 120 -884 q 389 -697 248 -718 l 389 -697 q 571 -744 502 -694 l 571 -744 q 593 -765 580 -751 q 617 -780 605 -780 l 617 -780 q 636 -767 632 -780 q 631 -745 640 -754 l 631 -745 q 566 -694 608 -720 l 566 -694 q 415 -652 500 -652 l 415 -652 q 101 -763 188 -649 q 31 -1058 14 -878 q 196 -1364 48 -1238 q 536 -1482 343 -1490 l 536 -1482 q 800 -1411 701 -1475 q 951 -1250 899 -1347 l 951 -1250 q 967 -1241 956 -1239 l 967 -1241 q 981 -1253 979 -1241 l 981 -1253 q 1087 -1416 1009 -1354 q 1284 -1478 1164 -1478 l 1284 -1478 q 1485 -1404 1399 -1478 q 1610 -1166 1571 -1331 l 1610 -1166 q 1691 -1059 1639 -1057 l 1691 -1059 q 1716 -1042 1712 -1059 q 1699 -1016 1719 -1026 l 1699 -1016 l 1473 -911 q 1464 -894 1462 -905 l 1464 -894 q 1477 -880 1465 -883 l 1477 -880 q 1687 -750 1596 -853 q 1777 -501 1777 -648 l 1777 -501 q 1473 -93 1773 -270 l 1473 -93 q 1155 20 1308 3 q 867 -10 1002 37 l 867 -10 q 604 -191 713 -64 q 387 -286 494 -319 z m 1049 -758 l 1049 -758 l 1439 -942 q 1448 -956 1448 -949 l 1448 -956 q 1440 -971 1448 -966 l 1440 -971 q 1338 -1144 1372 -1011 l 1338 -1144 q 1270 -1303 1311 -1242 q 1150 -1356 1229 -1364 l 1150 -1356 q 1026 -1242 1044 -1332 q 1020 -1037 1007 -1152 l 1020 -1037 q 916 -702 1042 -852 q 649 -449 790 -553 l 649 -449 q 836 -357 739 -450 l 836 -357 q 978 -233 904 -290 q 1133 -138 1051 -176 l 1133 -138 q 1339 -100 1236 -89 q 1516 -208 1442 -112 l 1516 -208 q 1572 -371 1570 -278 q 1502 -560 1573 -465 q 1324 -690 1430 -655 q 1058 -715 1217 -725 l 1058 -715 q 1033 -731 1036 -714 q 1049 -758 1029 -749 z"},"C":{"ha":1407,"x_min":72,"x_max":1356,"o":"m 764 -241 l 764 -241 q 728 -245 739 -230 q 737 -276 717 -260 l 737 -276 q 856 -423 853 -362 l 856 -423 q 819 -520 859 -464 q 676 -669 778 -576 l 676 -669 q 471 -981 469 -857 l 471 -981 q 643 -1202 471 -1095 l 643 -1202 q 692 -1230 649 -1205 q 754 -1270 735 -1256 l 754 -1270 q 761 -1288 763 -1278 l 761 -1288 q 589 -1425 730 -1425 l 589 -1425 q 375 -1247 446 -1425 q 325 -860 304 -1070 l 325 -860 q 561 -310 361 -494 q 1018 -127 761 -127 l 1018 -127 q 1316 -203 1160 -127 l 1316 -203 q 1350 -197 1339 -214 q 1340 -163 1361 -181 l 1340 -163 q 794 26 1101 26 l 794 26 q 287 -215 487 26 q 72 -688 87 -457 l 72 -688 q 199 -1254 51 -1022 q 573 -1486 347 -1486 l 573 -1486 q 721 -1439 665 -1486 q 797 -1328 776 -1393 l 797 -1328 q 822 -1319 804 -1308 l 822 -1319 q 985 -1462 910 -1384 l 985 -1462 q 1061 -1464 1018 -1487 q 1139 -1424 1103 -1442 l 1139 -1424 q 1220 -1379 1172 -1405 q 1322 -1376 1268 -1353 l 1322 -1376 q 1356 -1375 1344 -1387 q 1354 -1349 1367 -1364 l 1354 -1349 q 1259 -1259 1303 -1299 q 1173 -1182 1215 -1220 l 1173 -1182 q 1160 -1171 1163 -1172 l 1160 -1171 q 1150 -1169 1156 -1169 l 1150 -1169 q 1132 -1176 1142 -1169 q 1114 -1187 1121 -1183 l 1114 -1187 q 875 -1271 941 -1271 l 875 -1271 q 778 -1230 827 -1269 l 778 -1230 q 695 -1104 696 -1166 l 695 -1104 q 818 -917 692 -1026 l 818 -917 q 1094 -555 1080 -690 l 1094 -555 q 764 -241 1104 -427 z"},"D":{"ha":1660,"x_min":47,"x_max":1593,"o":"m 214 -105 l 214 -105 q 174 -106 188 -88 q 183 -144 160 -124 l 183 -144 q 491 -347 355 -303 q 849 -250 627 -391 l 849 -250 q 1198 -141 1046 -124 q 1420 -322 1350 -159 l 1420 -322 q 1350 -883 1540 -605 q 842 -1236 1159 -1161 l 842 -1236 q 402 -1198 622 -1288 q 143 -930 182 -1108 l 143 -930 q 235 -619 95 -716 q 522 -559 374 -522 l 522 -559 q 560 -573 541 -564 l 560 -573 q 599 -565 587 -585 q 582 -530 610 -545 l 582 -530 q 533 -511 544 -514 l 533 -511 q 219 -560 391 -466 q 47 -927 47 -654 l 47 -927 q 142 -1201 47 -1078 q 385 -1399 237 -1325 q 711 -1485 533 -1474 q 1059 -1444 888 -1497 l 1059 -1444 q 1370 -1242 1244 -1374 q 1552 -949 1495 -1110 q 1593 -616 1609 -788 q 1478 -296 1576 -444 l 1478 -296 q 1113 4 1328 -71 q 566 -100 898 78 l 566 -100 q 395 -163 482 -145 q 214 -105 307 -181 z m 788 -339 l 788 -339 q 749 -343 760 -325 q 760 -378 738 -362 l 760 -378 q 802 -540 875 -456 q 666 -678 728 -624 l 666 -678 q 532 -982 461 -853 q 760 -1198 603 -1111 l 760 -1198 q 800 -1192 788 -1212 q 786 -1157 811 -1173 l 786 -1157 q 846 -889 637 -1064 l 846 -889 q 1013 -591 1035 -731 q 788 -339 991 -451 z"},"E":{"ha":1439,"x_min":73,"x_max":1386,"o":"m 817 -1256 l 817 -1256 q 779 -1231 798 -1246 l 779 -1231 q 696 -1105 697 -1167 l 696 -1105 q 819 -918 693 -1027 l 819 -918 q 903 -842 871 -872 l 903 -842 q 916 -837 910 -836 q 927 -844 922 -838 l 927 -844 q 991 -921 951 -874 l 991 -921 q 1100 -980 1047 -987 q 1205 -934 1153 -973 l 1205 -934 q 1344 -894 1295 -863 l 1344 -894 q 1386 -896 1370 -911 q 1383 -855 1401 -882 l 1383 -855 q 1333 -787 1358 -821 q 1273 -724 1307 -753 l 1273 -724 q 1120 -735 1203 -663 l 1120 -735 q 982 -798 1030 -808 l 982 -798 q 970 -787 973 -796 l 970 -787 q 974 -771 967 -778 l 974 -771 q 1095 -556 1086 -648 l 1095 -556 q 765 -242 1105 -428 l 765 -242 q 730 -244 741 -229 q 738 -277 718 -259 l 738 -277 q 857 -424 854 -363 l 857 -424 q 820 -521 860 -465 q 677 -670 779 -577 l 677 -670 q 472 -982 470 -858 l 472 -982 q 644 -1203 472 -1096 l 644 -1203 q 693 -1231 650 -1206 q 755 -1271 736 -1257 l 755 -1271 q 762 -1289 764 -1279 l 762 -1289 q 590 -1426 733 -1426 l 590 -1426 q 369 -1248 447 -1426 q 327 -782 291 -1070 q 562 -311 362 -495 q 1019 -128 762 -128 l 1019 -128 q 1317 -204 1161 -128 l 1317 -204 q 1353 -199 1342 -215 q 1341 -164 1363 -183 l 1341 -164 q 795 25 1102 25 l 795 25 q 288 -216 488 25 q 73 -689 88 -458 l 73 -689 q 200 -1255 52 -1023 q 574 -1487 348 -1487 l 574 -1487 q 722 -1440 666 -1487 q 798 -1329 777 -1394 l 798 -1329 q 808 -1319 801 -1320 l 808 -1319 q 819 -1318 813 -1317 l 819 -1318 l 823 -1320 q 986 -1463 911 -1385 l 986 -1463 q 1062 -1465 1019 -1488 q 1140 -1425 1104 -1443 l 1140 -1425 q 1223 -1380 1173 -1406 q 1323 -1377 1273 -1354 l 1323 -1377 q 1358 -1379 1346 -1392 q 1355 -1350 1370 -1367 l 1355 -1350 q 1260 -1260 1304 -1300 q 1174 -1183 1216 -1221 l 1174 -1183 q 1151 -1175 1164 -1175 q 1115 -1188 1137 -1176 l 1115 -1188 q 876 -1272 942 -1272 l 876 -1272 q 817 -1256 847 -1271 z"},"F":{"ha":1547,"x_min":67,"x_max":1502,"o":"m 1464 -701 l 1358 -572 q 1339 -563 1349 -563 l 1339 -563 q 1312 -581 1324 -563 q 1290 -610 1299 -600 l 1290 -610 q 1145 -644 1206 -694 l 1145 -644 q 1141 -622 1133 -636 l 1141 -622 q 1211 -498 1183 -557 l 1211 -498 q 1254 -234 1271 -367 q 1163 5 1236 -101 q 974 179 1090 111 q 719 246 857 246 l 719 246 q 414 163 542 246 q 275 -77 286 79 l 275 -77 l 293 -159 q 315 -240 302 -200 l 315 -240 q 306 -379 351 -343 l 306 -379 q 249 -399 281 -399 l 249 -399 q 219 -423 219 -400 q 249 -448 219 -447 l 249 -448 q 303 -442 274 -448 q 357 -432 332 -436 l 357 -432 q 523 -345 464 -409 q 541 -138 582 -282 l 541 -138 q 531 87 502 -5 q 715 188 559 179 l 715 188 q 928 111 852 194 q 1024 -107 1004 28 l 1024 -107 q 983 -317 1038 -201 q 836 -550 928 -433 l 836 -550 q 671 -925 627 -814 q 865 -1170 715 -1037 l 865 -1170 l 865 -1171 q 881 -1176 870 -1176 l 881 -1176 q 906 -1152 906 -1176 l 906 -1152 q 897 -1133 906 -1142 l 897 -1133 q 888 -952 812 -1043 l 888 -952 q 995 -821 942 -886 q 1092 -694 1047 -757 l 1092 -694 q 1119 -693 1105 -678 l 1119 -693 q 1204 -798 1161 -746 q 1291 -905 1247 -851 l 1291 -905 q 1330 -910 1309 -927 l 1330 -910 q 1401 -849 1366 -880 q 1471 -789 1435 -819 l 1471 -789 q 1491 -772 1480 -782 q 1502 -751 1502 -762 l 1502 -751 q 1489 -727 1502 -742 q 1464 -701 1475 -713 l 1464 -701 z m 678 -583 l 678 -583 q 290 -573 479 -494 l 290 -573 q 67 -883 99 -653 q 204 -1308 35 -1113 q 675 -1503 373 -1503 l 675 -1503 q 961 -1456 817 -1503 q 1252 -1331 1105 -1409 l 1252 -1331 q 1442 -1312 1349 -1280 l 1442 -1312 q 1472 -1323 1462 -1320 l 1472 -1323 q 1500 -1311 1494 -1327 q 1481 -1276 1505 -1295 l 1481 -1276 q 1336 -1173 1409 -1224 q 1193 -1069 1263 -1123 l 1193 -1069 q 1138 -1068 1168 -1049 l 1138 -1068 q 890 -1206 1048 -1134 q 569 -1278 731 -1278 l 569 -1278 q 259 -1170 379 -1278 q 144 -894 138 -1062 q 290 -634 149 -727 q 651 -627 431 -541 l 651 -627 q 681 -630 669 -634 q 698 -618 693 -627 q 698 -599 702 -610 q 678 -583 693 -589 z"},"G":{"ha":1577,"x_min":61,"x_max":1517,"o":"m 1145 -1457 l 1145 -1457 q 1281 -1303 1205 -1373 q 1441 -1171 1357 -1234 l 1441 -1171 q 1453 -1163 1449 -1167 l 1453 -1163 q 1447 -1133 1463 -1144 l 1447 -1133 l 1207 -966 q 1216 -937 1176 -941 l 1216 -937 q 1441 -779 1357 -932 q 1517 -505 1525 -626 l 1517 -505 q 1312 -132 1501 -289 q 870 38 1122 25 l 870 38 q 308 -160 546 56 q 61 -689 70 -377 l 61 -689 q 226 -1244 53 -1023 q 624 -1465 398 -1465 l 624 -1465 q 875 -1311 803 -1465 l 875 -1311 q 900 -1305 883 -1294 l 900 -1305 l 1115 -1463 q 1145 -1457 1132 -1474 z m 992 -800 l 992 -800 q 933 -792 965 -799 l 933 -792 q 904 -803 910 -788 q 918 -831 898 -819 l 918 -831 l 1206 -1031 q 1207 -1057 1223 -1043 l 1207 -1057 q 962 -1290 1055 -1174 l 962 -1290 q 940 -1293 953 -1302 l 940 -1293 l 826 -1210 q 726 -1032 718 -1130 q 862 -794 733 -934 l 862 -794 q 996 -433 1078 -556 q 727 -211 913 -310 l 727 -211 q 694 -214 704 -200 q 702 -246 683 -229 l 702 -246 q 796 -346 746 -288 q 667 -623 846 -404 l 667 -623 q 514 -871 540 -778 q 524 -1027 488 -965 q 637 -1136 559 -1090 q 797 -1242 715 -1182 l 797 -1242 l 836 -1271 q 842 -1290 846 -1278 l 842 -1290 q 638 -1417 798 -1420 l 638 -1417 q 405 -1248 495 -1413 q 320 -874 314 -1084 l 320 -874 q 502 -255 332 -480 q 928 -31 672 -31 l 928 -31 q 1196 -161 1102 -31 q 1287 -443 1289 -292 l 1287 -443 q 1208 -684 1285 -568 q 992 -800 1130 -800 z"},"H":{"ha":1503,"x_min":37,"x_max":1452,"o":"m 37 -160 l 37 -160 q 39 -191 24 -174 l 39 -191 q 231 -337 147 -300 q 427 -247 314 -374 l 427 -247 q 548 -149 496 -172 q 649 -175 599 -126 l 649 -175 q 650 -323 708 -234 q 432 -611 591 -412 l 432 -611 q 251 -978 251 -838 q 476 -1307 250 -1119 l 476 -1307 q 954 -1382 813 -1586 l 954 -1382 q 1034 -1306 987 -1334 q 1100 -1291 1080 -1278 l 1100 -1291 q 1136 -1292 1122 -1307 q 1128 -1257 1149 -1278 l 1128 -1257 q 946 -1142 1029 -1167 q 766 -1234 862 -1118 l 766 -1234 q 639 -1327 699 -1315 q 504 -1272 579 -1340 l 504 -1272 q 453 -1077 415 -1192 q 646 -779 490 -962 l 646 -779 q 668 -776 656 -768 l 668 -776 l 1091 -1053 q 1111 -1058 1104 -1061 q 1119 -1046 1117 -1055 l 1119 -1046 q 1188 -962 1122 -1017 l 1188 -962 q 1379 -737 1296 -870 q 1452 -430 1461 -604 l 1452 -430 q 1218 29 1437 -172 q 728 274 999 229 l 728 274 q 694 259 697 280 q 718 232 691 238 l 718 232 q 1185 -156 1086 142 q 1054 -715 1283 -455 l 1054 -715 q 916 -806 986 -790 q 738 -754 846 -823 l 738 -754 l 706 -735 q 702 -711 691 -725 l 702 -711 q 839 -430 823 -555 q 695 -155 855 -306 l 695 -155 q 451 20 533 -2 q 247 -85 369 42 l 247 -85 q 168 -156 216 -116 q 69 -159 120 -196 l 69 -159 q 37 -160 51 -147 z"},"I":{"ha":1403,"x_min":49,"x_max":1311,"o":"m 775 -682 l 775 -682 q 762 -650 784 -662 l 762 -650 q 338 -641 540 -533 q 122 -960 136 -750 q 243 -1333 107 -1170 q 621 -1503 378 -1497 l 621 -1503 q 813 -1464 717 -1505 q 950 -1388 908 -1424 l 950 -1388 q 1125 -1243 1052 -1297 q 1274 -1228 1197 -1190 l 1274 -1228 q 1311 -1223 1299 -1242 q 1286 -1181 1323 -1205 l 1286 -1181 q 1052 -934 1067 -1041 q 1202 -578 1037 -827 l 1202 -578 q 1311 -177 1356 -345 q 1102 108 1265 -10 l 1102 108 q 758 240 945 221 q 405 111 570 258 l 405 111 q 257 -20 325 39 q 90 -17 189 -80 l 90 -17 q 49 -13 64 2 q 52 -47 34 -28 l 52 -47 q 640 -36 353 -353 l 640 -36 q 878 125 772 108 q 1062 72 984 142 l 1062 72 q 1123 -105 1137 1 q 992 -391 1109 -211 l 992 -391 q 834 -769 828 -639 q 1028 -1052 839 -899 l 1028 -1052 q 1037 -1072 1040 -1062 q 1018 -1081 1034 -1082 l 1018 -1081 q 786 -1189 895 -1082 q 517 -1299 676 -1296 l 517 -1299 q 292 -1198 370 -1290 q 230 -933 214 -1107 q 410 -686 246 -759 q 741 -688 573 -614 l 741 -688 q 775 -682 765 -699 z"},"J":{"ha":1454,"x_min":48,"x_max":1337,"o":"m 775 -683 l 775 -683 q 758 -650 783 -663 l 758 -650 q 332 -645 536 -533 q 116 -974 128 -757 q 239 -1344 104 -1191 q 617 -1503 374 -1497 l 617 -1503 q 809 -1464 713 -1505 q 946 -1388 904 -1424 l 946 -1388 q 1120 -1245 1047 -1297 q 1271 -1228 1192 -1194 l 1271 -1228 q 1309 -1224 1298 -1242 q 1295 -1191 1320 -1206 l 1295 -1191 q 1074 -906 1063 -1041 q 1235 -515 1084 -772 l 1235 -515 q 1337 14 1408 -217 q 1103 364 1266 244 l 1103 364 q 759 496 946 477 q 406 368 571 514 l 406 368 q 258 236 326 296 q 91 238 190 175 l 91 238 q 49 241 61 255 q 53 209 36 226 l 53 209 q 641 219 353 -97 l 641 219 q 879 382 773 365 q 1063 328 985 399 l 1063 328 q 1173 120 1138 256 q 1023 -341 1208 -16 q 849 -790 837 -666 q 1026 -1052 861 -914 l 1026 -1052 q 1033 -1071 1036 -1060 q 1016 -1081 1030 -1082 l 1016 -1081 q 767 -1196 892 -1081 l 767 -1196 q 650 -1273 714 -1244 q 513 -1299 585 -1303 l 513 -1299 q 278 -1195 366 -1290 q 210 -927 189 -1101 q 392 -680 230 -753 q 737 -688 554 -607 l 737 -688 q 775 -683 765 -700 z"},"K":{"ha":1662,"x_min":40,"x_max":1610,"o":"m 878 -569 l 1163 -725 q 1173 -739 1172 -730 q 1162 -754 1173 -749 l 1162 -754 q 1046 -923 1097 -787 l 1046 -923 q 920 -1064 1005 -1030 q 755 -1045 835 -1099 l 755 -1045 q 672 -876 674 -991 q 734 -677 670 -762 l 734 -677 q 845 -369 869 -489 q 695 -136 821 -250 l 695 -136 q 439 26 543 4 q 232 -88 334 47 l 232 -88 q 79 -153 145 -204 l 79 -153 q 41 -149 54 -135 q 47 -184 27 -163 l 47 -184 q 138 -262 56 -193 q 288 -331 220 -331 q 442 -226 356 -331 l 442 -226 q 544 -136 495 -160 q 653 -163 593 -112 l 653 -163 q 651 -314 710 -212 q 483 -537 591 -417 l 483 -537 q 340 -778 386 -644 q 320 -1009 293 -913 l 320 -1009 q 574 -1337 377 -1217 q 997 -1455 770 -1458 l 997 -1455 q 1427 -1299 1260 -1457 q 1602 -917 1594 -1142 l 1602 -917 q 1535 -720 1605 -805 q 1364 -582 1465 -636 l 1364 -582 q 1322 -585 1333 -566 q 1338 -619 1311 -604 l 1338 -619 q 1467 -751 1440 -682 q 1490 -928 1493 -820 l 1490 -928 q 1349 -1258 1484 -1113 q 995 -1412 1214 -1404 l 995 -1412 q 601 -1226 726 -1409 q 605 -842 476 -1043 l 605 -842 q 624 -833 612 -830 l 624 -833 q 635 -852 636 -838 l 635 -852 q 663 -1042 626 -942 q 823 -1201 699 -1142 q 1079 -1211 946 -1260 q 1269 -1050 1212 -1162 l 1269 -1050 q 1337 -908 1313 -962 q 1390 -859 1360 -855 l 1390 -859 q 1419 -846 1413 -863 q 1401 -817 1424 -829 l 1401 -817 l 1165 -682 q 1155 -667 1155 -676 q 1166 -653 1155 -658 l 1166 -653 q 1273 -531 1222 -623 q 1378 -301 1324 -439 l 1378 -301 q 1567 -160 1449 -117 l 1567 -160 q 1610 -156 1599 -174 q 1589 -119 1620 -138 l 1589 -119 l 1351 34 q 1333 34 1342 39 l 1333 34 q 1178 -130 1238 -29 q 1078 -363 1118 -231 l 1078 -363 q 1003 -504 1050 -455 q 898 -530 956 -554 l 898 -530 q 862 -538 870 -520 q 878 -569 854 -556 l 878 -569 z"},"L":{"ha":1171,"x_min":40,"x_max":1115,"o":"m 72 -191 l 72 -191 q 41 -205 47 -184 q 66 -238 34 -226 l 66 -238 q 178 -300 123 -261 q 303 -428 233 -340 q 319 -604 373 -517 q 204 -782 264 -692 l 204 -782 q 129 -942 151 -857 q 128 -1102 106 -1027 l 128 -1102 q 309 -1348 172 -1255 q 655 -1441 445 -1441 l 655 -1441 q 1113 -1032 1117 -1440 l 1113 -1032 q 953 -754 1112 -841 q 616 -757 793 -668 l 616 -757 q 592 -790 583 -772 q 626 -799 600 -809 l 626 -799 q 821 -810 728 -757 q 923 -1014 914 -863 l 923 -1014 q 857 -1289 933 -1191 q 651 -1397 780 -1388 l 651 -1397 q 445 -1327 525 -1397 q 365 -1165 365 -1258 l 365 -1165 q 391 -1046 365 -1102 q 450 -938 417 -990 l 450 -938 q 539 -717 510 -841 q 359 -431 567 -593 l 359 -431 q 351 -414 349 -423 q 364 -402 352 -405 l 364 -402 q 628 -250 506 -352 l 628 -250 q 876 -154 745 -152 q 1075 -257 1006 -156 l 1075 -257 q 1111 -269 1091 -280 q 1115 -235 1130 -259 l 1115 -235 q 997 -95 1066 -165 q 835 8 927 -25 q 627 21 742 41 q 373 -112 512 0 l 373 -112 q 224 -198 298 -172 q 72 -191 150 -224 z"},"M":{"ha":2265,"x_min":51,"x_max":2203,"o":"m 564 -553 l 564 -553 q 538 -622 566 -609 q 417 -615 509 -636 l 417 -615 q 163 -678 275 -581 q 51 -967 51 -775 l 51 -967 q 190 -1297 52 -1158 q 520 -1436 328 -1436 l 520 -1436 q 709 -1393 607 -1436 q 883 -1265 811 -1350 l 883 -1265 q 896 -1258 889 -1257 q 908 -1267 903 -1259 l 908 -1267 q 1022 -1388 952 -1339 q 1206 -1434 1091 -1437 l 1206 -1434 q 1473 -1250 1355 -1427 l 1473 -1250 q 1488 -1241 1479 -1241 q 1502 -1251 1497 -1241 l 1502 -1251 q 1608 -1379 1544 -1329 q 1768 -1429 1672 -1429 l 1768 -1429 q 1971 -1354 1891 -1427 q 2087 -1109 2051 -1281 l 2087 -1109 q 2179 -983 2109 -990 l 2179 -983 q 2201 -966 2199 -982 q 2176 -942 2202 -950 l 2176 -942 q 1909 -730 1982 -876 q 1915 -360 1836 -585 l 1915 -360 q 2016 -216 1950 -258 q 2159 -223 2081 -175 l 2159 -223 q 2203 -222 2188 -240 q 2197 -188 2217 -205 l 2197 -188 q 2063 -80 2129 -134 q 1929 26 1996 -27 l 1929 26 q 1908 26 1918 34 l 1908 26 q 1652 -354 1695 -145 q 1927 -849 1608 -563 l 1927 -849 q 1934 -863 1934 -856 q 1924 -875 1933 -870 l 1924 -875 q 1821 -1116 1854 -922 l 1821 -1116 q 1665 -1310 1786 -1308 l 1665 -1310 q 1519 -1184 1579 -1312 l 1519 -1184 q 1519 -1170 1515 -1177 l 1519 -1170 q 1576 -985 1558 -1087 q 1577 -769 1593 -883 l 1577 -769 q 1459 -352 1537 -493 q 1272 -72 1380 -212 l 1272 -72 q 1002 -33 1129 107 l 1002 -33 q 927 -85 966 -73 q 836 -57 887 -97 l 836 -57 q 804 -53 817 -41 q 805 -85 790 -66 l 805 -85 q 1009 -288 933 -263 q 1156 -246 1084 -313 l 1156 -246 q 1265 -187 1215 -191 q 1342 -261 1314 -183 l 1342 -261 q 1381 -680 1396 -411 q 1272 -1094 1365 -950 q 1094 -1263 1178 -1238 q 940 -1219 1009 -1289 l 940 -1219 q 939 -1198 930 -1209 l 939 -1198 q 1067 -816 1058 -1033 l 1067 -816 q 998 -474 1073 -638 q 805 -161 923 -311 l 805 -161 q 561 27 676 3 q 349 -90 445 51 l 349 -90 q 178 -121 265 -216 l 178 -121 q 141 -120 157 -103 q 145 -159 124 -137 l 145 -159 q 574 -232 418 -437 l 574 -232 q 622 -169 599 -198 q 689 -142 644 -140 l 689 -142 q 811 -269 747 -144 q 875 -584 875 -394 l 875 -584 q 745 -1020 873 -833 q 452 -1226 617 -1208 l 452 -1226 q 192 -1164 287 -1243 q 100 -977 97 -1085 l 100 -977 q 159 -801 103 -867 q 364 -774 214 -735 l 364 -774 q 615 -561 653 -848 l 615 -561 q 588 -530 611 -531 q 564 -553 564 -530 z"},"N":{"ha":1808,"x_min":53,"x_max":1748,"o":"m 566 -562 l 566 -562 q 540 -631 568 -618 q 419 -624 511 -645 l 419 -624 q 165 -686 277 -589 q 53 -976 53 -784 l 53 -976 q 180 -1311 54 -1179 q 522 -1445 305 -1444 l 522 -1445 q 750 -1379 629 -1445 q 954 -1187 870 -1313 l 954 -1187 q 969 -1180 959 -1180 l 969 -1180 q 983 -1190 980 -1181 l 983 -1190 q 1101 -1359 1022 -1282 q 1281 -1437 1180 -1437 l 1281 -1437 q 1509 -1362 1441 -1437 q 1619 -1118 1576 -1287 l 1619 -1118 q 1712 -993 1643 -1001 l 1712 -993 q 1735 -976 1733 -992 q 1711 -951 1736 -960 l 1711 -951 q 1447 -740 1518 -885 q 1457 -370 1376 -595 l 1457 -370 q 1561 -226 1494 -268 q 1705 -233 1627 -185 l 1705 -233 q 1748 -234 1734 -251 q 1742 -199 1762 -217 l 1742 -199 q 1610 -91 1676 -145 q 1477 17 1543 -37 l 1477 17 q 1456 17 1467 25 l 1456 17 q 1193 -362 1227 -152 q 1462 -859 1158 -572 l 1462 -859 q 1470 -873 1471 -867 q 1461 -885 1469 -880 l 1461 -885 q 1352 -1127 1390 -929 l 1352 -1127 q 1294 -1258 1332 -1225 q 1181 -1292 1255 -1292 l 1181 -1292 q 1075 -1240 1121 -1292 q 1003 -1113 1028 -1188 l 1003 -1113 q 1004 -1100 1001 -1105 l 1004 -1100 q 1069 -825 1063 -973 l 1069 -825 q 1004 -475 1075 -647 q 811 -163 933 -304 l 811 -163 q 563 18 678 -6 q 351 -99 447 42 l 351 -99 q 180 -130 267 -225 l 180 -130 q 142 -127 158 -109 q 147 -168 126 -146 l 147 -168 q 576 -241 420 -446 l 576 -241 q 624 -178 601 -207 q 691 -152 646 -149 l 691 -152 q 813 -278 749 -153 q 877 -593 877 -403 l 877 -593 q 747 -1029 875 -842 q 454 -1234 619 -1217 l 454 -1234 q 194 -1173 289 -1252 q 102 -986 99 -1095 l 102 -986 q 161 -810 105 -876 q 366 -783 216 -744 l 366 -783 q 617 -570 655 -857 l 617 -570 q 588 -535 611 -533 q 566 -562 565 -537 z"},"O":{"ha":1544,"x_min":54,"x_max":1454,"o":"m 61 -239 l 61 -239 q 364 -407 280 -413 q 655 -249 448 -401 l 655 -249 q 1007 -119 859 -99 q 1254 -278 1155 -139 l 1254 -278 q 1303 -646 1346 -409 q 1019 -1056 1259 -884 l 1019 -1056 q 674 -1208 850 -1176 q 351 -1150 498 -1240 l 351 -1150 q 271 -990 258 -1093 q 430 -834 284 -888 l 430 -834 q 716 -623 703 -734 q 565 -378 729 -513 l 565 -378 q 534 -372 546 -362 q 536 -399 522 -383 l 536 -399 q 536 -493 586 -456 q 315 -597 486 -531 l 315 -597 q 68 -878 62 -693 q 305 -1185 74 -1064 l 305 -1185 q 544 -1311 450 -1253 q 687 -1459 638 -1369 l 687 -1459 q 704 -1467 692 -1468 l 704 -1467 q 1141 -1302 944 -1436 q 1416 -964 1337 -1168 l 1416 -964 q 1454 -565 1495 -757 q 1290 -242 1412 -373 l 1290 -242 q 862 13 1086 -21 q 416 -94 638 47 l 416 -94 q 235 -204 317 -156 q 80 -208 152 -253 l 80 -208 q 55 -211 65 -199 q 61 -239 44 -224 z"},"P":{"ha":1826,"x_min":31,"x_max":1771,"o":"m 575 -751 l 575 -751 q 611 -753 596 -768 q 600 -711 626 -738 l 600 -711 q 508 -663 560 -675 q 403 -651 456 -652 l 403 -651 q 137 -746 243 -647 q 31 -1017 31 -846 q 164 -1312 31 -1189 q 525 -1435 297 -1435 l 525 -1435 q 757 -1366 663 -1432 q 904 -1210 851 -1300 l 904 -1210 q 925 -1204 911 -1196 l 925 -1204 l 1358 -1429 q 1400 -1425 1387 -1442 q 1393 -1393 1413 -1409 l 1393 -1393 q 1375 -1251 1322 -1342 q 1546 -1065 1427 -1161 l 1546 -1065 q 1771 -666 1783 -869 q 1623 -277 1758 -463 l 1623 -277 q 1319 1 1469 -68 q 962 -46 1169 69 l 962 -46 q 947 -47 954 -51 q 938 -35 939 -43 l 938 -35 q 887 176 923 91 q 775 332 850 261 l 775 332 q 749 336 761 345 q 747 310 737 327 l 747 310 q 798 -121 824 149 l 798 -121 q 788 -134 798 -130 l 788 -134 q 489 -116 588 -212 l 489 -116 q 457 -110 472 -99 q 455 -141 441 -122 l 455 -141 q 759 -356 611 -344 l 759 -356 q 771 -361 767 -357 q 774 -374 774 -365 l 774 -374 q 750 -631 762 -503 q 725 -889 737 -760 l 725 -889 q 626 -1141 710 -1035 q 417 -1250 542 -1248 l 417 -1250 q 191 -1184 283 -1257 q 99 -981 99 -1112 q 184 -774 99 -850 q 409 -698 268 -698 l 409 -698 q 575 -751 510 -696 z m 938 -1137 l 938 -1137 q 962 -1045 955 -1091 q 970 -958 968 -999 l 970 -958 q 968 -597 976 -745 q 956 -326 959 -449 l 956 -326 q 965 -311 956 -314 l 965 -311 q 1072 -255 1014 -289 l 1072 -255 q 1395 -162 1275 -138 q 1586 -300 1514 -186 l 1586 -300 q 1389 -837 1744 -550 l 1389 -837 q 1186 -1022 1268 -933 q 1097 -1209 1103 -1111 l 1097 -1209 q 1089 -1224 1097 -1221 q 1073 -1223 1081 -1227 l 1073 -1223 l 946 -1157 q 938 -1137 932 -1150 z"},"Q":{"ha":1633,"x_min":53,"x_max":1573,"o":"m 59 -239 l 59 -239 q 362 -407 278 -413 q 653 -251 446 -402 l 653 -251 q 1100 -145 913 -60 l 1100 -145 q 1110 -158 1110 -149 q 1104 -171 1109 -167 l 1104 -171 q 1004 -242 1056 -225 q 885 -217 951 -260 l 885 -217 q 848 -216 861 -203 q 854 -246 835 -229 l 854 -246 q 1091 -404 1008 -392 q 1255 -328 1174 -417 l 1255 -328 q 1270 -322 1261 -321 q 1283 -333 1278 -324 l 1283 -333 q 1290 -687 1345 -474 q 1017 -1058 1235 -901 l 1017 -1058 q 672 -1210 848 -1178 q 349 -1152 496 -1242 l 349 -1152 q 269 -991 256 -1094 q 428 -835 282 -888 l 428 -835 q 714 -624 701 -735 q 563 -379 727 -514 l 563 -379 q 534 -373 546 -363 q 534 -401 521 -384 l 534 -401 q 534 -494 584 -457 q 313 -598 484 -532 l 313 -598 q 66 -879 60 -694 q 303 -1186 72 -1065 l 303 -1186 q 544 -1317 451 -1263 q 685 -1461 636 -1371 l 685 -1461 q 702 -1469 692 -1470 l 702 -1469 q 1139 -1303 942 -1437 q 1414 -966 1335 -1169 l 1414 -966 q 1456 -590 1489 -772 q 1317 -277 1423 -408 l 1317 -277 q 1318 -255 1308 -264 l 1318 -255 q 1440 -187 1390 -180 q 1535 -251 1490 -194 l 1535 -251 q 1571 -260 1550 -272 q 1573 -220 1591 -248 l 1573 -220 q 1385 -12 1475 -76 q 1159 -105 1295 52 l 1159 -105 q 1137 -108 1148 -115 l 1137 -108 q 414 -94 787 142 l 414 -94 q 233 -205 315 -157 q 78 -210 150 -254 l 78 -210 q 53 -212 63 -200 q 59 -239 43 -225 z"},"R":{"ha":1905,"x_min":48,"x_max":1846,"o":"m 226 -142 l 226 -142 q 198 -140 209 -128 q 204 -171 187 -153 l 204 -171 q 449 -331 361 -337 q 591 -254 536 -326 l 591 -254 q 710 -148 660 -161 q 800 -185 759 -136 l 800 -185 q 892 -396 873 -273 q 905 -659 911 -519 l 905 -659 q 832 -967 898 -827 q 605 -1181 765 -1107 l 605 -1181 q 272 -1183 414 -1268 q 131 -926 129 -1099 l 131 -926 q 203 -722 131 -807 q 405 -621 275 -637 l 405 -621 q 653 -684 540 -604 l 653 -684 q 675 -681 667 -693 q 664 -652 683 -670 l 664 -652 q 393 -573 551 -563 l 393 -573 q 147 -679 241 -583 q 48 -931 52 -775 l 48 -931 q 261 -1348 52 -1215 q 707 -1413 469 -1481 l 707 -1413 q 990 -1176 882 -1361 l 990 -1176 q 1006 -1165 996 -1165 q 1020 -1180 1015 -1165 l 1020 -1180 q 1189 -1395 1061 -1316 q 1467 -1398 1317 -1474 q 1670 -1144 1617 -1322 l 1670 -1144 q 1759 -1024 1716 -1006 l 1759 -1024 q 1791 -1016 1780 -1032 q 1774 -985 1801 -1001 l 1774 -985 l 1425 -780 q 1417 -768 1417 -776 l 1417 -768 q 1421 -754 1415 -760 l 1421 -754 q 1582 -457 1554 -636 l 1582 -457 q 1683 -208 1626 -281 q 1812 -195 1740 -135 l 1812 -195 q 1846 -194 1832 -211 q 1835 -158 1860 -177 l 1835 -158 q 1708 -64 1771 -112 q 1582 28 1645 -17 l 1582 28 q 1566 30 1576 33 l 1566 30 q 1323 -350 1395 -31 l 1323 -350 q 1257 -566 1294 -492 q 1153 -624 1220 -640 l 1153 -624 q 1125 -631 1128 -617 q 1144 -659 1121 -646 l 1144 -659 l 1519 -893 q 1527 -906 1525 -897 l 1527 -906 q 1522 -920 1527 -911 l 1522 -920 q 1436 -1008 1475 -962 q 1384 -1114 1397 -1054 l 1384 -1114 q 1289 -1269 1360 -1222 q 1144 -1277 1218 -1316 l 1144 -1277 q 1059 -1154 1072 -1239 q 1063 -997 1045 -1069 l 1063 -997 q 1084 -630 1107 -820 l 1084 -630 q 992 -358 1065 -484 q 795 -102 918 -233 q 568 21 672 29 q 397 -75 464 13 l 397 -75 q 299 -157 341 -149 q 226 -142 256 -166 z"},"S":{"ha":1553,"x_min":56,"x_max":1477,"o":"m 1382 -1348 l 1382 -1348 q 1429 -1357 1405 -1376 q 1425 -1313 1452 -1339 l 1425 -1313 q 1299 -1194 1349 -1241 q 1205 -1124 1248 -1148 l 1205 -1124 q 1053 -1097 1127 -1079 q 842 -1185 978 -1116 l 842 -1185 q 584 -1262 700 -1257 q 367 -1171 468 -1268 l 367 -1171 q 239 -980 268 -1076 q 212 -783 209 -885 l 212 -783 q 426 -381 219 -543 q 936 -228 632 -220 l 936 -228 q 1303 -324 1149 -232 q 1432 -599 1457 -416 l 1432 -599 q 1282 -753 1411 -744 q 996 -663 1153 -763 l 996 -663 q 697 -547 790 -532 q 439 -789 604 -562 l 439 -789 q 438 -826 419 -815 q 475 -810 457 -837 l 475 -810 q 630 -756 535 -721 q 838 -858 724 -792 l 838 -858 q 983 -936 915 -901 q 1156 -947 1051 -972 l 1156 -947 q 1352 -840 1256 -922 q 1477 -632 1447 -758 l 1477 -632 q 1473 -432 1502 -522 q 1396 -270 1444 -342 l 1396 -270 q 1157 -56 1307 -135 q 813 23 1006 23 l 813 23 q 289 -168 528 23 q 56 -696 50 -359 l 56 -696 q 770 -1455 64 -1173 l 770 -1455 q 841 -1451 804 -1469 l 841 -1451 q 1250 -1301 1151 -1298 q 1382 -1348 1348 -1304 z"},"T":{"ha":1533,"x_min":49,"x_max":1477,"o":"m 539 -711 l 539 -711 q 385 -674 486 -674 l 385 -674 q 146 -768 243 -677 q 49 -993 49 -859 l 49 -993 q 202 -1324 49 -1187 q 588 -1462 355 -1461 l 588 -1462 q 962 -1369 786 -1463 q 1269 -1180 1137 -1275 l 1269 -1180 q 1439 -1180 1361 -1111 l 1439 -1180 q 1477 -1184 1461 -1200 q 1474 -1151 1493 -1169 l 1474 -1151 l 1302 -1007 q 1039 -1021 1187 -923 l 1039 -1021 q 739 -1204 896 -1120 q 450 -1288 581 -1288 l 450 -1288 q 205 -1201 296 -1288 q 112 -1003 113 -1114 l 112 -1003 q 377 -713 107 -740 l 377 -713 q 515 -748 454 -704 l 515 -748 q 549 -744 538 -762 q 539 -711 560 -726 z m 103 -392 l 103 -392 q 308 -524 223 -489 l 308 -524 q 497 -506 430 -576 l 497 -506 q 808 -226 683 -314 q 1025 -120 933 -139 q 1186 -133 1116 -101 q 1333 -212 1256 -165 l 1333 -212 q 1376 -214 1363 -232 q 1366 -178 1389 -197 l 1366 -178 q 1164 -41 1270 -99 q 932 18 1058 16 q 652 -52 805 19 q 309 -303 499 -123 l 309 -303 q 185 -363 246 -364 l 185 -363 q 115 -345 152 -363 l 115 -345 q 83 -352 91 -334 q 103 -392 74 -370 z m 784 -1113 l 784 -1113 q 745 -992 711 -1056 q 891 -843 779 -929 l 891 -843 q 1070 -558 1085 -693 q 796 -327 1054 -423 l 796 -327 q 766 -333 775 -318 q 775 -360 756 -348 l 775 -360 q 847 -496 873 -423 q 696 -664 820 -569 l 696 -664 q 537 -895 550 -773 q 758 -1144 523 -1018 l 758 -1144 q 794 -1143 782 -1157 q 784 -1113 806 -1130 z"},"U":{"ha":1460,"x_min":49,"x_max":1402,"o":"m 1153 14 l 1153 14 q 1018 -78 1052 -35 l 1018 -78 q 978 -247 982 -125 l 978 -247 q 969 -264 978 -261 q 950 -257 959 -267 l 950 -257 q 866 -167 908 -212 q 781 -78 823 -123 l 781 -78 q 370 -103 585 126 l 370 -103 q 222 -207 295 -182 q 80 -172 149 -233 l 80 -172 q 50 -172 62 -158 q 56 -203 37 -186 l 56 -203 l 309 -416 l 310 -417 q 404 -629 437 -539 q 283 -810 370 -720 l 283 -810 q 158 -992 209 -885 q 187 -1234 107 -1100 l 187 -1234 q 354 -1385 250 -1339 q 536 -1429 458 -1432 l 536 -1429 q 712 -1314 676 -1423 q 652 -1133 748 -1206 l 652 -1133 q 615 -1133 630 -1115 q 623 -1172 599 -1152 l 623 -1172 q 663 -1305 704 -1235 q 537 -1381 621 -1376 l 537 -1381 q 425 -1340 476 -1384 q 371 -1234 373 -1296 l 371 -1234 q 415 -1074 367 -1118 q 494 -999 462 -1030 l 494 -999 q 637 -705 658 -830 q 378 -418 615 -580 l 378 -418 q 368 -401 367 -411 q 384 -389 369 -392 l 384 -389 q 480 -337 446 -375 q 551 -265 513 -300 l 551 -265 q 779 -187 680 -145 q 972 -337 878 -229 l 972 -337 q 976 -348 976 -342 l 976 -348 l 970 -1070 q 914 -1166 970 -1144 l 914 -1166 q 916 -1214 868 -1187 l 916 -1214 q 1116 -1312 1016 -1262 q 1317 -1412 1216 -1362 l 1317 -1412 q 1349 -1408 1335 -1422 q 1341 -1376 1362 -1395 l 1341 -1376 q 1237 -1225 1263 -1320 q 1211 -1005 1210 -1131 l 1211 -1005 l 1218 -301 q 1371 -196 1219 -141 l 1371 -196 q 1402 -190 1391 -204 q 1398 -163 1413 -177 l 1398 -163 l 1207 9 q 1180 20 1195 19 q 1153 14 1165 21 z"},"V":{"ha":1817,"x_min":45,"x_max":1704,"o":"m 380 -704 l 380 -704 q 498 -719 437 -702 q 603 -775 558 -736 l 603 -775 q 635 -780 621 -791 q 633 -754 649 -769 l 633 -754 q 400 -652 524 -649 l 400 -652 q 145 -757 244 -655 q 45 -1029 46 -860 l 45 -1029 q 183 -1329 45 -1197 q 526 -1461 320 -1461 l 526 -1461 q 937 -1258 799 -1461 l 937 -1258 q 954 -1247 946 -1246 q 966 -1262 962 -1249 l 966 -1262 q 1102 -1428 999 -1363 q 1335 -1455 1205 -1494 q 1537 -1280 1465 -1417 l 1537 -1280 q 1585 -1181 1564 -1226 q 1644 -1131 1606 -1137 l 1644 -1131 q 1656 -1093 1707 -1118 l 1656 -1093 q 1457 -899 1452 -990 q 1562 -724 1462 -808 l 1562 -724 q 1704 -403 1768 -548 q 1477 -127 1639 -259 l 1477 -127 q 1047 23 1267 44 q 626 -176 827 1 l 626 -176 q 449 -290 527 -263 q 304 -249 371 -318 l 304 -249 q 267 -243 283 -228 q 272 -279 251 -259 l 272 -279 q 488 -452 401 -408 q 661 -471 575 -497 l 661 -471 q 679 -477 673 -469 l 679 -477 q 785 -664 746 -561 q 819 -881 824 -767 l 819 -881 q 704 -1143 812 -1010 q 415 -1269 596 -1276 l 415 -1269 q 208 -1183 296 -1260 q 120 -990 120 -1107 l 120 -990 q 188 -791 119 -873 q 380 -704 257 -709 z m 1010 -1067 l 1010 -1067 q 1002 -872 1022 -977 q 899 -661 982 -768 q 724 -469 816 -555 l 724 -469 q 718 -454 717 -462 q 728 -442 719 -447 l 728 -442 q 829 -373 775 -415 q 948 -275 882 -331 l 948 -275 q 1215 -113 1087 -155 q 1437 -151 1343 -72 l 1437 -151 q 1513 -328 1539 -236 q 1384 -518 1486 -420 l 1384 -518 q 1269 -763 1242 -651 q 1433 -986 1296 -875 l 1433 -986 q 1440 -1000 1441 -992 q 1429 -1013 1439 -1009 l 1429 -1013 q 1339 -1098 1373 -1040 q 1280 -1223 1304 -1157 l 1280 -1223 q 1205 -1330 1256 -1286 q 1087 -1342 1153 -1375 l 1087 -1342 q 1012 -1254 1033 -1315 q 1010 -1067 990 -1194 z"},"W":{"ha":2208,"x_min":50,"x_max":2140,"o":"m 385 -691 l 385 -691 q 608 -761 520 -685 l 608 -761 q 640 -767 626 -778 q 640 -743 653 -757 l 640 -743 q 405 -639 528 -634 l 405 -639 q 150 -744 249 -642 q 50 -1015 51 -847 l 50 -1015 q 183 -1318 41 -1188 q 531 -1448 325 -1448 l 531 -1448 q 902 -1296 759 -1448 l 902 -1296 q 927 -1298 916 -1283 l 927 -1298 q 1089 -1454 1025 -1452 q 1258 -1311 1152 -1457 l 1258 -1311 q 1283 -1308 1269 -1296 l 1283 -1308 q 1314 -1338 1303 -1328 l 1314 -1338 q 1658 -1451 1459 -1470 q 1946 -1257 1856 -1433 l 1946 -1257 q 1988 -1149 1973 -1201 q 2052 -1068 2002 -1098 l 2052 -1068 q 2080 -1038 2080 -1052 q 2062 -1020 2080 -1024 l 2062 -1020 q 1931 -963 1995 -1005 l 1931 -963 q 1888 -827 1863 -891 q 2019 -689 1913 -764 l 2019 -689 q 2140 -448 2154 -590 q 1975 -162 2125 -306 l 1975 -162 q 1620 23 1785 22 q 1323 -114 1455 24 l 1323 -114 q 1178 -128 1257 -182 l 1178 -128 q 820 13 962 41 q 582 -148 677 -16 l 582 -148 q 252 -251 428 -360 l 252 -251 q 218 -248 229 -235 q 223 -277 206 -262 l 223 -277 q 464 -429 363 -399 q 642 -431 564 -459 l 642 -431 q 660 -435 654 -427 l 660 -435 q 784 -633 737 -522 q 824 -867 830 -744 l 824 -867 q 709 -1129 817 -996 q 420 -1248 601 -1263 l 420 -1248 q 222 -1166 312 -1238 q 125 -977 131 -1094 l 125 -977 q 193 -778 124 -860 q 385 -691 262 -696 z m 1836 -961 l 1836 -961 q 1741 -1068 1772 -1008 q 1679 -1190 1709 -1128 l 1679 -1190 q 1515 -1352 1615 -1317 q 1349 -1315 1415 -1387 l 1349 -1315 q 1285 -1148 1282 -1242 q 1386 -920 1287 -1055 l 1386 -920 q 1508 -637 1497 -764 q 1426 -379 1519 -511 l 1426 -379 q 1421 -363 1419 -370 q 1436 -354 1423 -356 l 1436 -354 q 1537 -293 1479 -343 l 1537 -293 q 1788 -117 1691 -124 q 1941 -183 1884 -111 l 1941 -183 q 1975 -307 1983 -236 q 1804 -509 1966 -378 l 1804 -509 q 1743 -849 1582 -685 l 1743 -849 q 1837 -934 1792 -898 l 1837 -934 q 1843 -947 1843 -940 q 1836 -961 1843 -955 z m 951 -1233 l 951 -1233 q 1009 -869 1049 -1076 l 1009 -869 q 891 -630 985 -745 q 698 -426 797 -515 l 698 -426 q 700 -400 685 -411 l 700 -400 q 806 -303 746 -369 l 806 -303 q 1001 -153 905 -189 q 1225 -228 1096 -117 l 1225 -228 q 1317 -460 1348 -333 q 1194 -720 1286 -587 l 1194 -720 q 1110 -1000 1091 -869 q 1226 -1248 1129 -1131 l 1226 -1248 q 1226 -1269 1235 -1257 l 1226 -1269 q 1086 -1351 1148 -1354 q 951 -1251 1023 -1348 l 951 -1251 q 951 -1233 945 -1242 z"},"X":{"ha":1476,"x_min":72,"x_max":1420,"o":"m 497 -780 l 497 -780 q 539 -771 530 -792 q 519 -742 548 -751 l 519 -742 q 230 -748 351 -685 q 73 -985 109 -812 q 153 -1306 36 -1158 q 463 -1455 270 -1455 l 463 -1455 q 758 -1362 658 -1455 q 898 -1118 857 -1270 l 898 -1118 q 913 -1106 901 -1106 l 913 -1106 q 929 -1118 925 -1106 l 929 -1118 q 1046 -1404 977 -1313 q 1224 -1416 1114 -1495 l 1224 -1416 q 1383 -1409 1326 -1341 l 1383 -1409 q 1412 -1416 1395 -1424 q 1420 -1382 1429 -1409 l 1420 -1382 q 1290 -1171 1363 -1211 q 1143 -1190 1217 -1132 l 1143 -1190 q 1041 -1211 1081 -1236 q 976 -1131 1000 -1187 q 941 -1009 951 -1076 q 931 -904 931 -942 l 931 -904 q 935 -892 931 -897 l 935 -892 q 946 -887 940 -887 l 946 -887 l 1256 -887 q 1268 -859 1283 -887 l 1268 -859 l 1188 -723 q 1144 -695 1173 -695 l 1144 -695 l 954 -695 q 942 -690 948 -695 l 942 -690 q 938 -678 936 -684 l 938 -678 q 1092 -268 962 -363 q 1342 -243 1222 -174 l 1342 -243 q 1374 -245 1361 -255 q 1377 -222 1387 -236 l 1377 -222 q 1263 -88 1325 -153 l 1263 -88 q 1174 4 1215 -38 l 1174 4 q 1138 20 1160 18 q 1095 14 1115 21 l 1095 14 q 751 -374 823 -61 l 751 -374 q 736 -390 748 -390 q 719 -374 723 -390 l 719 -374 q 518 -1 632 -33 q 332 -24 404 30 l 332 -24 q 163 -46 207 -116 l 163 -46 q 139 -39 154 -31 q 136 -75 124 -48 l 136 -75 q 316 -304 236 -290 q 464 -256 395 -319 l 464 -256 q 596 -221 546 -179 q 674 -352 646 -264 q 712 -540 702 -441 q 724 -678 722 -639 l 724 -678 q 720 -690 725 -685 l 720 -690 q 709 -695 715 -695 l 709 -695 l 588 -695 q 576 -723 550 -695 l 576 -723 l 699 -859 q 722 -879 707 -868 l 722 -879 q 729 -894 729 -883 l 729 -894 q 643 -1156 717 -1058 q 446 -1255 569 -1255 l 446 -1255 q 219 -1176 300 -1254 q 142 -987 138 -1099 q 246 -800 145 -876 q 497 -780 347 -724 z"},"Y":{"ha":1755,"x_min":45,"x_max":1701,"o":"m 380 -710 l 380 -710 q 603 -780 515 -704 l 603 -780 q 635 -786 620 -797 q 635 -763 650 -776 l 635 -763 q 400 -658 523 -655 l 400 -658 q 145 -763 244 -661 q 45 -1034 46 -866 l 45 -1034 q 183 -1334 45 -1202 q 526 -1467 320 -1467 l 526 -1467 q 778 -1406 661 -1467 q 959 -1236 894 -1345 l 959 -1236 q 1030 -1379 973 -1316 q 1181 -1468 1087 -1443 l 1181 -1468 q 1421 -1430 1309 -1501 q 1574 -1225 1532 -1360 l 1574 -1225 q 1671 -1047 1630 -1040 l 1671 -1047 q 1701 -1032 1695 -1052 q 1670 -1000 1706 -1013 l 1670 -1000 q 1460 -846 1481 -922 q 1558 -566 1438 -771 l 1558 -566 q 1647 -149 1696 -326 q 1421 163 1598 27 l 1421 163 q 1195 283 1310 244 q 963 319 1079 322 l 963 319 q 642 243 778 314 q 403 43 506 172 l 403 43 q 404 16 390 26 q 434 23 418 5 l 434 23 q 661 196 538 137 q 951 255 784 255 l 951 255 q 1358 32 1265 240 q 1282 -449 1450 -176 l 1282 -449 q 1222 -716 1182 -609 q 1439 -917 1262 -823 l 1439 -917 q 1448 -932 1448 -924 l 1448 -932 q 1439 -946 1448 -940 l 1439 -946 q 1366 -1010 1403 -964 q 1308 -1160 1329 -1057 l 1308 -1160 q 1248 -1301 1290 -1242 q 1118 -1350 1205 -1360 l 1118 -1350 q 1018 -1274 1047 -1341 q 1005 -1123 989 -1208 l 1005 -1123 q 1004 -888 1031 -1008 l 1004 -888 q 876 -570 959 -684 q 700 -373 792 -456 l 700 -373 q 695 -358 695 -368 l 695 -358 q 705 -346 696 -348 l 705 -346 q 806 -283 739 -331 l 806 -283 q 966 -222 901 -208 q 1086 -300 1031 -237 l 1086 -300 q 1127 -309 1107 -323 q 1129 -272 1146 -296 l 1129 -272 q 1039 -165 1076 -212 q 975 -82 1001 -118 l 975 -82 q 823 -4 915 2 q 639 -95 730 -11 l 639 -95 q 468 -131 538 -187 l 468 -131 q 433 -130 446 -115 q 443 -168 420 -145 l 443 -168 q 567 -287 501 -230 q 680 -417 632 -345 l 680 -417 q 784 -646 744 -514 q 819 -887 823 -779 l 819 -887 q 704 -1148 812 -1015 q 415 -1267 596 -1282 l 415 -1267 q 210 -1191 299 -1269 q 120 -996 120 -1113 l 120 -996 q 188 -796 119 -879 q 380 -710 257 -714 z"},"Z":{"ha":1364,"x_min":47,"x_max":1310,"o":"m 521 -849 l 521 -849 q 551 -823 553 -848 q 509 -799 548 -799 l 509 -799 q 304 -881 389 -801 q 232 -1128 219 -962 q 387 -1397 245 -1295 q 763 -1497 529 -1500 l 763 -1497 q 1072 -1389 934 -1497 q 1214 -1133 1210 -1282 l 1214 -1133 q 1146 -923 1214 -1000 q 975 -803 1077 -846 l 975 -803 q 964 -786 963 -797 q 979 -773 965 -776 l 979 -773 q 1217 -629 1126 -731 q 1310 -386 1307 -527 l 1310 -386 q 1253 -115 1313 -232 q 1095 74 1193 2 l 1095 74 q 635 230 813 276 q 328 51 457 184 l 328 51 q 191 -61 241 -36 q 83 -42 141 -86 l 83 -42 q 47 -43 62 -25 q 60 -86 32 -61 l 60 -86 q 338 -221 219 -234 q 565 -83 457 -209 l 565 -83 q 815 117 703 79 q 1039 50 927 155 l 1039 50 q 1124 -149 1123 -28 q 1046 -391 1124 -271 l 1046 -391 q 550 -616 851 -684 l 550 -616 q 507 -639 511 -610 q 544 -674 502 -668 l 544 -674 q 870 -795 748 -710 q 1000 -1019 991 -881 l 1000 -1019 q 906 -1222 1009 -1149 q 623 -1293 802 -1295 l 623 -1293 q 405 -1232 481 -1291 q 321 -1069 329 -1174 q 367 -909 312 -964 q 521 -849 422 -855 z"},"[":{"ha":375,"x_min":34,"x_max":322,"o":"m 57 -1514 l 57 -1514 q 178 -1514 102 -1514 q 299 -1514 254 -1514 l 299 -1514 q 322 -1490 322 -1514 l 322 -1490 l 322 -1483 q 299 -1460 322 -1460 l 299 -1460 l 241 -1460 q 218 -1437 218 -1460 l 218 -1437 l 218 21 q 241 43 218 43 l 241 43 l 299 43 q 322 66 322 43 l 322 66 l 322 74 q 299 97 322 97 l 299 97 q 178 97 254 97 q 57 97 102 97 l 57 97 q 34 74 34 97 l 34 74 l 34 -1490 q 57 -1514 34 -1514 z"},"\\":{"ha":219,"x_min":-375,"x_max":858,"o":"m 827 -1326 l 827 -1326 l 857 -1300 q 858 -1277 868 -1288 l 858 -1277 l -320 84 q -343 86 -331 97 l -343 86 l -373 60 q -375 37 -385 51 l -375 37 l 804 -1324 q 827 -1326 812 -1336 z"},"]":{"ha":375,"x_min":34,"x_max":322,"o":"m 299 97 l 299 97 q 178 97 254 97 q 57 97 102 97 l 57 97 q 34 73 34 97 l 34 73 l 34 66 q 57 43 34 43 l 57 43 l 115 43 q 138 20 138 43 l 138 20 l 138 -1438 q 115 -1460 138 -1460 l 115 -1460 l 57 -1460 q 34 -1483 34 -1460 l 34 -1483 l 34 -1491 q 57 -1514 34 -1514 l 57 -1514 q 178 -1514 102 -1514 q 299 -1514 254 -1514 l 299 -1514 q 322 -1491 322 -1514 l 322 -1491 l 322 73 q 299 97 322 97 z"},"^":{"ha":857,"x_min":42,"x_max":798,"o":"m 798 -946 l 798 -946 l 798 -907 q 789 -892 798 -895 l 789 -892 q 772 -894 780 -888 l 772 -894 l 430 -1182 q 410 -1182 419 -1193 l 410 -1182 l 68 -894 q 51 -892 59 -888 l 51 -892 q 42 -907 42 -895 l 42 -907 l 42 -946 q 45 -956 42 -954 l 45 -956 l 407 -1436 q 420 -1443 412 -1443 l 420 -1443 q 433 -1436 426 -1443 l 433 -1436 l 795 -956 q 798 -946 798 -953 z"},"_":{"ha":934,"x_min":-18,"x_max":950,"o":"m -2 231 l -2 231 l 934 231 q 950 248 950 231 l 950 248 l 950 362 q 934 379 950 379 l 934 379 l -2 379 q -18 362 -18 379 l -18 362 l -18 248 q -2 231 -18 231 z"},"`":{"ha":1024,"x_min":332,"x_max":636,"o":"m 599 -1054 l 408 -1238 q 332 -1362 332 -1312 l 332 -1362 q 427 -1434 332 -1434 l 427 -1434 q 498 -1408 468 -1434 l 498 -1408 q 556 -1292 524 -1386 l 556 -1292 l 636 -1054 l 599 -1054 z"},"a":{"ha":943,"x_min":53,"x_max":891,"o":"m 534 -141 l 534 -141 q 422 -55 483 -102 q 309 30 361 -9 l 309 30 q 281 42 291 44 q 272 24 270 40 l 272 24 q 210 -56 272 3 l 210 -56 q 53 -454 47 -209 l 53 -454 q 248 -809 59 -664 l 248 -809 q 357 -902 306 -853 q 446 -1021 407 -951 l 446 -1021 q 490 -1023 462 -1052 l 490 -1023 q 794 -820 642 -851 l 794 -820 q 804 -782 842 -811 l 804 -782 q 753 -698 757 -748 l 753 -698 l 753 -696 l 756 -239 q 790 -176 756 -193 q 862 -202 823 -159 l 862 -202 q 891 -210 877 -219 q 891 -180 904 -202 l 891 -180 q 822 -74 855 -126 q 765 34 788 -22 l 765 34 l 764 35 q 730 35 750 58 l 730 35 q 704 19 719 23 l 704 19 q 560 -132 590 -6 l 560 -132 q 550 -144 558 -138 l 550 -144 q 534 -141 541 -145 z m 545 -730 l 545 -730 q 400 -826 483 -747 l 400 -826 q 336 -835 360 -874 l 336 -835 q 253 -486 230 -677 l 253 -486 q 445 -149 285 -213 l 445 -149 q 447 -148 446 -149 l 447 -148 q 546 -197 488 -135 l 546 -197 q 550 -208 550 -203 l 550 -208 q 549 -255 549 -223 l 549 -255 l 558 -714 q 545 -730 558 -726 z"},"b":{"ha":910,"x_min":56,"x_max":866,"o":"m 56 -1309 l 56 -1309 q 59 -1339 44 -1329 q 88 -1332 73 -1349 l 88 -1332 q 161 -1210 135 -1271 l 161 -1210 q 174 -1197 165 -1199 q 190 -1207 183 -1195 l 190 -1207 q 549 -1411 299 -1385 l 549 -1411 q 573 -1393 571 -1412 q 550 -1372 575 -1374 l 550 -1372 q 406 -1317 448 -1367 q 365 -1119 364 -1267 l 365 -1119 l 368 -860 q 375 -844 368 -848 q 392 -846 382 -841 l 392 -846 q 518 -919 454 -879 q 635 -1010 581 -959 l 635 -1010 q 678 -997 671 -1048 l 678 -997 q 709 -931 681 -960 q 759 -874 737 -902 l 759 -874 q 866 -555 874 -725 l 866 -555 q 752 -276 856 -382 l 752 -276 q 657 -189 709 -231 q 567 -103 604 -148 l 567 -103 l 566 -105 q 476 35 506 -27 l 476 35 q 440 35 462 64 l 440 35 q 105 -171 330 -101 l 105 -171 q 84 -188 83 -178 q 100 -203 85 -199 l 100 -203 q 163 -336 164 -225 l 163 -336 l 161 -942 q 131 -1163 160 -1078 q 56 -1309 101 -1249 z m 368 -792 l 368 -792 l 372 -283 q 383 -262 372 -269 l 383 -262 l 537 -170 q 579 -174 562 -157 l 579 -174 l 596 -193 q 598 -195 598 -193 l 598 -195 q 679 -487 679 -312 l 679 -487 q 638 -667 678 -586 q 531 -824 597 -749 l 531 -824 q 376 -806 488 -871 l 376 -806 q 368 -792 368 -801 z"},"c":{"ha":726,"x_min":59,"x_max":675,"o":"m 340 29 l 340 29 q 315 -7 338 5 q 275 -31 291 -19 l 275 -31 q 113 -221 160 -109 q 59 -460 65 -334 l 59 -460 q 213 -894 47 -745 l 213 -894 q 349 -980 272 -947 q 507 -1035 426 -1014 l 507 -1035 q 544 -1010 529 -1039 l 544 -1010 l 661 -774 q 654 -741 675 -745 l 654 -741 q 519 -689 580 -730 l 519 -689 q 473 -707 491 -671 l 473 -707 l 369 -923 q 333 -929 359 -944 l 333 -929 q 249 -743 267 -890 q 257 -473 231 -596 l 257 -473 q 420 -177 304 -242 q 652 -157 536 -112 l 652 -157 q 675 -155 667 -164 l 675 -155 q 670 -136 683 -142 l 670 -136 q 516 -52 589 -95 q 384 38 442 -9 l 384 38 q 358 42 375 44 q 340 29 340 40 z"},"d":{"ha":930,"x_min":50,"x_max":895,"o":"m 258 -1393 l 258 -1393 q 181 -1300 179 -1371 l 181 -1300 q 233 -1216 182 -1255 q 351 -1165 283 -1178 l 351 -1165 q 353 -1164 352 -1165 l 353 -1164 q 719 -960 563 -1086 q 895 -594 874 -834 l 895 -594 l 895 -591 q 808 -291 874 -411 q 652 -108 742 -171 l 652 -108 l 651 -106 q 552 -42 609 -70 q 451 16 495 -14 l 451 16 q 415 16 423 35 l 415 16 q 106 -187 359 -117 l 106 -187 q 90 -202 91 -190 q 101 -219 89 -214 l 101 -219 q 164 -352 164 -243 l 164 -352 l 162 -768 q 194 -801 162 -803 l 194 -801 q 394 -869 294 -788 l 394 -869 q 400 -884 400 -873 l 400 -884 q 390 -896 398 -892 l 390 -896 q 314 -927 352 -912 q 240 -961 276 -943 l 240 -961 q 103 -1070 147 -1003 q 50 -1203 58 -1137 l 50 -1203 l 50 -1208 q 242 -1421 75 -1399 l 242 -1421 q 271 -1411 268 -1425 q 258 -1393 273 -1397 z m 453 -868 l 453 -868 q 436 -866 444 -872 l 436 -866 l 389 -829 q 369 -793 369 -814 l 369 -793 l 373 -299 q 385 -278 373 -284 l 385 -278 l 601 -151 q 649 -163 627 -135 l 649 -163 q 719 -500 739 -290 q 545 -819 698 -711 l 545 -819 q 453 -868 517 -838 z"},"e":{"ha":741,"x_min":59,"x_max":688,"o":"m 340 28 l 340 28 q 315 -8 338 4 q 275 -32 291 -20 l 275 -32 q 113 -222 160 -110 q 59 -461 65 -335 l 59 -461 q 213 -895 47 -746 l 213 -895 q 349 -981 272 -948 q 507 -1036 426 -1015 l 507 -1036 q 544 -1011 532 -1041 l 544 -1011 l 688 -673 q 681 -639 698 -646 l 681 -639 l 679 -639 l 269 -480 q 259 -461 257 -474 l 259 -461 q 423 -176 308 -239 q 652 -158 538 -114 l 652 -158 q 678 -155 672 -167 q 670 -137 683 -143 l 670 -137 q 516 -53 589 -96 q 384 37 442 -10 l 384 37 q 358 41 375 43 q 340 28 340 39 z m 247 -537 l 247 -537 q 254 -524 248 -529 q 269 -524 260 -520 l 269 -524 l 482 -604 q 491 -625 497 -610 l 491 -625 l 369 -924 q 333 -930 360 -946 l 333 -930 q 254 -775 275 -896 q 247 -537 233 -654 z"},"f":{"ha":500,"x_min":-19,"x_max":592,"o":"m 327 -1011 l 327 -1011 l 500 -1011 q 516 -995 516 -1011 l 516 -995 l 516 -933 q 500 -917 516 -917 l 500 -917 l 379 -917 q 367 -911 372 -917 q 363 -899 361 -905 l 363 -899 q 360 -743 369 -843 l 360 -743 l 259 309 q 239 344 255 343 q 219 307 223 344 l 219 307 q 168 -304 194 1 q 113 -915 142 -609 l 113 -915 l -3 -915 q -18 -929 -18 -915 q -7 -946 -19 -944 l -7 -946 q 101 -1013 58 -957 q 138 -1159 144 -1069 l 138 -1159 q 175 -1397 131 -1301 q 351 -1451 219 -1494 l 351 -1451 q 485 -1407 424 -1426 q 570 -1428 545 -1389 l 570 -1428 q 592 -1446 582 -1449 q 589 -1407 602 -1443 l 589 -1407 q 496 -1253 553 -1293 q 317 -1272 438 -1214 l 317 -1272 q 180 -1218 200 -1326 q 223 -1078 159 -1111 l 223 -1078 q 304 -1022 285 -1044 l 304 -1022 q 327 -1011 315 -1011 z"},"g":{"ha":952,"x_min":58,"x_max":834,"o":"m 595 -123 l 595 -123 q 422 -49 523 -90 q 264 33 321 -9 l 264 33 q 234 44 243 47 q 227 27 225 41 l 227 27 q 212 -34 228 9 q 172 -111 195 -77 l 172 -111 q 89 -281 108 -204 q 58 -464 70 -358 l 58 -464 q 104 -657 47 -566 q 252 -819 160 -748 l 252 -819 q 361 -912 310 -863 q 450 -1031 412 -961 l 450 -1031 q 495 -1033 467 -1062 l 495 -1033 q 815 -828 645 -863 l 815 -828 q 834 -796 859 -817 l 834 -796 q 752 -520 742 -661 q 817 -236 762 -380 l 817 -236 l 817 -235 l 818 -234 q 758 244 908 95 q 459 407 607 392 l 459 407 q 120 275 203 432 l 120 275 q 120 207 101 239 q 174 169 138 175 l 174 169 q 299 261 245 157 l 299 261 q 515 352 373 410 l 515 352 q 655 176 637 301 q 619 -111 673 51 l 619 -111 q 618 -114 619 -113 l 618 -114 l 617 -115 q 595 -123 611 -130 z m 653 -681 l 653 -681 q 520 -752 597 -704 q 407 -833 443 -800 l 407 -833 l 405 -834 q 405 -836 405 -835 l 405 -836 q 341 -845 369 -889 l 341 -845 q 257 -496 235 -687 l 257 -496 q 312 -262 272 -369 q 436 -122 352 -155 l 436 -122 l 437 -121 l 438 -121 q 583 -163 494 -106 l 583 -163 q 590 -182 593 -168 l 590 -182 q 559 -415 548 -297 q 660 -657 569 -534 l 660 -657 q 653 -681 669 -673 z"},"h":{"ha":908,"x_min":55,"x_max":865,"o":"m 55 -1315 l 55 -1315 q 57 -1344 42 -1334 q 87 -1337 72 -1355 l 87 -1337 q 158 -1219 131 -1282 l 158 -1219 q 172 -1209 161 -1209 l 172 -1209 q 188 -1217 181 -1207 l 188 -1217 q 371 -1377 246 -1321 q 623 -1423 495 -1434 l 623 -1423 q 649 -1402 649 -1422 q 624 -1384 649 -1382 l 624 -1384 q 441 -1336 519 -1391 q 364 -1124 363 -1281 l 364 -1124 l 366 -900 q 374 -885 366 -890 q 390 -886 382 -881 l 390 -886 q 501 -952 445 -916 q 603 -1033 556 -988 l 603 -1033 q 645 -1020 640 -1070 l 645 -1020 q 676 -954 649 -983 q 726 -897 703 -925 l 726 -897 q 865 -525 861 -725 l 865 -525 q 658 -5 872 -231 q 269 339 444 220 l 269 339 q 234 345 245 356 q 240 318 222 333 l 240 318 q 525 45 381 193 q 655 -424 668 -103 l 655 -424 q 617 -661 649 -550 q 498 -847 584 -773 l 498 -847 q 376 -846 454 -884 l 376 -846 q 367 -831 367 -843 l 367 -831 l 371 -227 q 436 -160 371 -146 l 436 -160 q 461 -175 450 -164 q 486 -194 472 -186 q 510 -193 499 -203 q 510 -172 521 -183 l 510 -172 q 411 -72 461 -118 q 334 29 361 -26 l 334 29 q 298 29 322 53 l 298 29 q 104 -115 209 -67 l 104 -115 q 99 -148 70 -133 l 99 -148 q 162 -280 163 -170 l 162 -280 l 160 -948 q 130 -1169 159 -1083 q 55 -1315 100 -1255 z"},"i":{"ha":559,"x_min":40,"x_max":503,"o":"m 165 -235 l 165 -235 l 158 -783 q 152 -814 158 -802 l 152 -814 q 111 -833 128 -853 l 111 -833 l 71 -792 q 41 -788 55 -774 q 45 -827 26 -802 l 45 -827 q 124 -937 89 -882 q 196 -1046 159 -992 l 196 -1046 q 233 -1045 212 -1065 l 233 -1045 q 315 -955 275 -994 q 429 -874 355 -917 l 429 -874 q 448 -855 450 -866 q 434 -843 445 -844 l 434 -843 q 388 -808 408 -833 q 368 -727 368 -784 l 368 -727 l 368 -304 q 406 -179 368 -202 l 406 -179 q 478 -201 450 -153 l 478 -201 q 503 -209 488 -220 q 502 -175 517 -199 l 502 -175 q 446 -80 472 -128 q 393 14 420 -33 l 393 14 q 346 26 374 42 l 346 26 q 211 -79 256 -17 q 165 -235 165 -141 z m 310 -1422 l 310 -1422 q 411 -1315 421 -1422 l 411 -1315 q 344 -1206 405 -1261 q 246 -1153 282 -1152 l 246 -1153 q 191 -1210 210 -1153 q 176 -1315 172 -1267 l 176 -1315 q 221 -1391 179 -1361 q 310 -1422 262 -1422 z"},"j":{"ha":497,"x_min":-106,"x_max":460,"o":"m 137 68 l 134 -782 q 126 -841 133 -828 l 126 -841 q 87 -862 104 -882 l 87 -862 l 47 -821 q 16 -819 31 -803 q 22 -856 1 -835 l 22 -856 q 101 -966 66 -911 q 172 -1075 135 -1021 l 172 -1075 q 209 -1074 190 -1095 l 209 -1074 q 291 -981 250 -1021 q 405 -903 331 -942 l 405 -903 q 424 -884 426 -895 q 410 -872 421 -873 l 410 -872 q 363 -839 382 -866 q 344 -756 344 -813 l 344 -756 l 343 -88 q 372 119 341 36 q 459 258 403 202 l 459 258 q 460 290 476 279 q 428 280 444 300 l 428 280 q 381 220 405 252 q 339 154 356 188 l 339 154 q 325 144 334 144 q 310 152 315 144 l 310 152 q 146 314 251 252 q -81 371 41 375 l -81 371 q -106 352 -106 370 q -81 333 -106 333 l -81 333 q 78 276 18 333 q 137 68 137 219 l 137 68 z m 286 -1451 l 286 -1451 q 387 -1344 399 -1451 l 387 -1344 q 320 -1235 381 -1290 q 222 -1182 258 -1181 l 222 -1182 q 168 -1239 186 -1182 q 152 -1344 149 -1296 l 152 -1344 q 197 -1420 155 -1390 q 286 -1451 238 -1451 z"},"k":{"ha":665,"x_min":41,"x_max":619,"o":"m 41 -851 l 41 -851 q 62 -869 43 -865 l 62 -869 q 148 -920 123 -884 q 169 -1048 172 -957 l 169 -1048 q 130 -1205 158 -1144 q 57 -1311 101 -1266 l 57 -1311 q 54 -1340 40 -1328 q 87 -1333 68 -1352 l 87 -1333 q 135 -1273 110 -1305 q 176 -1207 159 -1241 l 176 -1207 q 191 -1197 181 -1197 q 205 -1205 200 -1197 l 205 -1205 q 370 -1366 265 -1305 q 596 -1424 474 -1428 l 596 -1424 q 619 -1404 617 -1423 q 596 -1386 621 -1386 l 596 -1386 q 438 -1329 497 -1386 q 378 -1110 378 -1272 l 378 -1110 q 391 -1093 378 -1097 q 410 -1103 403 -1090 l 410 -1103 q 595 -1271 471 -1236 l 595 -1271 q 616 -1255 616 -1272 l 616 -1255 l 616 -1078 q 598 -1062 617 -1057 l 598 -1062 q 409 -999 489 -1076 l 409 -999 q 396 -956 394 -978 q 422 -934 398 -934 l 422 -934 l 594 -934 q 610 -918 610 -934 l 610 -918 l 610 -854 q 594 -837 610 -837 l 594 -837 l 392 -837 q 378 -819 378 -837 l 378 -819 l 377 -255 q 392 -214 377 -223 l 392 -214 l 464 -173 q 533 -221 487 -162 l 533 -221 q 557 -223 543 -233 q 559 -201 571 -213 l 559 -201 q 398 29 454 -84 l 398 29 q 362 29 386 50 l 362 29 q 264 -72 311 -38 q 115 -126 216 -107 l 115 -126 q 99 -140 99 -128 q 109 -158 98 -153 l 109 -158 q 155 -191 134 -167 q 175 -273 175 -216 l 175 -273 l 174 -817 q 154 -837 174 -837 l 154 -837 l 63 -837 q 41 -851 40 -837 z"},"l":{"ha":559,"x_min":51,"x_max":616,"o":"m 52 -1314 l 52 -1314 q 52 -1341 39 -1328 q 83 -1336 64 -1354 l 83 -1336 q 131 -1276 106 -1308 q 172 -1210 155 -1244 l 172 -1210 q 187 -1200 177 -1200 q 201 -1208 196 -1200 l 201 -1208 q 365 -1369 260 -1308 q 592 -1427 470 -1431 l 592 -1427 q 616 -1407 615 -1426 q 592 -1389 617 -1389 l 592 -1389 q 434 -1332 493 -1389 q 374 -1124 374 -1275 l 374 -1124 l 373 -258 q 388 -217 373 -226 l 388 -217 l 460 -176 q 529 -224 485 -167 l 529 -224 q 556 -230 540 -239 q 555 -204 572 -222 l 555 -204 q 394 26 450 -87 l 394 26 q 358 26 382 47 l 358 26 q 257 -73 309 -37 q 111 -129 205 -110 l 111 -129 q 95 -143 95 -131 q 105 -161 94 -156 l 105 -161 q 151 -194 130 -170 q 171 -276 171 -219 l 171 -276 l 170 -948 q 139 -1175 170 -1092 q 52 -1314 108 -1258 z"},"m":{"ha":1453,"x_min":66,"x_max":1387,"o":"m 407 -794 l 405 -786 l 404 -362 q 464 -177 403 -199 l 464 -177 q 471 -163 471 -171 q 464 -150 471 -155 l 464 -150 q 318 29 376 -85 l 318 29 q 303 38 312 38 q 288 29 293 38 l 288 29 q 136 -149 230 -84 l 136 -149 q 130 -163 130 -155 q 137 -177 130 -171 l 137 -177 q 202 -362 204 -199 l 202 -362 l 202 -715 q 164 -840 202 -817 l 164 -840 q 92 -819 120 -869 l 92 -819 q 67 -807 81 -798 q 68 -844 52 -817 l 68 -844 q 124 -938 97 -890 q 178 -1034 150 -986 l 178 -1034 q 223 -1046 194 -1063 l 223 -1046 l 224 -1045 q 398 -869 368 -974 l 398 -869 q 409 -858 401 -859 l 409 -858 q 425 -860 417 -855 l 425 -860 q 529 -950 474 -902 q 604 -1034 583 -999 l 604 -1034 q 648 -1046 620 -1062 l 648 -1046 q 823 -873 792 -975 l 823 -873 q 835 -859 827 -859 q 849 -865 843 -859 l 849 -865 q 956 -956 903 -909 q 1029 -1046 1008 -1004 l 1029 -1046 q 1065 -1045 1040 -1072 l 1065 -1045 q 1168 -945 1125 -982 q 1313 -890 1211 -908 l 1313 -890 q 1329 -877 1328 -887 l 1329 -877 q 1318 -859 1329 -860 l 1318 -859 q 1272 -824 1292 -849 q 1252 -743 1252 -800 l 1252 -743 l 1252 -308 q 1290 -183 1252 -206 l 1290 -183 q 1362 -205 1334 -157 l 1362 -205 q 1387 -213 1372 -224 q 1387 -179 1401 -203 l 1387 -179 q 1330 -84 1357 -132 q 1276 10 1303 -37 l 1276 10 q 1231 23 1258 38 l 1231 23 q 1095 -85 1140 -21 q 1049 -238 1049 -149 l 1049 -238 l 1050 -762 q 1034 -803 1050 -792 l 1034 -803 l 950 -873 q 926 -874 938 -881 l 926 -874 q 846 -811 861 -824 q 831 -784 831 -799 l 831 -784 l 830 -362 q 891 -177 830 -198 l 891 -177 q 898 -163 898 -170 q 891 -150 898 -157 l 891 -150 q 744 29 803 -87 l 744 29 q 728 38 738 38 q 715 29 718 38 l 715 29 q 563 -149 658 -82 l 563 -149 q 556 -162 556 -154 q 563 -177 556 -170 l 563 -177 q 629 -362 634 -199 l 629 -362 l 628 -715 q 590 -840 628 -789 l 590 -840 q 495 -864 543 -902 l 495 -864 l 411 -800 l 407 -794 z"},"n":{"ha":1032,"x_min":62,"x_max":971,"o":"m 399 -759 l 399 -361 q 459 -175 398 -200 l 459 -175 q 466 -161 466 -170 q 459 -149 466 -153 l 459 -149 q 313 32 369 -81 l 313 32 q 298 40 307 40 q 283 32 289 40 l 283 32 q 131 -148 227 -81 l 131 -148 q 125 -161 125 -152 q 132 -175 125 -170 l 132 -175 q 197 -361 197 -200 l 197 -361 l 197 -693 q 159 -818 197 -795 l 159 -818 q 87 -797 115 -847 l 87 -797 q 62 -787 76 -776 q 63 -822 48 -798 l 63 -822 q 119 -916 92 -868 q 173 -1012 145 -964 l 173 -1012 q 218 -1024 189 -1041 l 218 -1024 l 219 -1023 q 395 -842 366 -949 l 395 -842 q 405 -829 397 -831 q 421 -833 413 -827 l 421 -833 q 534 -930 476 -879 q 613 -1024 592 -981 l 613 -1024 q 649 -1023 624 -1050 l 649 -1023 q 752 -923 709 -960 q 896 -868 794 -886 l 896 -868 q 915 -852 914 -864 q 902 -837 915 -841 l 902 -837 q 856 -802 876 -827 q 836 -721 836 -778 l 836 -721 l 836 -298 q 874 -173 836 -196 l 874 -173 q 945 -195 918 -146 l 945 -195 q 971 -203 956 -214 q 970 -169 985 -193 l 970 -169 q 914 -74 940 -122 q 860 20 887 -27 l 860 20 q 815 33 842 48 l 815 33 q 633 -228 633 -55 l 633 -228 l 634 -740 q 619 -779 634 -770 l 619 -779 l 618 -779 l 618 -781 l 533 -851 q 510 -852 522 -859 l 510 -852 l 406 -771 q 399 -759 399 -766 l 399 -759 z"},"o":{"ha":847,"x_min":-2,"x_max":795,"o":"m 387 18 l 387 18 q 350 18 372 43 l 350 18 q 16 -188 240 -119 l 16 -188 q -1 -204 -2 -193 q 10 -220 -1 -215 l 10 -220 q 74 -353 74 -242 l 74 -353 l 71 -863 q 69 -880 71 -874 q 71 -892 67 -887 q 84 -899 74 -898 l 84 -899 q 557 -1044 350 -921 l 557 -1044 q 574 -1047 566 -1049 q 582 -1033 581 -1045 l 582 -1033 q 688 -821 599 -925 l 688 -821 q 770 -657 737 -761 q 795 -484 802 -553 l 795 -484 q 742 -338 785 -403 q 644 -220 699 -274 l 644 -220 q 504 -112 579 -156 q 387 18 429 -68 z m 278 -876 l 278 -876 l 282 -300 q 294 -279 282 -285 l 294 -279 l 471 -169 q 519 -179 497 -152 l 519 -179 q 605 -424 614 -281 l 605 -424 q 571 -583 603 -513 q 490 -707 538 -653 l 490 -707 q 371 -903 412 -786 l 371 -903 q 362 -911 369 -908 q 349 -912 355 -915 l 349 -912 q 289 -893 319 -901 l 289 -893 q 278 -876 278 -889 z"},"p":{"ha":923,"x_min":7,"x_max":879,"o":"m 174 -1184 l 174 -1184 q 135 -1094 130 -1138 q 207 -1031 140 -1051 l 207 -1031 q 321 -963 293 -1005 q 355 -867 349 -922 l 355 -867 q 364 -854 356 -857 q 379 -854 371 -851 l 379 -854 q 640 -1031 506 -928 l 640 -1031 q 656 -1033 648 -1037 q 666 -1021 664 -1029 l 666 -1021 q 707 -929 676 -967 q 770 -854 737 -891 l 770 -854 q 879 -543 893 -715 l 879 -543 q 732 -220 865 -332 l 732 -220 q 506 13 585 -96 l 506 13 q 483 17 496 26 l 483 17 q 433 -12 458 2 q 383 -41 408 -26 l 383 -41 q 368 -41 375 -45 q 360 -28 360 -38 l 360 -28 q 330 184 348 80 q 290 393 311 288 l 290 393 q 273 407 286 407 q 257 393 260 406 l 257 393 q 218 135 236 272 q 189 -130 199 -3 l 189 -130 q 178 -144 187 -141 l 178 -144 q 35 -135 77 -181 l 35 -135 q 17 -129 26 -126 q 7 -147 7 -133 l 7 -147 q 163 -320 8 -310 l 163 -320 q 178 -336 178 -320 l 178 -336 l 178 -367 q 174 -581 178 -516 q 166 -739 169 -646 l 166 -739 q 143 -808 164 -784 q 101 -850 122 -832 l 101 -850 q 26 -1015 10 -925 q 144 -1200 41 -1106 l 144 -1200 q 175 -1208 162 -1219 q 174 -1184 188 -1198 z m 372 -278 l 372 -278 q 381 -263 372 -266 l 381 -263 q 481 -208 432 -237 q 579 -151 529 -179 l 579 -151 q 602 -157 594 -144 l 602 -157 q 658 -273 632 -204 q 686 -445 684 -342 l 686 -445 q 645 -636 688 -552 q 550 -798 601 -721 l 550 -798 q 367 -809 497 -872 l 367 -809 q 357 -794 357 -804 l 357 -794 q 358 -758 358 -782 l 358 -758 l 371 -362 q 372 -278 372 -333 z"},"q":{"ha":881,"x_min":38,"x_max":824,"o":"m 528 -157 l 528 -157 q 413 -69 477 -118 q 294 21 348 -21 l 294 21 q 266 33 276 35 q 257 15 255 31 l 257 15 q 195 -65 257 -6 l 195 -65 q 38 -463 32 -218 l 38 -463 q 233 -818 44 -673 l 233 -818 q 342 -911 291 -862 q 431 -1030 392 -960 l 431 -1030 q 475 -1032 447 -1061 l 475 -1032 q 635 -890 546 -951 q 802 -814 723 -829 l 802 -814 l 805 -815 q 824 -809 816 -818 l 824 -809 q 823 -789 834 -793 l 823 -789 q 748 -707 760 -765 q 738 -590 736 -650 l 738 -590 l 747 -183 q 728 128 751 34 q 665 402 704 222 l 665 402 q 649 421 662 421 q 634 402 636 420 l 634 402 q 581 110 604 232 q 555 -144 558 -12 l 555 -144 q 545 -159 553 -155 q 528 -157 537 -164 z m 388 -832 l 388 -832 l 385 -835 q 321 -844 351 -888 l 321 -844 q 238 -495 215 -686 l 238 -495 q 430 -158 270 -222 l 430 -158 q 472 -155 451 -150 q 551 -229 492 -160 l 551 -229 q 554 -239 554 -233 l 554 -239 q 550 -506 553 -375 q 543 -712 546 -638 l 543 -712 q 536 -724 543 -722 l 536 -724 q 388 -832 466 -760 z"},"r":{"ha":743,"x_min":55,"x_max":701,"o":"m 392 -750 l 392 -750 l 391 -265 q 407 -224 391 -233 l 407 -224 l 479 -182 q 549 -231 502 -168 l 549 -231 q 574 -236 559 -244 q 574 -211 589 -229 l 574 -211 q 413 19 469 -94 l 413 19 q 376 19 396 42 l 376 19 q 272 -80 320 -46 q 129 -136 223 -114 l 129 -136 q 111 -152 111 -141 q 124 -168 111 -163 l 124 -168 q 190 -283 191 -179 l 190 -283 l 190 -706 q 152 -831 190 -808 l 152 -831 q 80 -810 108 -860 l 80 -810 q 55 -800 69 -789 q 56 -835 41 -811 l 56 -835 q 112 -929 85 -881 q 166 -1025 138 -977 l 166 -1025 q 211 -1036 183 -1055 l 211 -1036 q 387 -856 358 -965 l 387 -856 q 399 -843 390 -846 q 415 -850 408 -841 l 415 -850 l 569 -1027 q 583 -1032 575 -1033 q 596 -1024 591 -1032 l 596 -1024 l 701 -823 q 699 -806 705 -814 l 699 -806 l 579 -662 q 564 -656 572 -655 q 552 -665 555 -657 l 552 -665 l 471 -815 q 459 -822 467 -821 q 443 -817 450 -824 l 443 -817 l 396 -760 q 392 -750 392 -756 z"},"s":{"ha":855,"x_min":52,"x_max":803,"o":"m 388 -1239 l 388 -1239 q 645 -1222 528 -1276 l 645 -1222 q 768 -1117 724 -1184 q 803 -967 812 -1050 q 749 -844 794 -884 q 674 -782 703 -804 q 619 -736 645 -760 l 619 -736 q 611 -650 568 -688 l 611 -650 q 767 -453 746 -533 q 738 -312 787 -373 l 738 -312 q 594 -152 670 -228 q 442 0 517 -77 l 442 0 q 397 -4 405 36 l 397 -4 q 280 -100 384 -59 q 59 -180 175 -142 l 59 -180 q 56 -210 38 -188 l 56 -210 q 112 -266 83 -238 q 170 -321 141 -294 l 170 -321 q 201 -395 215 -363 q 147 -469 186 -428 l 147 -469 q 53 -660 49 -571 q 117 -817 56 -749 l 117 -817 q 246 -932 174 -880 q 381 -1050 317 -985 l 381 -1050 q 402 -1045 389 -1057 l 402 -1045 q 626 -925 536 -926 q 742 -978 715 -924 l 742 -978 q 737 -1092 769 -1033 q 633 -1191 705 -1152 l 633 -1191 q 394 -1201 524 -1245 l 394 -1201 q 363 -1212 368 -1191 q 388 -1239 358 -1233 z m 369 -485 l 228 -341 q 234 -315 218 -324 l 234 -315 q 376 -250 305 -282 q 519 -188 447 -218 l 519 -188 q 619 -245 569 -166 l 619 -245 q 455 -505 681 -344 l 455 -505 q 369 -485 420 -526 l 369 -485 z m 366 -549 l 366 -549 q 388 -550 378 -540 l 388 -550 l 574 -732 q 580 -750 583 -742 q 564 -760 576 -759 l 564 -760 q 438 -804 507 -766 l 438 -804 q 293 -889 327 -867 q 206 -849 259 -911 l 206 -849 q 206 -698 139 -770 q 366 -549 272 -626 z"},"t":{"ha":633,"x_min":29,"x_max":591,"o":"m 383 -815 l 383 -815 l 382 -255 q 397 -214 382 -224 l 397 -214 l 469 -173 q 539 -221 490 -155 l 539 -221 q 564 -225 548 -234 q 565 -201 579 -216 l 565 -201 q 404 29 458 -84 l 404 29 q 367 29 387 50 l 367 29 q 263 -70 311 -37 q 120 -126 215 -103 l 120 -126 q 103 -141 104 -129 q 115 -158 102 -153 l 115 -158 q 181 -273 182 -174 l 181 -273 l 180 -814 q 165 -832 181 -832 l 165 -832 l 47 -832 q 29 -843 33 -832 l 29 -843 q 38 -862 25 -854 l 38 -862 q 283 -1067 158 -947 q 509 -1295 407 -1187 l 509 -1295 q 535 -1300 522 -1309 q 535 -1276 547 -1292 l 535 -1276 q 443 -1128 489 -1219 q 386 -962 396 -1037 l 386 -962 q 387 -947 384 -952 l 387 -947 q 401 -941 393 -941 l 401 -941 l 574 -941 q 586 -936 581 -941 l 586 -936 q 591 -923 591 -929 l 591 -923 l 587 -848 q 570 -832 585 -832 l 570 -832 l 397 -832 q 383 -815 383 -832 z"},"u":{"ha":1032,"x_min":61,"x_max":970,"o":"m 632 -247 l 632 -247 l 633 -664 q 572 -850 633 -832 l 572 -850 q 565 -862 565 -855 q 572 -876 565 -870 l 572 -876 q 719 -1056 661 -940 l 719 -1056 q 733 -1065 723 -1065 q 748 -1056 743 -1065 l 748 -1056 q 900 -877 801 -941 l 900 -877 q 907 -862 907 -871 q 899 -850 907 -854 l 899 -850 q 835 -664 833 -831 l 835 -664 l 835 -312 q 873 -186 835 -209 l 873 -186 q 944 -208 915 -158 l 944 -208 q 970 -216 955 -227 q 969 -182 984 -206 l 969 -182 q 913 -88 939 -136 q 859 6 886 -40 l 859 6 q 812 17 842 35 l 812 17 q 637 -163 663 -54 l 637 -163 q 625 -174 635 -171 q 611 -171 615 -177 l 611 -171 q 497 -74 554 -125 q 419 18 440 -24 l 419 18 q 382 17 402 42 l 382 17 q 275 -81 327 -47 q 135 -136 222 -115 l 135 -136 q 117 -153 116 -143 q 130 -168 118 -163 l 130 -168 q 176 -201 155 -177 q 196 -283 196 -226 l 196 -283 l 196 -706 q 158 -831 196 -808 l 158 -831 q 86 -809 113 -858 l 86 -809 q 61 -801 75 -790 q 62 -836 47 -812 l 62 -836 q 118 -929 91 -881 q 172 -1025 144 -977 l 172 -1025 q 217 -1036 189 -1055 l 217 -1036 l 218 -1036 q 399 -776 399 -941 l 399 -776 l 397 -264 q 412 -225 397 -235 l 412 -225 l 498 -154 q 521 -152 508 -145 l 521 -152 q 626 -234 602 -216 l 626 -234 q 632 -247 632 -238 z"},"v":{"ha":925,"x_min":-3,"x_max":868,"o":"m 124 -104 l 124 -104 q 103 -110 105 -97 q 118 -140 101 -124 l 118 -140 q 234 -428 233 -293 q 138 -661 234 -563 l 138 -661 q 0 -920 -23 -826 q 155 -1147 23 -1015 l 155 -1147 q 179 -1152 168 -1161 q 177 -1129 189 -1143 l 177 -1129 q 167 -984 107 -1045 l 167 -984 q 281 -852 240 -910 l 281 -852 q 303 -847 289 -840 l 303 -847 q 471 -949 391 -895 q 628 -1065 550 -1004 l 628 -1065 q 645 -1069 636 -1072 q 655 -1055 654 -1066 l 655 -1055 q 695 -961 664 -1000 q 759 -885 726 -922 l 759 -885 q 868 -565 880 -741 l 868 -565 q 720 -234 852 -346 l 720 -234 q 585 -106 654 -177 q 471 27 516 -36 l 471 27 q 449 31 460 39 l 449 31 q 299 -68 393 -5 q 124 -104 205 -131 z m 305 -269 l 305 -269 q 422 -211 359 -249 l 422 -211 q 545 -138 491 -170 l 545 -138 q 567 -144 558 -130 l 567 -144 q 634 -276 596 -193 q 675 -465 672 -359 l 675 -465 q 633 -661 676 -574 q 538 -827 590 -748 l 538 -827 q 322 -820 480 -911 l 322 -820 q 316 -798 308 -813 l 316 -798 q 378 -521 401 -649 l 378 -521 q 296 -294 357 -399 l 296 -294 q 295 -280 293 -289 q 305 -269 297 -271 z"},"w":{"ha":1411,"x_min":69,"x_max":1357,"o":"m 871 -849 l 871 -849 q 1006 -927 932 -882 q 1127 -1018 1079 -972 l 1127 -1018 q 1169 -1005 1162 -1055 l 1169 -1005 q 1201 -939 1173 -968 q 1250 -882 1228 -910 l 1250 -882 q 1357 -563 1368 -729 l 1357 -563 q 1243 -284 1346 -389 l 1243 -284 q 1148 -197 1200 -239 q 1049 -98 1096 -156 q 968 27 1002 -40 l 968 27 q 931 27 955 54 l 931 27 q 596 -179 823 -109 l 596 -179 q 581 -196 581 -186 q 591 -211 581 -207 l 591 -211 q 654 -344 655 -233 l 654 -344 q 652 -542 654 -443 q 652 -741 649 -642 l 652 -741 l 652 -742 q 620 -810 650 -773 l 620 -810 q 525 -834 573 -872 l 525 -834 l 417 -752 q 411 -738 411 -746 l 411 -738 q 412 -545 411 -642 q 413 -353 413 -449 l 413 -353 q 475 -167 413 -195 l 475 -167 q 481 -153 481 -162 q 475 -141 481 -145 l 475 -141 q 327 40 377 -70 l 327 40 q 312 49 320 50 q 298 40 304 48 l 298 40 q 147 -140 243 -71 l 147 -140 q 139 -153 139 -144 q 147 -167 139 -162 l 147 -167 q 212 -353 212 -197 l 212 -353 l 212 -539 q 209 -725 212 -632 l 209 -725 q 187 -794 208 -770 q 144 -836 165 -818 l 144 -836 q 70 -1001 54 -911 q 187 -1186 85 -1092 l 187 -1186 q 219 -1194 206 -1204 q 218 -1170 232 -1184 l 218 -1170 q 179 -1080 174 -1124 q 251 -1017 183 -1037 l 251 -1017 q 374 -939 344 -988 q 409 -826 404 -890 l 409 -826 q 417 -810 409 -815 q 436 -814 425 -806 l 436 -814 q 549 -911 487 -857 q 634 -1004 611 -965 l 634 -1004 q 679 -1016 650 -1033 l 679 -1016 q 681 -1015 679 -1015 l 681 -1015 q 848 -858 813 -949 l 848 -858 q 857 -847 851 -849 q 871 -849 863 -845 z m 861 -639 l 861 -639 q 863 -291 862 -407 l 863 -291 q 875 -270 863 -276 l 875 -270 l 1029 -178 q 1070 -182 1054 -165 l 1070 -182 l 1088 -201 q 1171 -495 1171 -322 l 1171 -495 q 1130 -675 1171 -594 q 1022 -832 1089 -757 l 1022 -832 q 909 -836 986 -871 l 909 -836 q 870 -816 894 -829 l 870 -816 q 862 -800 860 -812 l 862 -800 q 861 -639 862 -772 z"},"x":{"ha":807,"x_min":71,"x_max":762,"o":"m 453 -772 l 453 -772 l 452 -287 q 468 -246 452 -255 l 468 -246 l 539 -205 q 609 -253 561 -194 l 609 -253 q 635 -255 623 -266 q 635 -233 647 -245 l 635 -233 q 526 -107 584 -183 q 441 24 468 -31 l 441 24 q 427 34 437 32 q 405 24 416 35 l 405 24 q 340 -33 384 2 q 252 -68 295 -69 l 252 -68 q 150 -27 192 -69 q 111 56 108 14 l 111 56 q 218 256 112 184 q 439 291 323 327 l 439 291 q 504 243 469 281 q 589 205 538 205 q 667 253 639 204 l 667 253 q 664 321 683 289 q 603 363 645 353 l 603 363 q 203 313 363 424 q 71 9 43 201 l 71 9 q 116 -110 82 -64 q 212 -192 149 -157 l 212 -192 q 252 -313 251 -219 l 252 -313 l 251 -728 q 213 -853 251 -830 l 213 -853 q 142 -832 169 -882 l 142 -832 q 116 -822 130 -811 q 117 -857 101 -833 l 117 -857 q 173 -951 146 -903 q 226 -1047 199 -999 l 226 -1047 q 273 -1058 244 -1077 l 273 -1058 q 448 -878 419 -986 l 448 -878 q 460 -865 451 -868 q 476 -872 469 -863 l 476 -872 l 630 -1049 q 644 -1054 636 -1055 q 657 -1046 652 -1054 l 657 -1046 l 762 -845 q 761 -828 767 -836 l 761 -828 l 640 -684 q 613 -687 626 -667 l 613 -687 l 531 -837 q 519 -844 528 -843 q 505 -839 510 -846 l 505 -839 l 457 -782 q 453 -772 453 -778 z"},"y":{"ha":959,"x_min":61,"x_max":914,"o":"m 416 -878 l 416 -878 q 538 -949 476 -911 q 651 -1038 599 -988 l 651 -1038 q 693 -1025 686 -1075 l 693 -1025 q 724 -959 696 -988 q 775 -902 752 -930 l 775 -902 q 914 -530 909 -732 l 914 -530 q 707 -10 920 -236 q 317 334 493 215 l 317 334 q 283 338 293 350 q 288 313 272 326 l 288 313 q 573 40 429 188 q 703 -429 717 -108 l 703 -429 q 664 -666 697 -555 q 546 -852 631 -778 l 546 -852 q 407 -839 498 -891 l 407 -839 q 400 -824 400 -834 l 400 -824 q 403 -498 401 -631 q 405 -232 404 -366 l 405 -232 q 471 -165 408 -140 l 471 -165 l 516 -200 q 546 -202 533 -213 q 544 -177 559 -191 l 544 -177 q 446 -77 493 -126 q 369 24 398 -29 l 369 24 q 332 24 358 47 l 332 24 q 260 -53 284 -31 q 139 -120 235 -75 l 139 -120 q 120 -138 119 -127 q 133 -153 120 -149 l 133 -153 q 196 -285 197 -175 l 196 -285 q 199 -515 196 -399 q 198 -743 201 -632 l 198 -743 q 175 -813 196 -789 q 133 -855 153 -837 l 133 -855 q 62 -1021 43 -930 q 182 -1206 80 -1112 l 182 -1206 q 214 -1215 200 -1226 q 214 -1190 227 -1204 l 214 -1190 q 174 -1100 169 -1144 q 246 -1037 179 -1057 l 246 -1037 q 354 -976 324 -1013 q 392 -891 384 -939 l 392 -891 q 401 -878 393 -883 q 416 -878 408 -874 z"},"z":{"ha":682,"x_min":56,"x_max":632,"o":"m 132 -827 l 132 -827 q 107 -829 112 -816 q 116 -857 101 -843 l 116 -857 q 213 -945 164 -901 q 306 -1039 261 -990 l 306 -1039 q 340 -1060 325 -1063 q 361 -1041 355 -1058 l 361 -1041 q 381 -1015 365 -1017 q 418 -1000 396 -1014 l 418 -1000 q 515 -767 583 -873 q 307 -568 446 -661 l 307 -568 q 299 -553 298 -562 q 311 -539 300 -544 l 311 -539 q 410 -496 366 -521 l 410 -496 q 427 -498 420 -492 l 427 -498 q 596 -597 509 -555 l 596 -597 q 629 -594 622 -608 q 618 -570 636 -580 l 618 -570 q 469 -486 524 -525 l 469 -486 q 468 -460 449 -475 l 468 -460 q 587 -324 544 -403 q 632 -80 629 -245 l 632 -80 q 525 235 635 93 q 300 376 414 376 l 300 376 q 134 290 212 376 q 56 74 56 204 l 56 74 q 249 -353 56 -166 l 249 -353 q 246 -379 265 -371 l 246 -379 q 92 -428 180 -415 l 92 -428 q 86 -462 47 -438 l 86 -462 q 280 -610 196 -526 q 341 -767 363 -694 q 263 -855 319 -840 q 132 -827 207 -870 z m 300 340 l 300 340 q 416 260 371 340 q 444 -17 461 180 l 444 -17 q 307 -336 424 -233 l 307 -336 q 284 -335 295 -348 l 284 -335 q 143 75 144 -173 l 143 75 q 178 260 143 180 q 300 340 213 340 z"},"{":{"ha":679,"x_min":40,"x_max":589,"o":"m 589 3 l 589 32 q 578 41 589 37 q 551 43 567 44 l 551 43 q 302 -74 395 20 l 302 -74 q 197 -301 197 -179 l 197 -301 q 217 -441 197 -332 l 217 -441 q 233 -527 228 -495 q 237 -574 237 -560 l 237 -574 q 190 -686 237 -645 l 190 -686 q 69 -745 136 -737 l 69 -745 q 48 -748 56 -746 q 40 -756 40 -751 l 40 -756 l 40 -792 q 48 -799 40 -797 q 69 -804 56 -802 l 69 -804 q 191 -861 136 -812 l 191 -861 q 226 -909 214 -881 q 237 -973 237 -938 l 237 -973 q 233 -1020 237 -988 q 217 -1107 228 -1053 l 217 -1107 q 197 -1247 197 -1216 l 197 -1247 q 226 -1373 197 -1314 q 309 -1481 255 -1433 l 309 -1481 q 421 -1553 360 -1525 q 551 -1590 482 -1581 l 551 -1590 q 578 -1587 567 -1591 q 589 -1579 589 -1584 l 589 -1579 l 589 -1549 q 582 -1542 589 -1546 q 563 -1538 574 -1539 l 563 -1538 q 393 -1350 393 -1496 l 393 -1350 q 398 -1300 393 -1335 q 412 -1214 403 -1265 l 412 -1214 q 426 -1126 421 -1163 q 431 -1074 431 -1089 l 431 -1074 q 372 -898 431 -971 q 181 -776 313 -825 l 181 -776 q 280 -723 235 -753 q 355 -658 325 -693 l 355 -658 l 355 -659 q 431 -474 431 -571 l 431 -474 q 426 -422 431 -459 q 412 -334 421 -385 l 412 -334 q 398 -248 403 -283 q 393 -198 393 -213 l 393 -198 q 563 -8 393 -52 l 563 -8 q 582 -3 574 -7 q 589 3 589 0 l 589 3 z"},"|":{"ha":324,"x_min":97,"x_max":221,"o":"m 221 -1587 l 221 87 q 213 94 221 92 q 191 96 204 96 l 191 96 l 126 96 q 106 94 114 96 q 97 87 97 92 l 97 87 l 97 -1587 q 106 -1594 97 -1592 q 126 -1597 114 -1597 l 126 -1597 l 191 -1597 q 213 -1594 204 -1597 q 221 -1587 221 -1592 l 221 -1587 z"},"}":{"ha":679,"x_min":40,"x_max":589,"o":"m 40 -1550 l 40 -1579 q 51 -1587 40 -1584 q 78 -1590 62 -1591 l 78 -1590 q 327 -1473 234 -1567 l 327 -1473 q 432 -1246 432 -1368 l 432 -1246 q 412 -1106 432 -1215 l 412 -1106 q 397 -1019 401 -1052 q 392 -973 392 -987 l 392 -973 q 439 -861 392 -902 l 439 -861 q 560 -802 493 -810 l 560 -802 q 581 -798 573 -801 q 589 -791 589 -796 l 589 -791 l 589 -755 q 581 -747 589 -750 q 560 -743 573 -745 l 560 -743 q 438 -686 493 -735 l 438 -686 q 404 -637 415 -666 q 392 -574 392 -609 l 392 -574 q 397 -526 392 -559 q 412 -440 401 -494 l 412 -440 q 432 -300 432 -331 l 432 -300 q 403 -173 432 -233 q 320 -66 374 -114 l 320 -66 q 208 6 269 -22 q 78 43 147 34 l 78 43 q 51 41 62 44 q 40 32 40 37 l 40 32 l 40 2 q 48 -4 40 -1 q 66 -9 55 -8 l 66 -9 q 236 -197 236 -51 l 236 -197 q 231 -247 236 -212 q 217 -333 226 -282 l 217 -333 q 203 -421 208 -384 q 198 -473 198 -458 l 198 -473 q 257 -649 198 -576 q 448 -771 316 -722 l 448 -771 q 349 -824 394 -794 q 274 -889 304 -854 l 274 -889 l 274 -888 q 198 -1073 198 -976 l 198 -1073 q 203 -1125 198 -1088 q 217 -1213 208 -1162 l 217 -1213 q 231 -1299 226 -1264 q 236 -1349 236 -1334 l 236 -1349 q 66 -1539 236 -1495 l 66 -1539 q 48 -1543 55 -1540 q 40 -1550 40 -1547 l 40 -1550 z"},"~":{"ha":750,"x_min":47,"x_max":704,"o":"m 63 -685 l 63 -685 l 688 -685 q 704 -668 704 -685 l 704 -668 l 704 -554 q 688 -537 704 -537 l 688 -537 l 63 -537 q 47 -554 47 -537 l 47 -554 l 47 -668 q 63 -685 47 -685 z"},"¡":{"ha":411,"x_min":40,"x_max":364,"o":"m 347 -898 l 347 -898 q 216 -766 269 -848 l 216 -766 q 187 -766 200 -742 l 187 -766 q 56 -898 140 -855 l 56 -898 q 56 -926 28 -912 l 56 -926 q 187 -1057 144 -969 l 187 -1057 q 216 -1057 202 -1086 l 216 -1057 q 347 -926 259 -977 l 347 -926 q 347 -898 371 -914 z m 364 249 l 364 249 q 218 396 277 304 l 218 396 q 186 396 201 422 l 186 396 q 40 249 134 296 l 40 249 q 40 217 9 233 l 40 217 q 186 -550 138 26 l 186 -550 q 218 -550 203 -582 l 218 -550 q 364 217 266 17 l 364 217 q 364 249 391 231 z"},"¢":{"ha":852,"x_min":59,"x_max":792,"o":"m 497 -31 l 497 96 l 433 96 l 433 3 q 384 38 405 21 l 384 38 q 358 42 375 44 q 340 29 340 40 l 340 29 q 315 -7 338 5 q 275 -31 291 -19 l 275 -31 q 113 -221 160 -109 q 59 -460 65 -334 l 59 -460 q 213 -894 47 -745 l 213 -894 q 349 -980 272 -947 l 349 -980 q 433 -1013 390 -998 l 433 -1013 l 433 -1101 l 497 -1101 l 497 -1032 q 507 -1035 502 -1033 l 507 -1035 q 546 -1013 529 -1039 l 546 -1013 l 748 -881 q 792 -850 847 -870 l 792 -850 q 657 -798 718 -839 l 657 -798 q 580 -793 629 -780 l 580 -793 l 497 -846 l 497 -172 q 738 -171 634 -131 l 738 -171 q 761 -169 753 -178 l 761 -169 q 756 -150 769 -156 l 756 -150 q 558 -59 675 -109 l 558 -59 q 497 -31 525 -45 l 497 -31 z m 333 -929 l 333 -929 q 249 -743 267 -890 q 257 -473 231 -596 l 257 -473 q 433 -197 299 -264 l 433 -197 l 433 -886 l 373 -925 q 333 -929 359 -944 z"},"£":{"ha":1171,"x_min":40,"x_max":1115,"o":"m 564 -617 l 564 -617 l 565 -617 l 692 -617 q 741 -577 741 -617 q 692 -538 741 -538 l 692 -538 l 501 -538 q 472 -535 487 -538 q 446 -519 456 -532 l 446 -519 q 359 -442 410 -482 l 359 -442 q 351 -425 349 -434 q 364 -413 352 -416 l 364 -413 q 628 -261 506 -363 l 628 -261 q 876 -165 745 -163 q 1075 -268 1006 -167 l 1075 -268 q 1111 -280 1091 -291 q 1115 -246 1130 -270 l 1115 -246 q 997 -106 1066 -176 q 835 -3 927 -36 q 627 10 742 30 q 373 -123 512 -11 l 373 -123 q 224 -209 298 -183 q 72 -202 150 -235 l 72 -202 q 41 -216 47 -195 q 66 -249 34 -237 l 66 -249 q 178 -311 123 -272 q 303 -439 233 -351 l 303 -439 q 339 -512 332 -476 l 339 -512 q 339 -521 341 -517 q 332 -530 337 -526 q 320 -536 326 -534 q 306 -538 313 -538 l 306 -538 l 123 -538 q 77 -577 77 -538 q 123 -617 77 -617 l 123 -617 l 274 -617 q 297 -629 290 -615 q 291 -658 303 -644 l 291 -658 q 204 -793 249 -725 l 204 -793 q 129 -953 151 -868 q 128 -1113 106 -1038 l 128 -1113 q 309 -1359 172 -1266 q 655 -1452 445 -1452 l 655 -1452 q 1113 -1043 1117 -1451 l 1113 -1043 q 953 -765 1112 -852 q 616 -768 793 -679 l 616 -768 q 592 -801 583 -783 q 626 -810 600 -820 l 626 -810 q 821 -821 728 -768 q 923 -1025 914 -874 l 923 -1025 q 857 -1300 933 -1202 q 651 -1408 780 -1399 l 651 -1408 q 445 -1338 525 -1408 q 365 -1176 365 -1269 l 365 -1176 q 391 -1057 365 -1113 q 450 -949 417 -1001 l 450 -949 q 538 -728 510 -852 l 538 -728 q 536 -657 546 -694 l 536 -657 q 542 -629 531 -642 q 564 -617 552 -617 z"},"¤":{"ha":1365,"x_min":132,"x_max":1234,"o":"m 201 -178 l 138 -242 l 325 -429 q 214 -725 214 -565 l 214 -725 q 321 -1016 214 -879 l 321 -1016 l 132 -1205 l 196 -1269 l 384 -1081 q 683 -1192 527 -1192 l 683 -1192 q 980 -1082 840 -1192 l 980 -1082 l 1168 -1268 l 1232 -1205 l 1045 -1018 q 1151 -724 1151 -880 l 1151 -724 q 1044 -432 1151 -570 l 1044 -432 l 1234 -242 l 1171 -178 l 981 -368 q 685 -259 845 -259 l 685 -259 q 388 -365 533 -259 l 388 -365 l 201 -178 z m 678 -1094 l 678 -1094 q 422 -985 531 -1094 l 422 -985 q 316 -726 316 -877 l 316 -726 q 423 -466 316 -573 l 423 -466 q 682 -358 531 -358 l 682 -358 q 942 -466 834 -358 l 942 -466 q 1049 -724 1049 -573 l 1049 -724 q 943 -985 1049 -880 l 943 -985 q 678 -1094 833 -1094 z"},"¥":{"ha":1174,"x_min":48,"x_max":1134,"o":"m 107 -741 l 107 -827 l 339 -827 l 141 -1297 l 48 -1297 l 48 -1365 l 583 -1365 l 583 -1297 l 496 -1297 l 725 -746 l 877 -1114 q 916 -1229 916 -1208 l 916 -1229 q 881 -1293 916 -1283 l 881 -1293 q 806 -1297 865 -1297 l 806 -1297 l 806 -1365 l 1134 -1365 l 1134 -1297 q 1063 -1291 1074 -1294 l 1063 -1291 q 1009 -1235 1036 -1284 l 1009 -1235 q 957 -1133 963 -1152 l 957 -1133 l 831 -827 l 1075 -827 l 1075 -741 l 795 -741 l 756 -646 l 756 -517 l 1075 -517 l 1075 -431 l 756 -431 l 756 -68 l 877 -68 l 877 0 l 312 0 l 312 -68 l 434 -68 l 434 -431 l 107 -431 l 107 -517 l 434 -517 l 434 -602 l 375 -741 l 107 -741 z"},"¦":{"ha":1024,"x_min":457,"x_max":566,"o":"m 457 -693 l 457 -1365 l 566 -1365 l 566 -693 l 457 -693 z m 457 341 l 457 -314 l 566 -314 l 566 341 l 457 341 z"},"§":{"ha":966,"x_min":73,"x_max":908,"o":"m 804 -1339 l 804 -1339 q 836 -1213 838 -1291 q 744 -1128 834 -1135 l 744 -1128 q 664 -1141 701 -1124 q 617 -1179 626 -1158 l 617 -1179 q 609 -1250 602 -1209 q 634 -1322 616 -1291 l 634 -1322 q 490 -1421 687 -1418 l 490 -1421 q 326 -1374 379 -1421 q 282 -1259 273 -1327 l 282 -1259 q 344 -1163 288 -1206 q 491 -1080 400 -1120 q 672 -1007 581 -1041 q 811 -944 762 -973 l 811 -944 q 908 -833 895 -893 q 895 -715 920 -774 q 823 -606 869 -657 q 745 -522 777 -555 l 745 -522 q 740 -509 738 -517 l 740 -509 q 747 -497 741 -501 l 747 -497 q 870 -382 826 -447 q 898 -225 914 -318 l 898 -225 q 768 -55 878 -116 q 498 6 658 6 l 498 6 q 261 -30 336 6 q 142 -126 185 -66 l 142 -126 q 109 -250 106 -173 q 200 -336 111 -328 l 200 -336 q 281 -322 243 -339 q 329 -286 319 -305 l 329 -286 q 336 -213 344 -254 q 312 -142 328 -173 l 312 -142 q 492 -45 258 -46 l 492 -45 q 668 -87 602 -44 q 727 -200 734 -131 l 727 -200 q 651 -298 720 -252 q 490 -383 581 -344 q 309 -457 399 -423 q 170 -520 218 -491 l 170 -520 q 73 -630 85 -570 q 87 -749 61 -691 q 158 -859 112 -808 q 237 -944 204 -911 l 237 -944 q 242 -957 242 -947 l 242 -957 q 234 -968 240 -965 l 234 -968 q 124 -1080 154 -1018 q 111 -1235 94 -1142 l 111 -1235 q 226 -1408 129 -1344 q 484 -1473 323 -1473 l 484 -1473 q 684 -1435 608 -1472 q 804 -1339 760 -1398 z m 321 -920 l 321 -920 q 302 -917 309 -926 l 302 -917 q 236 -818 268 -881 q 260 -725 203 -755 l 260 -725 q 462 -632 355 -674 q 661 -544 568 -590 l 661 -544 q 680 -548 671 -539 l 680 -548 q 746 -647 713 -584 q 722 -740 778 -710 l 722 -740 q 520 -833 626 -791 q 321 -920 413 -875 z"},"¨":{"ha":943,"x_min":177,"x_max":842,"o":"m 311 -1451 l 311 -1451 q 412 -1344 422 -1451 l 412 -1344 q 345 -1235 406 -1290 q 247 -1182 283 -1181 l 247 -1182 q 192 -1239 211 -1182 q 177 -1344 173 -1296 l 177 -1344 q 222 -1420 180 -1390 q 311 -1451 263 -1451 z m 741 -1451 l 741 -1451 q 842 -1344 852 -1451 l 842 -1344 q 775 -1235 836 -1290 q 677 -1182 713 -1181 l 677 -1182 q 622 -1239 641 -1182 q 607 -1344 603 -1296 l 607 -1344 q 652 -1420 610 -1390 q 741 -1451 693 -1451 z"},"©":{"ha":1678,"x_min":85,"x_max":1567,"o":"m 826 -1331 l 826 -1331 q 601 -1287 705 -1331 q 410 -1157 497 -1244 l 410 -1157 q 280 -966 323 -1070 q 236 -741 236 -863 l 236 -741 q 280 -516 236 -620 q 410 -326 323 -413 l 410 -326 q 601 -197 496 -240 q 826 -154 705 -154 l 826 -154 q 1052 -196 949 -154 q 1242 -326 1155 -239 l 1242 -326 q 1373 -516 1329 -413 q 1416 -741 1416 -620 l 1416 -741 q 1373 -966 1416 -863 q 1242 -1157 1329 -1070 l 1242 -1157 q 1051 -1288 1154 -1245 q 826 -1331 947 -1331 z m 826 -1485 l 826 -1485 q 1110 -1430 978 -1485 q 1350 -1266 1241 -1375 l 1350 -1266 q 1513 -1026 1459 -1157 q 1567 -741 1567 -895 l 1567 -741 q 1513 -458 1567 -589 q 1350 -219 1459 -328 l 1350 -219 q 1110 -55 1241 -110 q 826 0 978 0 l 826 0 q 543 -55 674 0 q 302 -219 411 -110 l 302 -219 q 139 -458 193 -328 q 85 -741 85 -589 l 85 -741 q 139 -1026 85 -895 q 302 -1266 193 -1157 l 302 -1266 q 543 -1430 411 -1375 q 826 -1485 674 -1485 z m 610 -605 l 465 -525 q 531 -441 492 -479 q 616 -376 569 -403 q 716 -334 662 -349 q 827 -319 769 -319 l 827 -319 q 991 -352 914 -319 q 1125 -442 1067 -385 q 1215 -577 1182 -500 q 1248 -741 1248 -654 l 1248 -741 q 1215 -905 1248 -828 q 1125 -1039 1182 -982 q 991 -1130 1067 -1097 q 827 -1163 914 -1163 l 827 -1163 q 712 -1147 767 -1163 q 609 -1102 657 -1131 q 523 -1032 561 -1073 q 457 -943 484 -992 l 457 -943 l 601 -876 q 695 -973 635 -936 q 830 -1010 755 -1010 l 830 -1010 q 932 -989 884 -1010 q 1015 -933 980 -969 q 1071 -850 1050 -898 q 1091 -748 1091 -802 l 1091 -748 q 1071 -646 1091 -694 q 1015 -563 1050 -598 q 932 -507 980 -528 q 830 -487 884 -487 l 830 -487 q 703 -519 761 -487 q 610 -605 645 -551 l 610 -605 z"},"ª":{"ha":737,"x_min":42,"x_max":713,"o":"m 427 -538 l 427 -538 q 338 -469 386 -507 q 247 -401 289 -432 l 247 -401 q 225 -391 233 -390 q 218 -406 216 -393 l 218 -406 q 168 -470 218 -423 l 168 -470 q 42 -788 38 -592 l 42 -788 q 198 -1072 47 -956 l 198 -1072 q 286 -1146 245 -1107 q 357 -1242 326 -1186 l 357 -1242 q 392 -1243 370 -1267 l 392 -1243 q 635 -1081 514 -1106 l 635 -1081 q 643 -1051 674 -1074 l 643 -1051 q 602 -983 606 -1023 l 602 -983 l 602 -982 l 605 -616 q 632 -565 605 -579 q 690 -587 658 -552 l 690 -587 q 713 -593 702 -600 q 713 -569 723 -587 l 713 -569 q 657 -484 684 -526 q 612 -398 630 -443 l 612 -398 l 611 -397 q 584 -397 600 -379 l 584 -397 q 563 -410 575 -407 l 563 -410 q 448 -531 472 -430 l 448 -531 q 440 -540 446 -535 l 440 -540 q 427 -538 433 -541 z m 436 -1009 l 436 -1009 q 320 -1086 386 -1023 l 320 -1086 q 269 -1093 288 -1124 l 269 -1093 q 202 -814 184 -967 l 202 -814 q 356 -544 228 -595 l 356 -544 q 358 -543 357 -544 l 358 -543 q 437 -583 390 -533 l 437 -583 q 440 -591 440 -587 l 440 -591 q 439 -629 439 -603 l 439 -629 l 446 -996 q 436 -1009 446 -1006 z m 63 -303 l 63 -303 l 688 -303 q 704 -286 704 -303 l 704 -286 l 704 -172 q 688 -155 704 -155 l 688 -155 l 63 -155 q 47 -172 47 -155 l 47 -172 l 47 -286 q 63 -303 47 -303 z"},"«":{"ha":997,"x_min":22,"x_max":955,"o":"m 519 -956 l 519 -956 l 558 -956 q 573 -947 570 -956 l 573 -947 q 571 -930 577 -938 l 571 -930 l 283 -588 q 283 -568 272 -577 l 283 -568 l 571 -226 q 573 -209 577 -217 l 573 -209 q 558 -200 570 -200 l 558 -200 l 519 -200 q 509 -203 511 -200 l 509 -203 l 29 -565 q 22 -578 22 -570 l 22 -578 q 29 -591 22 -584 l 29 -591 l 509 -953 q 519 -956 512 -956 z m 901 -956 l 901 -956 l 940 -956 q 955 -947 952 -956 l 955 -947 q 953 -930 959 -938 l 953 -930 l 665 -588 q 665 -568 654 -577 l 665 -568 l 953 -226 q 955 -209 959 -217 l 955 -209 q 940 -200 952 -200 l 940 -200 l 901 -200 q 891 -203 893 -200 l 891 -203 l 411 -565 q 404 -578 404 -570 l 404 -578 q 411 -591 404 -584 l 411 -591 l 891 -953 q 901 -956 894 -956 z"},"¬":{"ha":1024,"x_min":68,"x_max":955,"o":"m 955 0 l 846 0 l 846 -447 l 68 -447 l 68 -546 l 955 -546 l 955 0 z"},"­":{"ha":793,"x_min":47,"x_max":752,"o":"m 63 -685 l 63 -685 l 736 -685 q 752 -668 752 -685 l 752 -668 l 752 -554 q 736 -537 752 -537 l 736 -537 l 63 -537 q 47 -554 47 -537 l 47 -554 l 47 -668 q 63 -685 47 -685 z"},"®":{"ha":1100,"x_min":98,"x_max":964,"o":"m 531 -1395 l 531 -1395 q 400 -1369 460 -1395 q 288 -1293 339 -1344 l 288 -1293 q 212 -1181 237 -1242 q 186 -1050 186 -1121 l 186 -1050 q 212 -918 186 -979 q 288 -807 237 -858 l 288 -807 q 399 -732 338 -757 q 531 -707 460 -707 l 531 -707 q 664 -732 603 -707 q 774 -807 724 -757 l 774 -807 q 851 -918 825 -858 q 876 -1050 876 -979 l 876 -1050 q 851 -1181 876 -1121 q 774 -1293 825 -1242 l 774 -1293 q 663 -1370 723 -1345 q 531 -1395 602 -1395 z m 498 -1223 l 498 -1223 l 477 -1223 l 477 -1101 l 498 -1101 q 567 -1116 543 -1101 q 590 -1163 590 -1132 l 590 -1163 q 568 -1208 590 -1193 q 498 -1223 545 -1223 z m 353 -1303 l 520 -1303 q 673 -1268 622 -1303 q 724 -1163 724 -1234 l 724 -1163 q 694 -1080 724 -1113 q 607 -1037 663 -1047 l 607 -1037 q 652 -1001 631 -1024 q 689 -944 672 -978 l 689 -944 l 754 -814 l 620 -814 l 558 -939 q 518 -1004 535 -985 q 484 -1023 501 -1023 l 484 -1023 l 477 -1023 l 477 -814 l 353 -814 l 353 -1303 z m 531 -1485 l 531 -1485 q 697 -1453 620 -1485 q 838 -1357 774 -1421 l 838 -1357 q 933 -1216 901 -1293 q 964 -1050 964 -1140 l 964 -1050 q 933 -885 964 -961 q 838 -745 901 -809 l 838 -745 q 697 -649 774 -681 q 531 -617 620 -617 l 531 -617 q 366 -649 442 -617 q 225 -745 289 -681 l 225 -745 q 130 -885 161 -809 q 98 -1050 98 -961 l 98 -1050 q 130 -1216 98 -1140 q 225 -1357 161 -1293 l 225 -1357 q 366 -1453 289 -1421 q 531 -1485 442 -1485 z"},"¯":{"ha":1032,"x_min":66,"x_max":933,"o":"m 82 -1335 l 82 -1335 l 917 -1335 q 933 -1318 933 -1335 l 933 -1318 l 933 -1204 q 917 -1187 933 -1187 l 917 -1187 l 82 -1187 q 66 -1204 66 -1187 l 66 -1204 l 66 -1318 q 82 -1335 66 -1335 z"},"°":{"ha":685,"x_min":55,"x_max":631,"o":"m 343 -1434 l 343 -1434 q 547 -1325 462 -1434 q 631 -1064 631 -1217 l 631 -1064 q 547 -801 631 -910 q 343 -693 462 -693 l 343 -693 q 139 -801 223 -693 q 55 -1064 55 -910 l 55 -1064 q 139 -1325 55 -1217 q 343 -1434 223 -1434 z m 343 -1371 l 343 -1371 q 267 -1281 279 -1371 q 255 -1064 255 -1191 l 255 -1064 q 267 -846 255 -936 q 343 -756 279 -756 l 343 -756 q 419 -846 406 -756 q 432 -1064 432 -936 l 432 -1064 q 419 -1281 432 -1191 q 343 -1371 406 -1371 z"},"±":{"ha":793,"x_min":47,"x_max":752,"o":"m 325 -424 l 325 -424 l 325 -686 l 63 -686 q 47 -703 47 -686 l 47 -703 l 47 -817 q 63 -834 47 -834 l 63 -834 l 325 -834 l 325 -1097 q 342 -1113 325 -1113 l 342 -1113 l 456 -1113 q 473 -1097 473 -1113 l 473 -1097 l 473 -834 l 736 -834 q 752 -817 752 -834 l 752 -817 l 752 -703 q 736 -686 752 -686 l 736 -686 l 473 -686 l 473 -424 q 456 -408 473 -408 l 456 -408 l 342 -408 q 325 -424 325 -408 z m 63 -297 l 63 -297 l 736 -297 q 752 -280 752 -297 l 752 -280 l 752 -166 q 736 -149 752 -149 l 736 -149 l 63 -149 q 47 -166 47 -149 l 47 -166 l 47 -280 q 63 -297 47 -297 z"},"²":{"ha":607,"x_min":15,"x_max":586,"o":"m 27 -1195 l 27 -1195 q 113 -1380 48 -1300 l 113 -1380 q 303 -1462 179 -1462 l 303 -1462 q 575 -1233 553 -1462 l 575 -1233 q 577 -1212 576 -1222 q 577 -1193 577 -1203 l 577 -1193 q 535 -1041 577 -1104 l 535 -1041 q 483 -970 511 -1004 q 425 -907 455 -937 l 425 -907 l 199 -689 l 199 -688 q 200 -685 199 -686 l 200 -685 q 200 -688 198 -688 l 200 -688 l 519 -688 q 520 -689 520 -688 l 520 -689 q 526 -737 522 -713 q 531 -786 529 -762 l 531 -786 q 563 -809 534 -814 l 563 -809 q 586 -777 588 -804 l 586 -777 l 564 -546 q 544 -529 561 -529 l 544 -529 l 34 -529 q 15 -541 18 -529 l 15 -541 q 18 -562 13 -552 l 18 -562 l 279 -898 q 354 -1022 328 -961 q 380 -1138 380 -1084 l 380 -1138 q 372 -1199 380 -1167 l 372 -1199 l 372 -1198 q 254 -1328 337 -1329 l 254 -1328 q 179 -1314 209 -1327 q 130 -1278 148 -1301 l 130 -1278 q 84 -1183 94 -1227 l 84 -1183 q 49 -1156 80 -1154 l 49 -1156 q 27 -1195 18 -1158 z"},"³":{"ha":630,"x_min":18,"x_max":611,"o":"m 52 -1312 l 52 -1311 q 96 -1369 68 -1343 q 159 -1419 123 -1396 l 159 -1419 q 236 -1452 195 -1440 q 321 -1464 277 -1464 l 321 -1464 q 405 -1450 363 -1464 q 485 -1413 447 -1437 l 485 -1413 q 547 -1354 523 -1387 q 574 -1281 570 -1321 l 574 -1281 q 531 -1148 579 -1197 l 531 -1148 q 450 -1083 495 -1109 l 450 -1083 q 611 -842 608 -1024 l 611 -842 q 589 -716 612 -774 q 517 -608 566 -659 l 517 -608 q 308 -509 419 -510 l 308 -509 q 204 -518 251 -509 q 120 -547 156 -527 q 58 -599 83 -567 q 21 -677 33 -631 l 21 -677 q 19 -716 16 -697 q 32 -750 21 -735 q 59 -774 42 -765 q 100 -784 76 -784 l 100 -784 q 170 -734 146 -784 l 170 -734 q 188 -690 181 -712 q 196 -648 194 -669 l 196 -648 q 223 -584 198 -610 q 305 -561 248 -558 l 305 -561 q 415 -622 382 -565 l 415 -622 q 436 -674 429 -646 q 442 -734 442 -702 l 442 -734 q 442 -749 442 -742 q 441 -764 442 -756 l 441 -764 q 362 -937 426 -901 l 362 -937 q 292 -962 329 -954 q 213 -968 255 -970 l 213 -968 q 189 -972 198 -967 q 179 -991 180 -978 l 179 -991 q 203 -1024 177 -1016 l 203 -1024 q 330 -1087 278 -1045 l 330 -1087 q 371 -1137 355 -1107 q 392 -1205 386 -1168 l 392 -1205 q 359 -1320 398 -1273 l 359 -1320 q 309 -1355 338 -1344 q 244 -1367 280 -1366 l 244 -1367 q 160 -1342 196 -1368 q 95 -1284 124 -1317 l 95 -1284 q 71 -1267 82 -1270 q 53 -1269 60 -1265 q 45 -1285 46 -1274 q 52 -1312 44 -1297 l 52 -1312 z"},"´":{"ha":1024,"x_min":427,"x_max":731,"o":"m 655 -1237 l 464 -1053 l 427 -1053 l 507 -1291 q 565 -1407 539 -1385 l 565 -1407 q 636 -1433 595 -1433 l 636 -1433 q 731 -1361 731 -1433 l 731 -1361 q 655 -1237 731 -1311 l 655 -1237 z"},"µ":{"ha":1016,"x_min":-25,"x_max":954,"o":"m 419 -55 l 419 -55 q 448 119 421 47 l 448 119 q 535 258 479 202 l 535 258 q 531 286 548 272 l 531 286 q 504 280 516 295 l 504 280 q 457 220 481 252 q 415 154 432 188 l 415 154 q 401 144 410 144 l 401 144 q 386 152 391 144 l 386 152 q 222 314 327 252 q -5 371 117 375 l -5 371 q -25 358 -21 371 l -25 358 q -5 333 -30 333 l -5 333 q 154 276 94 333 q 213 68 213 219 l 213 68 l 211 -706 q 173 -831 211 -808 l 173 -831 q 101 -809 128 -858 l 101 -809 q 76 -801 90 -790 q 77 -836 62 -812 l 77 -836 q 133 -929 106 -881 q 187 -1025 159 -977 l 187 -1025 q 232 -1036 204 -1055 l 232 -1036 l 233 -1036 q 421 -778 429 -941 l 421 -778 l 419 -148 q 424 -135 420 -140 q 436 -136 427 -131 l 436 -136 l 610 -234 q 616 -247 616 -238 l 616 -247 l 617 -664 q 612 -763 617 -713 q 556 -850 606 -813 l 556 -850 q 549 -863 549 -855 l 549 -863 q 556 -876 549 -870 l 556 -876 q 703 -1056 645 -940 l 703 -1056 q 718 -1065 707 -1065 l 718 -1065 q 732 -1056 727 -1065 l 732 -1056 q 884 -877 787 -944 l 884 -877 q 891 -863 891 -871 l 891 -863 q 883 -850 891 -854 l 883 -850 q 829 -771 838 -820 q 819 -664 819 -723 l 819 -664 l 819 -312 q 857 -186 819 -209 l 857 -186 q 928 -208 899 -158 l 928 -208 q 954 -216 939 -227 q 953 -182 968 -206 l 953 -182 q 897 -88 923 -136 q 843 6 870 -40 l 843 6 q 798 18 826 35 l 798 18 l 796 17 q 621 -163 647 -54 l 621 -163 q 592 -169 615 -184 l 592 -169 l 432 -79 q 422 -70 425 -75 q 419 -55 419 -66 z"},"¶":{"ha":823,"x_min":31,"x_max":798,"o":"m 591 -1234 l 591 -1234 q 654 -1229 614 -1232 l 654 -1229 q 668 -1232 661 -1227 l 668 -1232 q 673 -1244 673 -1237 l 673 -1244 l 673 -1292 q 689 -1308 673 -1308 l 689 -1308 l 717 -1308 q 733 -1292 733 -1308 l 733 -1292 l 733 -1224 q 745 -1209 733 -1212 l 745 -1209 q 787 -1195 756 -1206 l 787 -1195 q 798 -1180 798 -1190 l 798 -1180 l 798 -1149 q 790 -1136 798 -1140 l 790 -1136 q 776 -1133 783 -1131 l 776 -1133 q 755 -1140 776 -1133 l 755 -1140 q 740 -1138 746 -1142 l 740 -1138 q 733 -1125 733 -1131 l 733 -1125 l 733 -418 q 740 -405 733 -410 l 740 -405 q 755 -403 748 -400 l 755 -403 q 776 -409 755 -403 l 776 -409 q 790 -408 784 -412 l 790 -408 q 798 -394 798 -401 l 798 -394 l 798 -350 q 787 -335 798 -338 l 787 -335 q 745 -321 756 -323 l 745 -321 q 733 -306 733 -317 l 733 -306 l 733 -104 q 717 -87 733 -87 l 717 -87 l 689 -87 q 673 -104 673 -87 l 673 -104 l 673 -285 q 668 -297 673 -292 l 668 -297 q 654 -302 663 -302 l 654 -302 q 591 -296 633 -297 l 591 -296 q 576 -280 576 -296 l 576 -280 l 576 -104 q 559 -87 576 -87 l 559 -87 l 531 -87 q 515 -104 515 -87 l 515 -104 l 515 -283 q 500 -300 515 -298 l 500 -300 q 166 -453 301 -322 q 31 -765 31 -585 l 31 -765 q 166 -1075 31 -943 q 500 -1230 301 -1207 l 500 -1230 q 515 -1246 515 -1231 l 515 -1246 l 515 -1292 q 531 -1308 515 -1308 l 531 -1308 l 559 -1308 q 576 -1292 576 -1308 l 576 -1292 l 576 -1250 q 591 -1234 576 -1234 z m 658 -1158 l 658 -1158 q 614 -1160 630 -1160 l 614 -1160 q 602 -1160 608 -1160 q 591 -1160 596 -1160 l 591 -1160 q 576 -1143 576 -1158 l 576 -1143 l 576 -400 q 591 -384 576 -384 l 591 -384 q 602 -384 596 -384 q 614 -384 608 -384 l 614 -384 q 658 -385 644 -384 l 658 -385 q 673 -401 673 -386 l 673 -401 l 673 -1142 q 658 -1158 673 -1156 z m 494 -1142 l 494 -1142 q 345 -1003 383 -1105 q 306 -771 306 -901 l 306 -771 q 345 -539 306 -641 q 494 -401 383 -438 l 494 -401 q 508 -403 501 -398 l 508 -403 q 515 -417 515 -408 l 515 -417 l 515 -1127 q 508 -1140 515 -1135 l 508 -1140 q 494 -1142 501 -1144 z"},"·":{"ha":411,"x_min":53,"x_max":344,"o":"m 53 -817 l 53 -817 q 184 -949 131 -867 l 184 -949 q 213 -949 200 -973 l 213 -949 q 344 -817 260 -860 l 344 -817 q 344 -789 372 -803 l 344 -789 q 213 -658 256 -746 l 213 -658 q 184 -658 198 -629 l 184 -658 q 53 -789 141 -738 l 53 -789 q 53 -817 29 -801 z"},"¸":{"ha":1024,"x_min":322,"x_max":797,"o":"m 425 196 l 555 0 l 623 0 l 524 154 q 619 139 578 139 l 619 139 q 742 176 692 139 l 742 176 q 797 280 797 216 l 797 280 q 708 411 797 371 l 708 411 q 549 439 647 439 l 549 439 q 398 423 484 439 l 398 423 q 322 403 350 415 l 322 403 l 342 358 q 460 377 398 377 l 460 377 q 552 357 518 377 l 552 357 q 593 285 593 333 l 593 285 q 568 230 593 249 l 568 230 q 509 212 544 212 l 509 212 q 455 225 480 212 l 455 225 l 425 196 z"},"¹":{"ha":434,"x_min":6,"x_max":424,"o":"m 52 -1194 l 52 -1195 q 24 -1184 35 -1184 q 9 -1190 13 -1184 q 7 -1205 4 -1196 q 20 -1225 9 -1215 l 20 -1225 q 140 -1336 86 -1279 q 237 -1453 194 -1394 l 237 -1453 q 254 -1462 244 -1462 l 254 -1462 l 283 -1462 q 305 -1442 305 -1462 l 305 -1442 l 303 -753 q 402 -583 303 -590 l 402 -583 q 419 -574 413 -582 q 424 -555 424 -567 l 424 -555 q 399 -530 423 -530 l 399 -530 l 62 -530 q 37 -557 37 -530 l 37 -557 q 61 -584 37 -584 l 61 -584 q 130 -628 113 -585 q 147 -757 147 -671 l 147 -757 l 148 -1142 q 109 -1217 146 -1217 l 109 -1217 q 52 -1194 89 -1217 l 52 -1194 z"},"º":{"ha":726,"x_min":46,"x_max":690,"o":"m 358 -388 l 358 -388 q 328 -388 346 -368 l 328 -388 q 61 -552 240 -497 l 61 -552 q 47 -565 46 -556 q 56 -578 47 -574 l 56 -578 q 107 -684 107 -596 l 107 -684 l 105 -1092 q 104 -1106 105 -1101 q 105 -1116 102 -1112 q 115 -1121 107 -1120 l 115 -1121 q 494 -1237 328 -1139 l 494 -1237 q 507 -1239 501 -1241 q 514 -1228 513 -1238 l 514 -1228 q 598 -1059 527 -1142 l 598 -1059 q 664 -927 638 -1011 q 684 -789 690 -844 l 684 -789 q 642 -672 676 -724 q 563 -578 607 -621 l 563 -578 q 451 -491 511 -527 q 358 -388 391 -456 z m 270 -1103 l 270 -1103 l 274 -642 q 283 -625 274 -630 l 283 -625 l 425 -537 q 463 -545 446 -524 l 463 -545 q 532 -741 539 -627 l 532 -741 q 504 -868 530 -812 q 440 -968 478 -924 l 440 -968 q 345 -1124 378 -1031 l 345 -1124 q 338 -1131 343 -1128 q 327 -1132 332 -1134 l 327 -1132 q 279 -1116 303 -1123 l 279 -1116 q 270 -1103 270 -1113 z m 69 -303 l 69 -303 l 674 -303 q 690 -286 690 -303 l 690 -286 l 690 -172 q 674 -155 690 -155 l 674 -155 l 69 -155 q 53 -172 53 -155 l 53 -172 l 53 -286 q 69 -303 53 -303 z"},"»":{"ha":983,"x_min":12,"x_max":945,"o":"m 448 -200 l 448 -200 l 409 -200 q 394 -209 397 -200 l 394 -209 q 396 -226 390 -218 l 396 -226 l 684 -568 q 684 -588 695 -579 l 684 -588 l 396 -930 q 394 -947 390 -939 l 394 -947 q 409 -956 397 -956 l 409 -956 l 448 -956 q 458 -953 456 -956 l 458 -953 l 938 -591 q 945 -578 945 -586 l 945 -578 q 938 -565 945 -572 l 938 -565 l 458 -203 q 448 -200 455 -200 z m 66 -200 l 66 -200 l 27 -200 q 12 -209 15 -200 l 12 -209 q 14 -226 8 -218 l 14 -226 l 302 -568 q 302 -588 313 -579 l 302 -588 l 14 -930 q 12 -947 8 -939 l 12 -947 q 27 -956 15 -956 l 27 -956 l 66 -956 q 76 -953 74 -956 l 76 -953 l 556 -591 q 563 -578 563 -586 l 563 -578 q 556 -565 563 -572 l 556 -565 l 76 -203 q 66 -200 73 -200 z"},"¼":{"ha":1509,"x_min":149,"x_max":1428,"o":"m 1398 -1336 l 1398 -1336 l 1427 -1311 q 1428 -1287 1438 -1298 l 1428 -1287 l 250 73 q 227 74 238 85 l 227 74 l 197 49 q 196 26 185 39 l 196 26 l 1374 -1335 q 1398 -1336 1382 -1346 z m 1112 -114 l 906 -114 q 898 -119 899 -114 l 898 -119 q 898 -128 893 -123 l 898 -128 l 1104 -450 q 1115 -454 1107 -455 l 1115 -454 q 1122 -445 1122 -452 l 1122 -445 l 1122 -123 q 1112 -114 1122 -114 l 1112 -114 z m 1248 -123 l 1248 -605 q 1238 -614 1248 -614 l 1238 -614 l 1173 -614 q 1164 -609 1167 -614 l 1164 -609 l 847 -116 q 846 -111 846 -113 l 846 -111 l 846 -39 q 855 -28 846 -28 l 855 -28 l 1112 -28 q 1119 -25 1116 -28 l 1119 -25 q 1122 -18 1122 -22 l 1122 -18 l 1122 22 q 1033 191 1122 191 l 1033 191 q 1020 207 1020 191 l 1020 207 q 1033 223 1020 223 l 1033 223 l 1347 223 q 1358 209 1358 223 l 1358 209 q 1347 192 1359 193 l 1347 192 q 1248 27 1246 192 l 1248 27 l 1248 -18 q 1257 -28 1248 -28 l 1257 -28 l 1371 -28 q 1380 -39 1380 -28 l 1380 -39 l 1380 -103 q 1371 -114 1380 -114 l 1371 -114 l 1257 -114 q 1248 -123 1248 -114 l 1248 -123 z m 174 -1179 l 174 -1179 q 149 -1172 156 -1159 l 149 -1172 q 154 -1194 143 -1183 l 154 -1194 q 363 -1413 277 -1295 l 363 -1413 q 371 -1418 366 -1418 l 371 -1418 l 398 -1418 q 409 -1408 409 -1418 l 409 -1408 l 408 -750 q 512 -577 408 -580 l 512 -577 q 524 -562 524 -577 l 524 -562 q 510 -546 522 -546 l 510 -546 l 187 -546 q 173 -563 173 -546 l 173 -563 q 186 -579 173 -579 l 186 -579 q 278 -753 278 -575 l 278 -753 l 279 -1121 q 174 -1179 279 -1254 z"},"½":{"ha":1519,"x_min":149,"x_max":1447,"o":"m 1398 -1336 l 1398 -1336 l 1427 -1311 q 1428 -1287 1438 -1298 l 1428 -1287 l 250 73 q 227 74 238 85 l 227 74 l 197 49 q 196 26 185 39 l 196 26 l 1374 -1335 q 1398 -1336 1382 -1346 z m 174 -1179 l 174 -1179 q 149 -1172 156 -1159 l 149 -1172 q 154 -1194 143 -1183 l 154 -1194 q 363 -1413 277 -1295 l 363 -1413 q 371 -1418 366 -1418 l 371 -1418 l 398 -1418 q 409 -1408 409 -1418 l 409 -1408 l 408 -750 q 512 -577 408 -580 l 512 -577 q 524 -562 524 -577 l 524 -562 q 510 -546 522 -546 l 510 -546 l 187 -546 q 173 -563 173 -546 l 173 -563 q 186 -579 173 -579 l 186 -579 q 278 -753 278 -575 l 278 -753 l 279 -1121 q 174 -1179 279 -1254 z m 933 -391 l 933 -391 q 1009 -563 943 -491 l 1009 -563 q 1187 -638 1073 -633 l 1187 -638 q 1437 -428 1414 -638 l 1437 -428 q 1400 -252 1446 -320 l 1400 -252 q 1296 -125 1350 -176 l 1296 -125 l 1081 81 q 1079 93 1074 87 l 1079 93 q 1089 98 1080 98 l 1089 98 l 1393 98 q 1403 89 1401 98 l 1403 89 l 1413 -2 q 1431 -18 1416 -19 l 1431 -18 q 1447 4 1447 -18 l 1447 4 l 1426 222 q 1416 231 1424 231 l 1416 231 l 930 231 q 921 226 924 231 l 921 226 q 923 215 919 220 l 923 215 l 1172 -104 q 1280 -395 1297 -267 l 1280 -395 q 1140 -529 1262 -523 l 1140 -529 q 1021 -476 1062 -524 l 1021 -476 q 969 -383 978 -428 l 969 -383 q 946 -364 965 -362 l 946 -364 q 933 -391 928 -365 z"},"¾":{"ha":1509,"x_min":74,"x_max":1428,"o":"m 1398 -1336 l 1398 -1336 l 1427 -1311 q 1428 -1287 1438 -1298 l 1428 -1287 l 250 73 q 227 74 238 85 l 227 74 l 197 49 q 196 26 185 39 l 196 26 l 1374 -1335 q 1398 -1336 1382 -1346 z m 1018 -106 l 812 -106 q 804 -111 805 -106 l 804 -111 q 804 -120 799 -115 l 804 -120 l 1010 -442 q 1021 -446 1013 -447 l 1021 -446 q 1028 -437 1028 -444 l 1028 -437 l 1028 -115 q 1018 -106 1028 -106 l 1018 -106 z m 1154 -115 l 1154 -597 q 1144 -606 1154 -606 l 1144 -606 l 1079 -606 q 1070 -601 1073 -606 l 1070 -601 l 753 -108 q 752 -103 752 -105 l 752 -103 l 752 -31 q 761 -20 752 -20 l 761 -20 l 1018 -20 q 1025 -17 1022 -20 l 1025 -17 q 1028 -10 1028 -14 l 1028 -10 l 1028 30 q 939 199 1028 199 l 939 199 q 926 215 926 199 l 926 215 q 939 231 926 231 l 939 231 l 1253 231 q 1264 217 1264 231 l 1264 217 q 1253 200 1265 201 l 1253 200 q 1154 35 1152 200 l 1154 35 l 1154 -10 q 1163 -20 1154 -20 l 1163 -20 l 1277 -20 q 1286 -31 1286 -20 l 1286 -31 l 1286 -95 q 1277 -106 1286 -106 l 1277 -106 l 1163 -106 q 1154 -115 1154 -106 l 1154 -115 z m 103 -1290 l 103 -1290 q 195 -1388 132 -1347 l 195 -1388 q 348 -1428 257 -1429 l 348 -1428 q 495 -1391 428 -1428 l 495 -1391 q 577 -1264 563 -1353 l 577 -1264 q 542 -1132 584 -1170 l 542 -1132 q 447 -1076 501 -1094 l 447 -1076 q 612 -851 610 -1030 l 612 -851 q 527 -637 614 -727 l 527 -637 q 336 -546 439 -547 l 336 -546 q 162 -578 235 -544 l 162 -578 q 74 -698 93 -610 l 74 -698 q 83 -758 66 -730 l 83 -758 q 139 -787 101 -785 l 139 -787 q 204 -752 184 -788 l 204 -752 q 220 -667 221 -713 l 220 -667 q 249 -601 224 -627 l 249 -601 q 335 -577 273 -573 l 335 -577 q 446 -639 412 -581 l 446 -639 q 471 -778 478 -695 l 471 -778 q 394 -951 458 -919 l 394 -951 q 245 -979 326 -984 l 245 -979 q 224 -993 225 -977 l 224 -993 q 240 -1012 220 -1007 l 240 -1012 q 363 -1074 312 -1033 l 363 -1074 q 424 -1193 415 -1116 l 424 -1193 q 392 -1308 434 -1262 l 392 -1308 q 275 -1356 349 -1354 l 275 -1356 q 192 -1331 225 -1357 l 192 -1331 q 128 -1275 156 -1305 l 128 -1275 q 104 -1266 113 -1259 l 104 -1266 q 103 -1290 93 -1270 z"},"¿":{"ha":895,"x_min":42,"x_max":876,"o":"m 703 129 l 703 129 q 624 31 623 129 l 624 31 q 648 -22 624 4 q 716 -48 672 -48 l 716 -48 q 876 107 869 -51 l 876 107 q 453 379 868 375 l 453 379 q 42 31 45 383 l 42 31 q 144 -190 46 -122 q 337 -289 241 -258 q 510 -358 432 -321 q 586 -465 588 -396 l 586 -465 q 534 -581 586 -531 q 418 -629 482 -632 l 418 -629 q 311 -583 352 -628 q 241 -474 269 -538 l 241 -474 q 209 -452 231 -450 l 209 -452 q 198 -482 188 -457 l 198 -482 q 269 -603 218 -537 q 418 -670 319 -670 l 418 -670 q 623 -620 532 -671 q 731 -469 713 -570 l 731 -469 q 692 -278 755 -344 q 530 -169 629 -213 q 340 -75 430 -125 q 246 86 249 -25 l 246 86 q 474 335 253 331 l 474 335 q 667 292 591 339 q 743 193 742 245 l 743 193 q 703 129 743 128 z m 576 -919 l 576 -919 q 445 -787 498 -869 l 445 -787 q 416 -787 429 -763 l 416 -787 q 285 -919 369 -876 l 285 -919 q 285 -947 257 -933 l 285 -947 q 416 -1078 373 -990 l 416 -1078 q 445 -1078 431 -1107 l 445 -1078 q 576 -947 488 -998 l 576 -947 q 576 -919 600 -935 z"},"À":{"ha":1667,"x_min":46,"x_max":1616,"o":"m 1101 -1201 l 1101 -1201 q 1078 -1223 1078 -1201 l 1078 -1223 q 1093 -1244 1078 -1236 l 1093 -1244 l 1511 -1445 q 1545 -1437 1537 -1455 q 1530 -1404 1552 -1419 l 1530 -1404 q 1441 -1258 1461 -1350 q 1421 -1041 1421 -1166 l 1421 -1041 l 1421 -349 q 1580 -214 1421 -138 l 1580 -214 q 1616 -210 1607 -229 q 1608 -179 1625 -192 l 1608 -179 l 1399 11 q 1353 18 1379 25 l 1353 18 q 1177 -205 1203 -25 l 1177 -205 q 1166 -218 1175 -214 l 1166 -218 q 1150 -214 1157 -221 l 1150 -214 q 1100 -160 1126 -190 q 968 -43 1073 -130 q 778 25 862 44 q 642 -37 693 5 l 642 -37 q 495 -164 562 -102 q 329 -201 428 -226 l 329 -201 q 297 -190 319 -198 q 266 -201 275 -182 q 296 -243 257 -220 l 296 -243 q 449 -351 374 -295 q 589 -477 524 -408 l 589 -477 q 730 -698 677 -570 q 756 -975 782 -826 l 756 -975 q 614 -1221 731 -1118 q 335 -1300 497 -1324 l 335 -1300 q 181 -1213 230 -1284 q 125 -1079 132 -1143 l 125 -1079 q 166 -938 114 -989 q 287 -878 218 -888 l 287 -878 q 503 -740 448 -849 q 422 -510 558 -632 l 422 -510 q 390 -505 404 -495 q 387 -536 376 -516 l 387 -536 q 321 -656 430 -625 l 321 -656 q 125 -770 204 -689 q 46 -989 46 -851 l 46 -989 q 197 -1319 46 -1181 q 542 -1459 348 -1458 l 542 -1459 q 887 -1324 768 -1459 q 1007 -1018 1005 -1189 l 1007 -1018 q 872 -668 1009 -819 q 605 -415 734 -517 l 605 -415 q 599 -400 597 -410 l 599 -400 q 609 -388 600 -391 l 609 -388 q 733 -318 678 -359 q 826 -239 788 -278 l 826 -239 q 944 -164 888 -174 q 1086 -218 999 -155 l 1086 -218 q 1127 -254 1108 -234 q 1165 -299 1146 -275 l 1165 -299 q 1169 -310 1169 -304 l 1169 -310 q 1166 -695 1165 -502 q 1167 -1083 1167 -889 l 1167 -1083 q 1158 -1161 1167 -1121 q 1101 -1201 1149 -1201 z m 1043 -1418 l 852 -1602 q 776 -1726 776 -1676 l 776 -1726 q 871 -1798 776 -1798 l 871 -1798 q 942 -1772 912 -1798 l 942 -1772 q 1000 -1656 968 -1750 l 1000 -1656 l 1080 -1418 l 1043 -1418 z"},"Á":{"ha":1667,"x_min":46,"x_max":1616,"o":"m 1101 -1201 l 1101 -1201 q 1078 -1223 1078 -1201 l 1078 -1223 q 1093 -1244 1078 -1236 l 1093 -1244 l 1511 -1445 q 1545 -1437 1537 -1455 q 1530 -1404 1552 -1419 l 1530 -1404 q 1441 -1258 1461 -1350 q 1421 -1041 1421 -1166 l 1421 -1041 l 1421 -349 q 1580 -214 1421 -138 l 1580 -214 q 1616 -210 1607 -229 q 1608 -179 1625 -192 l 1608 -179 l 1399 11 q 1353 18 1379 25 l 1353 18 q 1177 -205 1203 -25 l 1177 -205 q 1166 -218 1175 -214 l 1166 -218 q 1150 -214 1157 -221 l 1150 -214 q 1100 -160 1126 -190 q 968 -43 1073 -130 q 778 25 862 44 q 642 -37 693 5 l 642 -37 q 495 -164 562 -102 q 329 -201 428 -226 l 329 -201 q 297 -190 319 -198 q 266 -201 275 -182 q 296 -243 257 -220 l 296 -243 q 449 -351 374 -295 q 589 -477 524 -408 l 589 -477 q 730 -698 677 -570 q 756 -975 782 -826 l 756 -975 q 614 -1221 731 -1118 q 335 -1300 497 -1324 l 335 -1300 q 181 -1213 230 -1284 q 125 -1079 132 -1143 l 125 -1079 q 166 -938 114 -989 q 287 -878 218 -888 l 287 -878 q 503 -740 448 -849 q 422 -510 558 -632 l 422 -510 q 390 -505 404 -495 q 387 -536 376 -516 l 387 -536 q 321 -656 430 -625 l 321 -656 q 125 -770 204 -689 q 46 -989 46 -851 l 46 -989 q 197 -1319 46 -1181 q 542 -1459 348 -1458 l 542 -1459 q 887 -1324 768 -1459 q 1007 -1018 1005 -1189 l 1007 -1018 q 872 -668 1009 -819 q 605 -415 734 -517 l 605 -415 q 599 -400 597 -410 l 599 -400 q 609 -388 600 -391 l 609 -388 q 733 -318 678 -359 q 826 -239 788 -278 l 826 -239 q 944 -164 888 -174 q 1086 -218 999 -155 l 1086 -218 q 1127 -254 1108 -234 q 1165 -299 1146 -275 l 1165 -299 q 1169 -310 1169 -304 l 1169 -310 q 1166 -695 1165 -502 q 1167 -1083 1167 -889 l 1167 -1083 q 1158 -1161 1167 -1121 q 1101 -1201 1149 -1201 z m 1265 -1598 l 1074 -1414 l 1037 -1414 l 1117 -1652 q 1175 -1768 1149 -1746 l 1175 -1768 q 1246 -1794 1205 -1794 l 1246 -1794 q 1341 -1722 1341 -1794 l 1341 -1722 q 1265 -1598 1341 -1672 l 1265 -1598 z"},"Â":{"ha":1667,"x_min":46,"x_max":1616,"o":"m 1101 -1201 l 1101 -1201 q 1078 -1223 1078 -1201 l 1078 -1223 q 1093 -1244 1078 -1236 l 1093 -1244 l 1511 -1445 q 1545 -1437 1537 -1455 q 1530 -1404 1552 -1419 l 1530 -1404 q 1441 -1258 1461 -1350 q 1421 -1041 1421 -1166 l 1421 -1041 l 1421 -349 q 1580 -214 1421 -138 l 1580 -214 q 1616 -210 1607 -229 q 1608 -179 1625 -192 l 1608 -179 l 1399 11 q 1353 18 1379 25 l 1353 18 q 1177 -205 1203 -25 l 1177 -205 q 1166 -218 1175 -214 l 1166 -218 q 1150 -214 1157 -221 l 1150 -214 q 1100 -160 1126 -190 q 968 -43 1073 -130 q 778 25 862 44 q 642 -37 693 5 l 642 -37 q 495 -164 562 -102 q 329 -201 428 -226 l 329 -201 q 297 -190 319 -198 q 266 -201 275 -182 q 296 -243 257 -220 l 296 -243 q 449 -351 374 -295 q 589 -477 524 -408 l 589 -477 q 730 -698 677 -570 q 756 -975 782 -826 l 756 -975 q 614 -1221 731 -1118 q 335 -1300 497 -1324 l 335 -1300 q 181 -1213 230 -1284 q 125 -1079 132 -1143 l 125 -1079 q 166 -938 114 -989 q 287 -878 218 -888 l 287 -878 q 503 -740 448 -849 q 422 -510 558 -632 l 422 -510 q 390 -505 404 -495 q 387 -536 376 -516 l 387 -536 q 321 -656 430 -625 l 321 -656 q 125 -770 204 -689 q 46 -989 46 -851 l 46 -989 q 197 -1319 46 -1181 q 542 -1459 348 -1458 l 542 -1459 q 887 -1324 768 -1459 q 1007 -1018 1005 -1189 l 1007 -1018 q 872 -668 1009 -819 q 605 -415 734 -517 l 605 -415 q 599 -400 597 -410 l 599 -400 q 609 -388 600 -391 l 609 -388 q 733 -318 678 -359 q 826 -239 788 -278 l 826 -239 q 944 -164 888 -174 q 1086 -218 999 -155 l 1086 -218 q 1127 -254 1108 -234 q 1165 -299 1146 -275 l 1165 -299 q 1169 -310 1169 -304 l 1169 -310 q 1166 -695 1165 -502 q 1167 -1083 1167 -889 l 1167 -1083 q 1158 -1161 1167 -1121 q 1101 -1201 1149 -1201 z m 1334 -1483 l 1334 -1483 l 1334 -1458 q 1329 -1448 1334 -1450 l 1329 -1448 q 1318 -1450 1323 -1446 l 1318 -1450 l 1098 -1634 q 1085 -1634 1091 -1642 l 1085 -1634 l 866 -1450 q 855 -1448 860 -1446 l 855 -1448 q 849 -1458 849 -1450 l 849 -1458 l 849 -1483 q 851 -1489 849 -1488 l 851 -1489 l 1083 -1798 q 1092 -1802 1087 -1802 l 1092 -1802 q 1100 -1798 1096 -1802 l 1100 -1798 l 1332 -1489 q 1334 -1483 1334 -1487 z"},"Ã":{"ha":1667,"x_min":46,"x_max":1616,"o":"m 1101 -1201 l 1101 -1201 q 1078 -1223 1078 -1201 l 1078 -1223 q 1093 -1244 1078 -1236 l 1093 -1244 l 1511 -1445 q 1545 -1437 1537 -1455 q 1530 -1404 1552 -1419 l 1530 -1404 q 1441 -1258 1461 -1350 q 1421 -1041 1421 -1166 l 1421 -1041 l 1421 -349 q 1580 -214 1421 -138 l 1580 -214 q 1616 -210 1607 -229 q 1608 -179 1625 -192 l 1608 -179 l 1399 11 q 1353 18 1379 25 l 1353 18 q 1177 -205 1203 -25 l 1177 -205 q 1166 -218 1175 -214 l 1166 -218 q 1150 -214 1157 -221 l 1150 -214 q 1100 -160 1126 -190 q 968 -43 1073 -130 q 778 25 862 44 q 642 -37 693 5 l 642 -37 q 495 -164 562 -102 q 329 -201 428 -226 l 329 -201 q 297 -190 319 -198 q 266 -201 275 -182 q 296 -243 257 -220 l 296 -243 q 449 -351 374 -295 q 589 -477 524 -408 l 589 -477 q 730 -698 677 -570 q 756 -975 782 -826 l 756 -975 q 614 -1221 731 -1118 q 335 -1300 497 -1324 l 335 -1300 q 181 -1213 230 -1284 q 125 -1079 132 -1143 l 125 -1079 q 166 -938 114 -989 q 287 -878 218 -888 l 287 -878 q 503 -740 448 -849 q 422 -510 558 -632 l 422 -510 q 390 -505 404 -495 q 387 -536 376 -516 l 387 -536 q 321 -656 430 -625 l 321 -656 q 125 -770 204 -689 q 46 -989 46 -851 l 46 -989 q 197 -1319 46 -1181 q 542 -1459 348 -1458 l 542 -1459 q 887 -1324 768 -1459 q 1007 -1018 1005 -1189 l 1007 -1018 q 872 -668 1009 -819 q 605 -415 734 -517 l 605 -415 q 599 -400 597 -410 l 599 -400 q 609 -388 600 -391 l 609 -388 q 733 -318 678 -359 q 826 -239 788 -278 l 826 -239 q 944 -164 888 -174 q 1086 -218 999 -155 l 1086 -218 q 1127 -254 1108 -234 q 1165 -299 1146 -275 l 1165 -299 q 1169 -310 1169 -304 l 1169 -310 q 1166 -695 1165 -502 q 1167 -1083 1167 -889 l 1167 -1083 q 1158 -1161 1167 -1121 q 1101 -1201 1149 -1201 z m 1373 -1641 l 1373 -1641 l 1414 -1641 q 1367 -1528 1398 -1571 l 1367 -1528 q 1226 -1455 1313 -1455 l 1226 -1455 q 1030 -1501 1172 -1455 l 1030 -1501 q 939 -1519 974 -1519 l 939 -1519 q 871 -1460 887 -1519 l 871 -1460 l 833 -1460 q 872 -1567 848 -1530 l 872 -1567 q 1015 -1644 925 -1644 l 1015 -1644 q 1122 -1626 1059 -1644 l 1122 -1626 q 1209 -1599 1148 -1619 l 1209 -1599 q 1301 -1580 1270 -1580 l 1301 -1580 q 1353 -1601 1335 -1580 l 1353 -1601 q 1373 -1641 1363 -1613 z"},"Ä":{"ha":1667,"x_min":46,"x_max":1616,"o":"m 853 -1815 l 853 -1815 q 954 -1708 964 -1815 l 954 -1708 q 887 -1599 948 -1654 q 789 -1546 825 -1545 l 789 -1546 q 734 -1603 753 -1546 q 719 -1708 715 -1660 l 719 -1708 q 764 -1784 722 -1754 q 853 -1815 805 -1815 z m 1283 -1815 l 1283 -1815 q 1384 -1708 1394 -1815 l 1384 -1708 q 1317 -1599 1378 -1654 q 1219 -1546 1255 -1545 l 1219 -1546 q 1164 -1603 1183 -1546 q 1149 -1708 1145 -1660 l 1149 -1708 q 1194 -1784 1152 -1754 q 1283 -1815 1235 -1815 z m 1101 -1219 l 1101 -1219 q 1078 -1241 1078 -1219 l 1078 -1241 q 1093 -1262 1078 -1254 l 1093 -1262 l 1511 -1463 q 1545 -1455 1537 -1473 q 1530 -1422 1552 -1437 l 1530 -1422 q 1441 -1276 1461 -1368 q 1421 -1059 1421 -1184 l 1421 -1059 l 1421 -367 q 1580 -232 1421 -156 l 1580 -232 q 1616 -228 1607 -247 q 1608 -197 1625 -210 l 1608 -197 l 1399 -7 q 1353 0 1379 7 l 1353 0 q 1177 -223 1203 -43 l 1177 -223 q 1166 -236 1175 -232 l 1166 -236 q 1150 -232 1157 -239 l 1150 -232 q 1100 -178 1126 -208 q 968 -61 1073 -148 q 778 7 862 26 q 642 -55 693 -13 l 642 -55 q 495 -182 562 -120 q 329 -219 428 -244 l 329 -219 q 297 -208 319 -216 q 266 -219 275 -200 q 296 -261 257 -238 l 296 -261 q 449 -369 374 -313 q 589 -495 524 -426 l 589 -495 q 730 -716 677 -588 q 756 -993 782 -844 l 756 -993 q 614 -1239 731 -1136 q 335 -1318 497 -1342 l 335 -1318 q 181 -1231 230 -1302 q 125 -1097 132 -1161 l 125 -1097 q 166 -956 114 -1007 q 287 -896 218 -906 l 287 -896 q 503 -758 448 -867 q 422 -528 558 -650 l 422 -528 q 390 -523 404 -513 q 387 -554 376 -534 l 387 -554 q 321 -674 430 -643 l 321 -674 q 125 -788 204 -707 q 46 -1007 46 -869 l 46 -1007 q 197 -1337 46 -1199 q 542 -1477 348 -1476 l 542 -1477 q 887 -1342 768 -1477 q 1007 -1036 1005 -1207 l 1007 -1036 q 872 -686 1009 -837 q 605 -433 734 -535 l 605 -433 q 599 -418 597 -428 l 599 -418 q 609 -406 600 -409 l 609 -406 q 733 -336 678 -377 q 826 -257 788 -296 l 826 -257 q 944 -182 888 -192 q 1086 -236 999 -173 l 1086 -236 q 1127 -272 1108 -252 q 1165 -317 1146 -293 l 1165 -317 q 1169 -328 1169 -322 l 1169 -328 q 1166 -713 1165 -520 q 1167 -1101 1167 -907 l 1167 -1101 q 1158 -1179 1167 -1139 q 1101 -1219 1149 -1219 z"},"Å":{"ha":1667,"x_min":46,"x_max":1616,"o":"m 1052 -1804 l 1052 -1804 q 1220 -1738 1150 -1804 q 1289 -1579 1289 -1672 l 1289 -1579 q 1220 -1419 1289 -1485 q 1052 -1353 1150 -1353 l 1052 -1353 q 885 -1419 954 -1353 q 816 -1579 816 -1485 l 816 -1579 q 885 -1738 816 -1672 q 1052 -1804 954 -1804 z m 1052 -1737 l 1052 -1737 q 990 -1689 1000 -1737 q 980 -1576 980 -1642 l 980 -1576 q 990 -1462 980 -1509 q 1052 -1415 1000 -1415 l 1052 -1415 q 1115 -1462 1104 -1415 q 1125 -1576 1125 -1509 l 1125 -1576 q 1115 -1689 1125 -1642 q 1052 -1737 1104 -1737 z m 1101 -1201 l 1101 -1201 q 1078 -1223 1078 -1201 l 1078 -1223 q 1093 -1244 1078 -1236 l 1093 -1244 l 1511 -1445 q 1545 -1437 1537 -1455 q 1530 -1404 1552 -1419 l 1530 -1404 q 1441 -1258 1461 -1350 q 1421 -1041 1421 -1166 l 1421 -1041 l 1421 -349 q 1580 -214 1421 -138 l 1580 -214 q 1616 -210 1607 -229 q 1608 -179 1625 -192 l 1608 -179 l 1399 11 q 1353 18 1379 25 l 1353 18 q 1177 -205 1203 -25 l 1177 -205 q 1166 -218 1175 -214 l 1166 -218 q 1150 -214 1157 -221 l 1150 -214 q 1100 -160 1126 -190 q 968 -43 1073 -130 q 778 25 862 44 q 642 -37 693 5 l 642 -37 q 495 -164 562 -102 q 329 -201 428 -226 l 329 -201 q 297 -190 319 -198 q 266 -201 275 -182 q 296 -243 257 -220 l 296 -243 q 449 -351 374 -295 q 589 -477 524 -408 l 589 -477 q 730 -698 677 -570 q 756 -975 782 -826 l 756 -975 q 614 -1221 731 -1118 q 335 -1300 497 -1324 l 335 -1300 q 181 -1213 230 -1284 q 125 -1079 132 -1143 l 125 -1079 q 166 -938 114 -989 q 287 -878 218 -888 l 287 -878 q 503 -740 448 -849 q 422 -510 558 -632 l 422 -510 q 390 -505 404 -495 q 387 -536 376 -516 l 387 -536 q 321 -656 430 -625 l 321 -656 q 125 -770 204 -689 q 46 -989 46 -851 l 46 -989 q 197 -1319 46 -1181 q 542 -1459 348 -1458 l 542 -1459 q 887 -1324 768 -1459 q 1007 -1018 1005 -1189 l 1007 -1018 q 872 -668 1009 -819 q 605 -415 734 -517 l 605 -415 q 599 -400 597 -410 l 599 -400 q 609 -388 600 -391 l 609 -388 q 733 -318 678 -359 q 826 -239 788 -278 l 826 -239 q 944 -164 888 -174 q 1086 -218 999 -155 l 1086 -218 q 1127 -254 1108 -234 q 1165 -299 1146 -275 l 1165 -299 q 1169 -310 1169 -304 l 1169 -310 q 1166 -695 1165 -502 q 1167 -1083 1167 -889 l 1167 -1083 q 1158 -1161 1167 -1121 q 1101 -1201 1149 -1201 z"},"Æ":{"ha":2132,"x_min":46,"x_max":2090,"o":"m 1101 -1094 l 1101 -1094 q 1078 -1116 1078 -1094 l 1078 -1116 q 1093 -1137 1078 -1129 l 1093 -1137 q 1639 -1463 1566 -1387 l 1639 -1463 q 1715 -1465 1672 -1488 q 1793 -1425 1757 -1443 l 1793 -1425 q 1876 -1380 1826 -1406 q 1976 -1377 1926 -1354 l 1976 -1377 q 2011 -1379 1999 -1392 q 2008 -1350 2023 -1367 l 2008 -1350 q 1913 -1260 1957 -1300 q 1827 -1183 1869 -1221 l 1827 -1183 q 1804 -1175 1817 -1175 q 1768 -1188 1790 -1176 l 1768 -1188 q 1529 -1272 1595 -1272 l 1529 -1272 q 1485 -1245 1514 -1271 q 1441 -1151 1456 -1219 l 1441 -1151 q 1421 -934 1421 -1059 l 1421 -934 l 1421 -837 q 1499 -921 1474 -892 l 1499 -921 q 1608 -980 1555 -987 q 1713 -934 1661 -973 l 1713 -934 q 1852 -894 1803 -863 l 1852 -894 q 1894 -896 1878 -911 q 1891 -855 1909 -882 l 1891 -855 q 1841 -787 1866 -821 q 1781 -724 1815 -753 l 1781 -724 q 1628 -735 1711 -663 l 1628 -735 q 1471 -816 1507 -852 l 1471 -816 q 1421 -772 1441 -790 l 1421 -772 l 1421 -392 q 1635 -249 1549 -345 q 1851 -156 1720 -154 q 2050 -259 1981 -158 l 2050 -259 q 2086 -271 2066 -282 q 2090 -237 2105 -261 l 2090 -237 q 1972 -97 2041 -167 q 1810 6 1902 -27 q 1622 21 1717 39 q 1394 -111 1526 3 l 1394 -111 q 1264 -194 1338 -168 l 1264 -194 q 1157 -197 1199 -217 q 1099 -160 1115 -178 l 1099 -160 q 968 -43 1073 -130 q 778 25 862 44 q 642 -37 693 5 l 642 -37 q 495 -164 562 -102 q 329 -201 428 -226 l 329 -201 q 297 -190 319 -198 q 266 -201 275 -182 q 296 -243 257 -220 l 296 -243 q 449 -351 374 -295 q 589 -477 524 -408 l 589 -477 q 730 -698 677 -570 q 756 -975 782 -826 l 756 -975 q 614 -1221 731 -1118 q 335 -1300 497 -1324 l 335 -1300 q 181 -1213 230 -1284 q 125 -1079 132 -1143 l 125 -1079 q 166 -938 114 -989 q 287 -878 218 -888 l 287 -878 q 503 -740 448 -849 q 422 -510 558 -632 l 422 -510 q 390 -505 404 -495 q 387 -536 376 -516 l 387 -536 q 321 -656 430 -625 l 321 -656 q 125 -770 204 -689 q 46 -989 46 -851 l 46 -989 q 197 -1319 46 -1181 q 542 -1459 348 -1458 l 542 -1459 q 887 -1324 768 -1459 q 1007 -1018 1005 -1189 l 1007 -1018 q 872 -668 1009 -819 q 605 -415 734 -517 l 605 -415 q 599 -400 597 -410 l 599 -400 q 609 -388 600 -391 l 609 -388 q 733 -318 678 -359 q 826 -239 788 -278 l 826 -239 q 944 -164 888 -174 q 1086 -218 999 -155 l 1086 -218 q 1127 -254 1108 -234 q 1165 -299 1146 -275 l 1165 -299 q 1169 -310 1169 -304 l 1169 -310 q 1166 -695 1165 -502 q 1167 -976 1167 -889 l 1167 -976 q 1158 -1054 1167 -1014 q 1101 -1094 1149 -1094 z"},"Ç":{"ha":1407,"x_min":72,"x_max":1356,"o":"m 764 -241 l 764 -241 q 728 -245 739 -230 q 737 -276 717 -260 l 737 -276 q 856 -423 853 -362 l 856 -423 q 819 -520 859 -464 q 676 -669 778 -576 l 676 -669 q 471 -981 469 -857 l 471 -981 q 643 -1202 471 -1095 l 643 -1202 q 692 -1230 649 -1205 q 754 -1270 735 -1256 l 754 -1270 q 761 -1288 763 -1278 l 761 -1288 q 589 -1425 730 -1425 l 589 -1425 q 375 -1247 446 -1425 q 325 -860 304 -1070 l 325 -860 q 561 -310 361 -494 q 1018 -127 761 -127 l 1018 -127 q 1316 -203 1160 -127 l 1316 -203 q 1350 -197 1339 -214 q 1340 -163 1361 -181 l 1340 -163 q 794 26 1101 26 l 794 26 q 287 -215 487 26 q 72 -688 87 -457 l 72 -688 q 199 -1254 51 -1022 q 573 -1486 347 -1486 l 573 -1486 q 721 -1439 665 -1486 q 797 -1328 776 -1393 l 797 -1328 q 822 -1319 804 -1308 l 822 -1319 q 985 -1462 910 -1384 l 985 -1462 q 1061 -1464 1018 -1487 q 1139 -1424 1103 -1442 l 1139 -1424 q 1220 -1379 1172 -1405 q 1322 -1376 1268 -1353 l 1322 -1376 q 1356 -1375 1344 -1387 q 1354 -1349 1367 -1364 l 1354 -1349 q 1259 -1259 1303 -1299 q 1173 -1182 1215 -1220 l 1173 -1182 q 1160 -1171 1163 -1172 l 1160 -1171 q 1150 -1169 1156 -1169 l 1150 -1169 q 1132 -1176 1142 -1169 q 1114 -1187 1121 -1183 l 1114 -1187 q 875 -1271 941 -1271 l 875 -1271 q 778 -1230 827 -1269 l 778 -1230 q 695 -1104 696 -1166 l 695 -1104 q 818 -917 692 -1026 l 818 -917 q 1094 -555 1080 -690 l 1094 -555 q 764 -241 1104 -427 z m 569 196 l 699 0 l 767 0 l 668 154 q 763 139 722 139 l 763 139 q 886 176 836 139 l 886 176 q 941 280 941 216 l 941 280 q 852 411 941 371 l 852 411 q 693 439 791 439 l 693 439 q 542 423 628 439 l 542 423 q 466 403 494 415 l 466 403 l 486 358 q 604 377 542 377 l 604 377 q 696 357 662 377 l 696 357 q 737 285 737 333 l 737 285 q 712 230 737 249 l 712 230 q 653 212 688 212 l 653 212 q 599 225 624 212 l 599 225 l 569 196 z"},"È":{"ha":1439,"x_min":73,"x_max":1386,"o":"m 817 -1256 l 817 -1256 q 779 -1231 798 -1246 l 779 -1231 q 696 -1105 697 -1167 l 696 -1105 q 819 -918 693 -1027 l 819 -918 q 903 -842 871 -872 l 903 -842 q 916 -837 910 -836 q 927 -844 922 -838 l 927 -844 q 991 -921 951 -874 l 991 -921 q 1100 -980 1047 -987 q 1205 -934 1153 -973 l 1205 -934 q 1344 -894 1295 -863 l 1344 -894 q 1386 -896 1370 -911 q 1383 -855 1401 -882 l 1383 -855 q 1333 -787 1358 -821 q 1273 -724 1307 -753 l 1273 -724 q 1120 -735 1203 -663 l 1120 -735 q 982 -798 1030 -808 l 982 -798 q 970 -787 973 -796 l 970 -787 q 974 -771 967 -778 l 974 -771 q 1095 -556 1086 -648 l 1095 -556 q 765 -242 1105 -428 l 765 -242 q 730 -244 741 -229 q 738 -277 718 -259 l 738 -277 q 857 -424 854 -363 l 857 -424 q 820 -521 860 -465 q 677 -670 779 -577 l 677 -670 q 472 -982 470 -858 l 472 -982 q 644 -1203 472 -1096 l 644 -1203 q 693 -1231 650 -1206 q 755 -1271 736 -1257 l 755 -1271 q 762 -1289 764 -1279 l 762 -1289 q 590 -1426 733 -1426 l 590 -1426 q 369 -1248 447 -1426 q 327 -782 291 -1070 q 562 -311 362 -495 q 1019 -128 762 -128 l 1019 -128 q 1317 -204 1161 -128 l 1317 -204 q 1353 -199 1342 -215 q 1341 -164 1363 -183 l 1341 -164 q 795 25 1102 25 l 795 25 q 288 -216 488 25 q 73 -689 88 -458 l 73 -689 q 200 -1255 52 -1023 q 574 -1487 348 -1487 l 574 -1487 q 722 -1440 666 -1487 q 798 -1329 777 -1394 l 798 -1329 q 808 -1319 801 -1320 l 808 -1319 q 819 -1318 813 -1317 l 819 -1318 l 823 -1320 q 986 -1463 911 -1385 l 986 -1463 q 1062 -1465 1019 -1488 q 1140 -1425 1104 -1443 l 1140 -1425 q 1223 -1380 1173 -1406 q 1323 -1377 1273 -1354 l 1323 -1377 q 1358 -1379 1346 -1392 q 1355 -1350 1370 -1367 l 1355 -1350 q 1260 -1260 1304 -1300 q 1174 -1183 1216 -1221 l 1174 -1183 q 1151 -1175 1164 -1175 q 1115 -1188 1137 -1176 l 1115 -1188 q 876 -1272 942 -1272 l 876 -1272 q 817 -1256 847 -1271 z m 854 -1480 l 663 -1664 q 587 -1788 587 -1738 l 587 -1788 q 682 -1860 587 -1860 l 682 -1860 q 753 -1834 723 -1860 l 753 -1834 q 811 -1718 779 -1812 l 811 -1718 l 891 -1480 l 854 -1480 z"},"É":{"ha":1439,"x_min":73,"x_max":1386,"o":"m 817 -1256 l 817 -1256 q 779 -1231 798 -1246 l 779 -1231 q 696 -1105 697 -1167 l 696 -1105 q 819 -918 693 -1027 l 819 -918 q 903 -842 871 -872 l 903 -842 q 916 -837 910 -836 q 927 -844 922 -838 l 927 -844 q 991 -921 951 -874 l 991 -921 q 1100 -980 1047 -987 q 1205 -934 1153 -973 l 1205 -934 q 1344 -894 1295 -863 l 1344 -894 q 1386 -896 1370 -911 q 1383 -855 1401 -882 l 1383 -855 q 1333 -787 1358 -821 q 1273 -724 1307 -753 l 1273 -724 q 1120 -735 1203 -663 l 1120 -735 q 982 -798 1030 -808 l 982 -798 q 970 -787 973 -796 l 970 -787 q 974 -771 967 -778 l 974 -771 q 1095 -556 1086 -648 l 1095 -556 q 765 -242 1105 -428 l 765 -242 q 730 -244 741 -229 q 738 -277 718 -259 l 738 -277 q 857 -424 854 -363 l 857 -424 q 820 -521 860 -465 q 677 -670 779 -577 l 677 -670 q 472 -982 470 -858 l 472 -982 q 644 -1203 472 -1096 l 644 -1203 q 693 -1231 650 -1206 q 755 -1271 736 -1257 l 755 -1271 q 762 -1289 764 -1279 l 762 -1289 q 590 -1426 733 -1426 l 590 -1426 q 369 -1248 447 -1426 q 327 -782 291 -1070 q 562 -311 362 -495 q 1019 -128 762 -128 l 1019 -128 q 1317 -204 1161 -128 l 1317 -204 q 1353 -199 1342 -215 q 1341 -164 1363 -183 l 1341 -164 q 795 25 1102 25 l 795 25 q 288 -216 488 25 q 73 -689 88 -458 l 73 -689 q 200 -1255 52 -1023 q 574 -1487 348 -1487 l 574 -1487 q 722 -1440 666 -1487 q 798 -1329 777 -1394 l 798 -1329 q 808 -1319 801 -1320 l 808 -1319 q 819 -1318 813 -1317 l 819 -1318 l 823 -1320 q 986 -1463 911 -1385 l 986 -1463 q 1062 -1465 1019 -1488 q 1140 -1425 1104 -1443 l 1140 -1425 q 1223 -1380 1173 -1406 q 1323 -1377 1273 -1354 l 1323 -1377 q 1358 -1379 1346 -1392 q 1355 -1350 1370 -1367 l 1355 -1350 q 1260 -1260 1304 -1300 q 1174 -1183 1216 -1221 l 1174 -1183 q 1151 -1175 1164 -1175 q 1115 -1188 1137 -1176 l 1115 -1188 q 876 -1272 942 -1272 l 876 -1272 q 817 -1256 847 -1271 z m 1037 -1645 l 846 -1461 l 809 -1461 l 889 -1699 q 947 -1815 921 -1793 l 947 -1815 q 1018 -1841 977 -1841 l 1018 -1841 q 1113 -1769 1113 -1841 l 1113 -1769 q 1037 -1645 1113 -1719 l 1037 -1645 z"},"Ê":{"ha":1439,"x_min":73,"x_max":1386,"o":"m 817 -1256 l 817 -1256 q 779 -1231 798 -1246 l 779 -1231 q 696 -1105 697 -1167 l 696 -1105 q 819 -918 693 -1027 l 819 -918 q 903 -842 871 -872 l 903 -842 q 916 -837 910 -836 q 927 -844 922 -838 l 927 -844 q 991 -921 951 -874 l 991 -921 q 1100 -980 1047 -987 q 1205 -934 1153 -973 l 1205 -934 q 1344 -894 1295 -863 l 1344 -894 q 1386 -896 1370 -911 q 1383 -855 1401 -882 l 1383 -855 q 1333 -787 1358 -821 q 1273 -724 1307 -753 l 1273 -724 q 1120 -735 1203 -663 l 1120 -735 q 982 -798 1030 -808 l 982 -798 q 970 -787 973 -796 l 970 -787 q 974 -771 967 -778 l 974 -771 q 1095 -556 1086 -648 l 1095 -556 q 765 -242 1105 -428 l 765 -242 q 730 -244 741 -229 q 738 -277 718 -259 l 738 -277 q 857 -424 854 -363 l 857 -424 q 820 -521 860 -465 q 677 -670 779 -577 l 677 -670 q 472 -982 470 -858 l 472 -982 q 644 -1203 472 -1096 l 644 -1203 q 693 -1231 650 -1206 q 755 -1271 736 -1257 l 755 -1271 q 762 -1289 764 -1279 l 762 -1289 q 590 -1426 733 -1426 l 590 -1426 q 369 -1248 447 -1426 q 327 -782 291 -1070 q 562 -311 362 -495 q 1019 -128 762 -128 l 1019 -128 q 1317 -204 1161 -128 l 1317 -204 q 1353 -199 1342 -215 q 1341 -164 1363 -183 l 1341 -164 q 795 25 1102 25 l 795 25 q 288 -216 488 25 q 73 -689 88 -458 l 73 -689 q 200 -1255 52 -1023 q 574 -1487 348 -1487 l 574 -1487 q 722 -1440 666 -1487 q 798 -1329 777 -1394 l 798 -1329 q 808 -1319 801 -1320 l 808 -1319 q 819 -1318 813 -1317 l 819 -1318 l 823 -1320 q 986 -1463 911 -1385 l 986 -1463 q 1062 -1465 1019 -1488 q 1140 -1425 1104 -1443 l 1140 -1425 q 1223 -1380 1173 -1406 q 1323 -1377 1273 -1354 l 1323 -1377 q 1358 -1379 1346 -1392 q 1355 -1350 1370 -1367 l 1355 -1350 q 1260 -1260 1304 -1300 q 1174 -1183 1216 -1221 l 1174 -1183 q 1151 -1175 1164 -1175 q 1115 -1188 1137 -1176 l 1115 -1188 q 876 -1272 942 -1272 l 876 -1272 q 817 -1256 847 -1271 z m 1092 -1543 l 1092 -1543 l 1092 -1518 q 1087 -1508 1092 -1510 l 1087 -1508 q 1076 -1510 1081 -1506 l 1076 -1510 l 856 -1694 q 843 -1694 849 -1702 l 843 -1694 l 624 -1510 q 613 -1508 618 -1506 l 613 -1508 q 607 -1518 607 -1510 l 607 -1518 l 607 -1543 q 609 -1549 607 -1548 l 609 -1549 l 841 -1858 q 850 -1862 845 -1862 l 850 -1862 q 858 -1858 854 -1862 l 858 -1858 l 1090 -1549 q 1092 -1543 1092 -1547 z"},"Ë":{"ha":1439,"x_min":73,"x_max":1386,"o":"m 817 -1256 l 817 -1256 q 779 -1231 798 -1246 l 779 -1231 q 696 -1105 697 -1167 l 696 -1105 q 819 -918 693 -1027 l 819 -918 q 903 -842 871 -872 l 903 -842 q 916 -837 910 -836 q 927 -844 922 -838 l 927 -844 q 991 -921 951 -874 l 991 -921 q 1100 -980 1047 -987 q 1205 -934 1153 -973 l 1205 -934 q 1344 -894 1295 -863 l 1344 -894 q 1386 -896 1370 -911 q 1383 -855 1401 -882 l 1383 -855 q 1333 -787 1358 -821 q 1273 -724 1307 -753 l 1273 -724 q 1120 -735 1203 -663 l 1120 -735 q 982 -798 1030 -808 l 982 -798 q 970 -787 973 -796 l 970 -787 q 974 -771 967 -778 l 974 -771 q 1095 -556 1086 -648 l 1095 -556 q 765 -242 1105 -428 l 765 -242 q 730 -244 741 -229 q 738 -277 718 -259 l 738 -277 q 857 -424 854 -363 l 857 -424 q 820 -521 860 -465 q 677 -670 779 -577 l 677 -670 q 472 -982 470 -858 l 472 -982 q 644 -1203 472 -1096 l 644 -1203 q 693 -1231 650 -1206 q 755 -1271 736 -1257 l 755 -1271 q 762 -1289 764 -1279 l 762 -1289 q 590 -1426 733 -1426 l 590 -1426 q 369 -1248 447 -1426 q 327 -782 291 -1070 q 562 -311 362 -495 q 1019 -128 762 -128 l 1019 -128 q 1317 -204 1161 -128 l 1317 -204 q 1353 -199 1342 -215 q 1341 -164 1363 -183 l 1341 -164 q 795 25 1102 25 l 795 25 q 288 -216 488 25 q 73 -689 88 -458 l 73 -689 q 200 -1255 52 -1023 q 574 -1487 348 -1487 l 574 -1487 q 722 -1440 666 -1487 q 798 -1329 777 -1394 l 798 -1329 q 808 -1319 801 -1320 l 808 -1319 q 819 -1318 813 -1317 l 819 -1318 l 823 -1320 q 986 -1463 911 -1385 l 986 -1463 q 1062 -1465 1019 -1488 q 1140 -1425 1104 -1443 l 1140 -1425 q 1223 -1380 1173 -1406 q 1323 -1377 1273 -1354 l 1323 -1377 q 1358 -1379 1346 -1392 q 1355 -1350 1370 -1367 l 1355 -1350 q 1260 -1260 1304 -1300 q 1174 -1183 1216 -1221 l 1174 -1183 q 1151 -1175 1164 -1175 q 1115 -1188 1137 -1176 l 1115 -1188 q 876 -1272 942 -1272 l 876 -1272 q 817 -1256 847 -1271 z m 639 -1811 l 639 -1811 q 740 -1704 750 -1811 l 740 -1704 q 673 -1595 734 -1650 q 575 -1542 611 -1541 l 575 -1542 q 520 -1599 539 -1542 q 505 -1704 501 -1656 l 505 -1704 q 550 -1780 508 -1750 q 639 -1811 591 -1811 z m 1069 -1811 l 1069 -1811 q 1170 -1704 1180 -1811 l 1170 -1704 q 1103 -1595 1164 -1650 q 1005 -1542 1041 -1541 l 1005 -1542 q 950 -1599 969 -1542 q 935 -1704 931 -1656 l 935 -1704 q 980 -1780 938 -1750 q 1069 -1811 1021 -1811 z"},"Ì":{"ha":1403,"x_min":49,"x_max":1311,"o":"m 775 -682 l 775 -682 q 762 -650 784 -662 l 762 -650 q 338 -641 540 -533 q 122 -960 136 -750 q 243 -1333 107 -1170 q 621 -1503 378 -1497 l 621 -1503 q 813 -1464 717 -1505 q 950 -1388 908 -1424 l 950 -1388 q 1125 -1243 1052 -1297 q 1274 -1228 1197 -1190 l 1274 -1228 q 1311 -1223 1299 -1242 q 1286 -1181 1323 -1205 l 1286 -1181 q 1052 -934 1067 -1041 q 1202 -578 1037 -827 l 1202 -578 q 1311 -177 1356 -345 q 1102 108 1265 -10 l 1102 108 q 758 240 945 221 q 405 111 570 258 l 405 111 q 257 -20 325 39 q 90 -17 189 -80 l 90 -17 q 49 -13 64 2 q 52 -47 34 -28 l 52 -47 q 640 -36 353 -353 l 640 -36 q 878 125 772 108 q 1062 72 984 142 l 1062 72 q 1123 -105 1137 1 q 992 -391 1109 -211 l 992 -391 q 834 -769 828 -639 q 1028 -1052 839 -899 l 1028 -1052 q 1037 -1072 1040 -1062 q 1018 -1081 1034 -1082 l 1018 -1081 q 786 -1189 895 -1082 q 517 -1299 676 -1296 l 517 -1299 q 292 -1198 370 -1290 q 230 -933 214 -1107 q 410 -686 246 -759 q 741 -688 573 -614 l 741 -688 q 775 -682 765 -699 z m 902 -1526 l 711 -1710 q 635 -1834 635 -1784 l 635 -1834 q 730 -1906 635 -1906 l 730 -1906 q 801 -1880 771 -1906 l 801 -1880 q 859 -1764 827 -1858 l 859 -1764 l 939 -1526 l 902 -1526 z"},"Í":{"ha":1403,"x_min":49,"x_max":1311,"o":"m 775 -682 l 775 -682 q 762 -650 784 -662 l 762 -650 q 338 -641 540 -533 q 122 -960 136 -750 q 243 -1333 107 -1170 q 621 -1503 378 -1497 l 621 -1503 q 813 -1464 717 -1505 q 950 -1388 908 -1424 l 950 -1388 q 1125 -1243 1052 -1297 q 1274 -1228 1197 -1190 l 1274 -1228 q 1311 -1223 1299 -1242 q 1286 -1181 1323 -1205 l 1286 -1181 q 1052 -934 1067 -1041 q 1202 -578 1037 -827 l 1202 -578 q 1311 -177 1356 -345 q 1102 108 1265 -10 l 1102 108 q 758 240 945 221 q 405 111 570 258 l 405 111 q 257 -20 325 39 q 90 -17 189 -80 l 90 -17 q 49 -13 64 2 q 52 -47 34 -28 l 52 -47 q 640 -36 353 -353 l 640 -36 q 878 125 772 108 q 1062 72 984 142 l 1062 72 q 1123 -105 1137 1 q 992 -391 1109 -211 l 992 -391 q 834 -769 828 -639 q 1028 -1052 839 -899 l 1028 -1052 q 1037 -1072 1040 -1062 q 1018 -1081 1034 -1082 l 1018 -1081 q 786 -1189 895 -1082 q 517 -1299 676 -1296 l 517 -1299 q 292 -1198 370 -1290 q 230 -933 214 -1107 q 410 -686 246 -759 q 741 -688 573 -614 l 741 -688 q 775 -682 765 -699 z m 1092 -1708 l 901 -1524 l 864 -1524 l 944 -1762 q 1002 -1878 976 -1856 l 1002 -1878 q 1073 -1904 1032 -1904 l 1073 -1904 q 1168 -1832 1168 -1904 l 1168 -1832 q 1092 -1708 1168 -1782 l 1092 -1708 z"},"Î":{"ha":1403,"x_min":49,"x_max":1311,"o":"m 775 -682 l 775 -682 q 762 -650 784 -662 l 762 -650 q 338 -641 540 -533 q 122 -960 136 -750 q 243 -1333 107 -1170 q 621 -1503 378 -1497 l 621 -1503 q 813 -1464 717 -1505 q 950 -1388 908 -1424 l 950 -1388 q 1125 -1243 1052 -1297 q 1274 -1228 1197 -1190 l 1274 -1228 q 1311 -1223 1299 -1242 q 1286 -1181 1323 -1205 l 1286 -1181 q 1052 -934 1067 -1041 q 1202 -578 1037 -827 l 1202 -578 q 1311 -177 1356 -345 q 1102 108 1265 -10 l 1102 108 q 758 240 945 221 q 405 111 570 258 l 405 111 q 257 -20 325 39 q 90 -17 189 -80 l 90 -17 q 49 -13 64 2 q 52 -47 34 -28 l 52 -47 q 640 -36 353 -353 l 640 -36 q 878 125 772 108 q 1062 72 984 142 l 1062 72 q 1123 -105 1137 1 q 992 -391 1109 -211 l 992 -391 q 834 -769 828 -639 q 1028 -1052 839 -899 l 1028 -1052 q 1037 -1072 1040 -1062 q 1018 -1081 1034 -1082 l 1018 -1081 q 786 -1189 895 -1082 q 517 -1299 676 -1296 l 517 -1299 q 292 -1198 370 -1290 q 230 -933 214 -1107 q 410 -686 246 -759 q 741 -688 573 -614 l 741 -688 q 775 -682 765 -699 z m 1000 -1583 l 1000 -1583 l 1000 -1558 q 995 -1548 1000 -1550 l 995 -1548 q 984 -1550 989 -1546 l 984 -1550 l 764 -1734 q 751 -1734 757 -1742 l 751 -1734 l 532 -1550 q 521 -1548 526 -1546 l 521 -1548 q 515 -1558 515 -1550 l 515 -1558 l 515 -1583 q 517 -1589 515 -1588 l 517 -1589 l 749 -1898 q 758 -1902 753 -1902 l 758 -1902 q 766 -1898 762 -1902 l 766 -1898 l 998 -1589 q 1000 -1583 1000 -1587 z"},"Ï":{"ha":1403,"x_min":49,"x_max":1311,"o":"m 775 -682 l 775 -682 q 762 -650 784 -662 l 762 -650 q 338 -641 540 -533 q 122 -960 136 -750 q 243 -1333 107 -1170 q 621 -1503 378 -1497 l 621 -1503 q 813 -1464 717 -1505 q 950 -1388 908 -1424 l 950 -1388 q 1125 -1243 1052 -1297 q 1274 -1228 1197 -1190 l 1274 -1228 q 1311 -1223 1299 -1242 q 1286 -1181 1323 -1205 l 1286 -1181 q 1052 -934 1067 -1041 q 1202 -578 1037 -827 l 1202 -578 q 1311 -177 1356 -345 q 1102 108 1265 -10 l 1102 108 q 758 240 945 221 q 405 111 570 258 l 405 111 q 257 -20 325 39 q 90 -17 189 -80 l 90 -17 q 49 -13 64 2 q 52 -47 34 -28 l 52 -47 q 640 -36 353 -353 l 640 -36 q 878 125 772 108 q 1062 72 984 142 l 1062 72 q 1123 -105 1137 1 q 992 -391 1109 -211 l 992 -391 q 834 -769 828 -639 q 1028 -1052 839 -899 l 1028 -1052 q 1037 -1072 1040 -1062 q 1018 -1081 1034 -1082 l 1018 -1081 q 786 -1189 895 -1082 q 517 -1299 676 -1296 l 517 -1299 q 292 -1198 370 -1290 q 230 -933 214 -1107 q 410 -686 246 -759 q 741 -688 573 -614 l 741 -688 q 775 -682 765 -699 z m 500 -1815 l 500 -1815 q 601 -1708 611 -1815 l 601 -1708 q 534 -1599 595 -1654 q 436 -1546 472 -1545 l 436 -1546 q 381 -1603 400 -1546 q 366 -1708 362 -1660 l 366 -1708 q 411 -1784 369 -1754 q 500 -1815 452 -1815 z m 930 -1815 l 930 -1815 q 1031 -1708 1041 -1815 l 1031 -1708 q 964 -1599 1025 -1654 q 866 -1546 902 -1545 l 866 -1546 q 811 -1603 830 -1546 q 796 -1708 792 -1660 l 796 -1708 q 841 -1784 799 -1754 q 930 -1815 882 -1815 z"},"Ð":{"ha":1660,"x_min":47,"x_max":1593,"o":"m 722 -625 l 722 -625 q 666 -678 693 -654 l 666 -678 q 532 -982 461 -853 q 760 -1198 603 -1111 l 760 -1198 q 800 -1192 788 -1212 q 786 -1157 811 -1173 l 786 -1157 q 846 -889 637 -1064 l 846 -889 q 988 -693 952 -783 l 988 -693 l 1305 -780 q 1317 -774 1313 -781 l 1317 -774 q 1317 -762 1320 -768 l 1317 -762 l 1318 -728 q 1306 -719 1312 -719 l 1306 -719 l 1004 -636 q 1006 -583 1009 -608 l 1006 -583 q 788 -339 991 -451 l 788 -339 q 749 -343 760 -325 q 760 -378 738 -362 l 760 -378 q 801 -540 875 -456 l 801 -540 q 769 -576 785 -559 l 769 -576 q 219 -560 391 -466 q 47 -927 47 -654 l 47 -927 q 142 -1201 47 -1078 q 385 -1399 237 -1325 q 711 -1485 533 -1474 q 1059 -1444 888 -1497 l 1059 -1444 q 1370 -1242 1244 -1374 q 1552 -949 1495 -1110 q 1593 -616 1609 -788 q 1478 -296 1576 -444 l 1478 -296 q 1113 4 1328 -71 q 566 -100 898 78 l 566 -100 q 395 -163 482 -145 q 214 -105 307 -181 l 214 -105 q 174 -106 188 -88 q 183 -144 160 -124 l 183 -144 q 491 -347 355 -303 q 849 -250 627 -391 l 849 -250 q 1198 -141 1046 -124 q 1420 -322 1350 -159 l 1420 -322 q 1350 -883 1540 -605 q 842 -1236 1159 -1161 l 842 -1236 q 402 -1198 622 -1288 q 143 -930 182 -1108 l 143 -930 q 235 -619 95 -716 q 722 -625 374 -522 z"},"Ñ":{"ha":1808,"x_min":53,"x_max":1748,"o":"m 566 -562 l 566 -562 q 540 -631 568 -618 q 419 -624 511 -645 l 419 -624 q 165 -686 277 -589 q 53 -976 53 -784 l 53 -976 q 180 -1311 54 -1179 q 522 -1445 305 -1444 l 522 -1445 q 750 -1379 629 -1445 q 954 -1187 870 -1313 l 954 -1187 q 969 -1180 959 -1180 l 969 -1180 q 983 -1190 980 -1181 l 983 -1190 q 1101 -1359 1022 -1282 q 1281 -1437 1180 -1437 l 1281 -1437 q 1509 -1362 1441 -1437 q 1619 -1118 1576 -1287 l 1619 -1118 q 1712 -993 1643 -1001 l 1712 -993 q 1735 -976 1733 -992 q 1711 -951 1736 -960 l 1711 -951 q 1447 -740 1518 -885 q 1457 -370 1376 -595 l 1457 -370 q 1561 -226 1494 -268 q 1705 -233 1627 -185 l 1705 -233 q 1748 -234 1734 -251 q 1742 -199 1762 -217 l 1742 -199 q 1610 -91 1676 -145 q 1477 17 1543 -37 l 1477 17 q 1456 17 1467 25 l 1456 17 q 1193 -362 1227 -152 q 1462 -859 1158 -572 l 1462 -859 q 1470 -873 1471 -867 q 1461 -885 1469 -880 l 1461 -885 q 1352 -1127 1390 -929 l 1352 -1127 q 1294 -1258 1332 -1225 q 1181 -1292 1255 -1292 l 1181 -1292 q 1075 -1240 1121 -1292 q 1003 -1113 1028 -1188 l 1003 -1113 q 1004 -1100 1001 -1105 l 1004 -1100 q 1069 -825 1063 -973 l 1069 -825 q 1004 -475 1075 -647 q 811 -163 933 -304 l 811 -163 q 563 18 678 -6 q 351 -99 447 42 l 351 -99 q 180 -130 267 -225 l 180 -130 q 142 -127 158 -109 q 147 -168 126 -146 l 147 -168 q 576 -241 420 -446 l 576 -241 q 624 -178 601 -207 q 691 -152 646 -149 l 691 -152 q 813 -278 749 -153 q 877 -593 877 -403 l 877 -593 q 747 -1029 875 -842 q 454 -1234 619 -1217 l 454 -1234 q 194 -1173 289 -1252 q 102 -986 99 -1095 l 102 -986 q 161 -810 105 -876 q 366 -783 216 -744 l 366 -783 q 617 -570 655 -857 l 617 -570 q 588 -535 611 -533 q 566 -562 565 -537 z m 1153 -1743 l 1153 -1743 l 1194 -1743 q 1147 -1630 1178 -1673 l 1147 -1630 q 1006 -1557 1093 -1557 l 1006 -1557 q 810 -1603 952 -1557 l 810 -1603 q 719 -1621 754 -1621 l 719 -1621 q 651 -1562 667 -1621 l 651 -1562 l 613 -1562 q 652 -1669 628 -1632 l 652 -1669 q 795 -1746 705 -1746 l 795 -1746 q 902 -1728 839 -1746 l 902 -1728 q 989 -1701 928 -1721 l 989 -1701 q 1081 -1682 1050 -1682 l 1081 -1682 q 1133 -1703 1115 -1682 l 1133 -1703 q 1153 -1743 1143 -1715 z"},"Ò":{"ha":1544,"x_min":54,"x_max":1454,"o":"m 61 -239 l 61 -239 q 364 -407 280 -413 q 655 -249 448 -401 l 655 -249 q 1007 -119 859 -99 q 1254 -278 1155 -139 l 1254 -278 q 1303 -646 1346 -409 q 1019 -1056 1259 -884 l 1019 -1056 q 674 -1208 850 -1176 q 351 -1150 498 -1240 l 351 -1150 q 271 -990 258 -1093 q 430 -834 284 -888 l 430 -834 q 716 -623 703 -734 q 565 -378 729 -513 l 565 -378 q 534 -372 546 -362 q 536 -399 522 -383 l 536 -399 q 536 -493 586 -456 q 315 -597 486 -531 l 315 -597 q 68 -878 62 -693 q 305 -1185 74 -1064 l 305 -1185 q 544 -1311 450 -1253 q 687 -1459 638 -1369 l 687 -1459 q 704 -1467 692 -1468 l 704 -1467 q 1141 -1302 944 -1436 q 1416 -964 1337 -1168 l 1416 -964 q 1454 -565 1495 -757 q 1290 -242 1412 -373 l 1290 -242 q 862 13 1086 -21 q 416 -94 638 47 l 416 -94 q 235 -204 317 -156 q 80 -208 152 -253 l 80 -208 q 55 -211 65 -199 q 61 -239 44 -224 z m 1138 -1424 l 947 -1608 q 871 -1732 871 -1682 l 871 -1732 q 966 -1804 871 -1804 l 966 -1804 q 1037 -1778 1007 -1804 l 1037 -1778 q 1095 -1662 1063 -1756 l 1095 -1662 l 1175 -1424 l 1138 -1424 z"},"Ó":{"ha":1544,"x_min":54,"x_max":1454,"o":"m 61 -239 l 61 -239 q 364 -407 280 -413 q 655 -249 448 -401 l 655 -249 q 1007 -119 859 -99 q 1254 -278 1155 -139 l 1254 -278 q 1303 -646 1346 -409 q 1019 -1056 1259 -884 l 1019 -1056 q 674 -1208 850 -1176 q 351 -1150 498 -1240 l 351 -1150 q 271 -990 258 -1093 q 430 -834 284 -888 l 430 -834 q 716 -623 703 -734 q 565 -378 729 -513 l 565 -378 q 534 -372 546 -362 q 536 -399 522 -383 l 536 -399 q 536 -493 586 -456 q 315 -597 486 -531 l 315 -597 q 68 -878 62 -693 q 305 -1185 74 -1064 l 305 -1185 q 544 -1311 450 -1253 q 687 -1459 638 -1369 l 687 -1459 q 704 -1467 692 -1468 l 704 -1467 q 1141 -1302 944 -1436 q 1416 -964 1337 -1168 l 1416 -964 q 1454 -565 1495 -757 q 1290 -242 1412 -373 l 1290 -242 q 862 13 1086 -21 q 416 -94 638 47 l 416 -94 q 235 -204 317 -156 q 80 -208 152 -253 l 80 -208 q 55 -211 65 -199 q 61 -239 44 -224 z m 700 -1605 l 509 -1421 l 472 -1421 l 552 -1659 q 610 -1775 584 -1753 l 610 -1775 q 681 -1801 640 -1801 l 681 -1801 q 776 -1729 776 -1801 l 776 -1729 q 700 -1605 776 -1679 l 700 -1605 z"},"Ô":{"ha":1544,"x_min":54,"x_max":1454,"o":"m 61 -239 l 61 -239 q 364 -407 280 -413 q 655 -249 448 -401 l 655 -249 q 1007 -119 859 -99 q 1254 -278 1155 -139 l 1254 -278 q 1303 -646 1346 -409 q 1019 -1056 1259 -884 l 1019 -1056 q 674 -1208 850 -1176 q 351 -1150 498 -1240 l 351 -1150 q 271 -990 258 -1093 q 430 -834 284 -888 l 430 -834 q 716 -623 703 -734 q 565 -378 729 -513 l 565 -378 q 534 -372 546 -362 q 536 -399 522 -383 l 536 -399 q 536 -493 586 -456 q 315 -597 486 -531 l 315 -597 q 68 -878 62 -693 q 305 -1185 74 -1064 l 305 -1185 q 544 -1311 450 -1253 q 687 -1459 638 -1369 l 687 -1459 q 704 -1467 692 -1468 l 704 -1467 q 1141 -1302 944 -1436 q 1416 -964 1337 -1168 l 1416 -964 q 1454 -565 1495 -757 q 1290 -242 1412 -373 l 1290 -242 q 862 13 1086 -21 q 416 -94 638 47 l 416 -94 q 235 -204 317 -156 q 80 -208 152 -253 l 80 -208 q 55 -211 65 -199 q 61 -239 44 -224 z m 1014 -1491 l 1014 -1491 l 1014 -1466 q 1009 -1456 1014 -1458 l 1009 -1456 q 998 -1458 1003 -1454 l 998 -1458 l 778 -1642 q 765 -1642 771 -1650 l 765 -1642 l 546 -1458 q 535 -1456 540 -1454 l 535 -1456 q 529 -1466 529 -1458 l 529 -1466 l 529 -1491 q 531 -1497 529 -1496 l 531 -1497 l 763 -1806 q 772 -1810 767 -1810 l 772 -1810 q 780 -1806 776 -1810 l 780 -1806 l 1012 -1497 q 1014 -1491 1014 -1495 z"},"Õ":{"ha":1544,"x_min":54,"x_max":1454,"o":"m 61 -239 l 61 -239 q 364 -407 280 -413 q 655 -249 448 -401 l 655 -249 q 1007 -119 859 -99 q 1254 -278 1155 -139 l 1254 -278 q 1303 -646 1346 -409 q 1019 -1056 1259 -884 l 1019 -1056 q 674 -1208 850 -1176 q 351 -1150 498 -1240 l 351 -1150 q 271 -990 258 -1093 q 430 -834 284 -888 l 430 -834 q 716 -623 703 -734 q 565 -378 729 -513 l 565 -378 q 534 -372 546 -362 q 536 -399 522 -383 l 536 -399 q 536 -493 586 -456 q 315 -597 486 -531 l 315 -597 q 68 -878 62 -693 q 305 -1185 74 -1064 l 305 -1185 q 544 -1311 450 -1253 q 687 -1459 638 -1369 l 687 -1459 q 704 -1467 692 -1468 l 704 -1467 q 1141 -1302 944 -1436 q 1416 -964 1337 -1168 l 1416 -964 q 1454 -565 1495 -757 q 1290 -242 1412 -373 l 1290 -242 q 862 13 1086 -21 q 416 -94 638 47 l 416 -94 q 235 -204 317 -156 q 80 -208 152 -253 l 80 -208 q 55 -211 65 -199 q 61 -239 44 -224 z m 1021 -1743 l 1021 -1743 l 1062 -1743 q 1015 -1630 1046 -1673 l 1015 -1630 q 874 -1557 961 -1557 l 874 -1557 q 678 -1603 820 -1557 l 678 -1603 q 587 -1621 622 -1621 l 587 -1621 q 519 -1562 535 -1621 l 519 -1562 l 481 -1562 q 520 -1669 496 -1632 l 520 -1669 q 663 -1746 573 -1746 l 663 -1746 q 770 -1728 707 -1746 l 770 -1728 q 857 -1701 796 -1721 l 857 -1701 q 949 -1682 918 -1682 l 949 -1682 q 1001 -1703 983 -1682 l 1001 -1703 q 1021 -1743 1011 -1715 z"},"Ö":{"ha":1544,"x_min":54,"x_max":1454,"o":"m 570 -1815 l 570 -1815 q 671 -1708 681 -1815 l 671 -1708 q 604 -1599 665 -1654 q 506 -1546 542 -1545 l 506 -1546 q 451 -1603 470 -1546 q 436 -1708 432 -1660 l 436 -1708 q 481 -1784 439 -1754 q 570 -1815 522 -1815 z m 1000 -1815 l 1000 -1815 q 1101 -1708 1111 -1815 l 1101 -1708 q 1034 -1599 1095 -1654 q 936 -1546 972 -1545 l 936 -1546 q 881 -1603 900 -1546 q 866 -1708 862 -1660 l 866 -1708 q 911 -1784 869 -1754 q 1000 -1815 952 -1815 z m 61 -239 l 61 -239 q 364 -407 280 -413 q 655 -249 448 -401 l 655 -249 q 1007 -119 859 -99 q 1254 -278 1155 -139 l 1254 -278 q 1303 -646 1346 -409 q 1019 -1056 1259 -884 l 1019 -1056 q 674 -1208 850 -1176 q 351 -1150 498 -1240 l 351 -1150 q 271 -990 258 -1093 q 430 -834 284 -888 l 430 -834 q 716 -623 703 -734 q 565 -378 729 -513 l 565 -378 q 534 -372 546 -362 q 536 -399 522 -383 l 536 -399 q 536 -493 586 -456 q 315 -597 486 -531 l 315 -597 q 68 -878 62 -693 q 305 -1185 74 -1064 l 305 -1185 q 544 -1311 450 -1253 q 687 -1459 638 -1369 l 687 -1459 q 704 -1467 692 -1468 l 704 -1467 q 1141 -1302 944 -1436 q 1416 -964 1337 -1168 l 1416 -964 q 1454 -565 1495 -757 q 1290 -242 1412 -373 l 1290 -242 q 862 13 1086 -21 q 416 -94 638 47 l 416 -94 q 235 -204 317 -156 q 80 -208 152 -253 l 80 -208 q 55 -211 65 -199 q 61 -239 44 -224 z"},"×":{"ha":793,"x_min":108,"x_max":690,"o":"m 214 -901 l 214 -901 l 399 -716 l 584 -901 q 608 -900 596 -912 l 608 -900 l 688 -820 q 689 -796 700 -808 l 689 -796 l 504 -611 l 690 -425 q 689 -402 701 -414 l 689 -402 l 608 -321 q 585 -320 596 -309 l 585 -320 l 399 -506 l 213 -320 q 190 -321 202 -309 l 190 -321 l 109 -402 q 108 -425 97 -414 l 108 -425 l 294 -611 l 109 -796 q 110 -820 98 -808 l 110 -820 l 190 -900 q 214 -901 202 -912 z"},"Ø":{"ha":1544,"x_min":54,"x_max":1454,"o":"m 1217 -1525 l 1217 -1525 l 1251 -1505 q 1256 -1482 1264 -1495 l 1256 -1482 l 1148 -1297 q 1416 -964 1338 -1164 l 1416 -964 q 1454 -565 1495 -757 q 1290 -242 1412 -373 l 1290 -242 q 862 13 1086 -21 l 862 13 q 438 -80 649 45 l 438 -80 l 349 72 q 327 79 341 87 l 327 79 l 293 59 q 287 36 279 52 l 287 36 l 377 -118 q 234 -204 300 -165 l 234 -204 q 80 -208 152 -253 l 80 -208 q 55 -211 65 -199 q 61 -239 44 -224 l 61 -239 q 364 -407 280 -413 l 364 -407 q 510 -346 414 -403 l 510 -346 l 529 -379 q 536 -399 526 -388 l 536 -399 q 536 -493 586 -456 q 315 -597 486 -531 l 315 -597 q 68 -878 62 -693 q 305 -1185 74 -1064 l 305 -1185 q 544 -1311 450 -1253 q 687 -1459 638 -1369 l 687 -1459 q 704 -1467 692 -1468 l 704 -1467 q 1087 -1336 912 -1440 l 1087 -1336 l 1194 -1519 q 1217 -1525 1200 -1532 z m 655 -249 l 655 -249 q 1007 -119 859 -99 q 1254 -278 1155 -139 l 1254 -278 q 1303 -646 1346 -409 q 1019 -1056 1259 -884 l 1019 -1056 l 1011 -1062 l 571 -308 q 655 -249 610 -282 z m 674 -1208 l 674 -1208 q 351 -1150 498 -1240 l 351 -1150 q 271 -990 258 -1093 q 430 -834 284 -888 l 430 -834 q 698 -670 644 -755 l 698 -670 l 950 -1101 q 674 -1208 814 -1182 z"},"Ù":{"ha":1460,"x_min":49,"x_max":1402,"o":"m 1153 14 l 1153 14 q 1018 -78 1052 -35 l 1018 -78 q 978 -247 982 -125 l 978 -247 q 969 -264 978 -261 q 950 -257 959 -267 l 950 -257 q 866 -167 908 -212 q 781 -78 823 -123 l 781 -78 q 370 -103 585 126 l 370 -103 q 222 -207 295 -182 q 80 -172 149 -233 l 80 -172 q 50 -172 62 -158 q 56 -203 37 -186 l 56 -203 l 309 -416 l 310 -417 q 404 -629 437 -539 q 283 -810 370 -720 l 283 -810 q 158 -992 209 -885 q 187 -1234 107 -1100 l 187 -1234 q 354 -1385 250 -1339 q 536 -1429 458 -1432 l 536 -1429 q 712 -1314 676 -1423 q 652 -1133 748 -1206 l 652 -1133 q 615 -1133 630 -1115 q 623 -1172 599 -1152 l 623 -1172 q 663 -1305 704 -1235 q 537 -1381 621 -1376 l 537 -1381 q 425 -1340 476 -1384 q 371 -1234 373 -1296 l 371 -1234 q 415 -1074 367 -1118 q 494 -999 462 -1030 l 494 -999 q 637 -705 658 -830 q 378 -418 615 -580 l 378 -418 q 368 -401 367 -411 q 384 -389 369 -392 l 384 -389 q 480 -337 446 -375 q 551 -265 513 -300 l 551 -265 q 779 -187 680 -145 q 972 -337 878 -229 l 972 -337 q 976 -348 976 -342 l 976 -348 l 970 -1070 q 914 -1166 970 -1144 l 914 -1166 q 916 -1214 868 -1187 l 916 -1214 q 1116 -1312 1016 -1262 q 1317 -1412 1216 -1362 l 1317 -1412 q 1349 -1408 1335 -1422 q 1341 -1376 1362 -1395 l 1341 -1376 q 1237 -1225 1263 -1320 q 1211 -1005 1210 -1131 l 1211 -1005 l 1218 -301 q 1371 -196 1219 -141 l 1371 -196 q 1402 -190 1391 -204 q 1398 -163 1413 -177 l 1398 -163 l 1207 9 q 1180 20 1195 19 q 1153 14 1165 21 z m 940 -1418 l 749 -1602 q 673 -1726 673 -1676 l 673 -1726 q 768 -1798 673 -1798 l 768 -1798 q 839 -1772 809 -1798 l 839 -1772 q 897 -1656 865 -1750 l 897 -1656 l 977 -1418 l 940 -1418 z"},"Ú":{"ha":1460,"x_min":49,"x_max":1402,"o":"m 1153 14 l 1153 14 q 1018 -78 1052 -35 l 1018 -78 q 978 -247 982 -125 l 978 -247 q 969 -264 978 -261 q 950 -257 959 -267 l 950 -257 q 866 -167 908 -212 q 781 -78 823 -123 l 781 -78 q 370 -103 585 126 l 370 -103 q 222 -207 295 -182 q 80 -172 149 -233 l 80 -172 q 50 -172 62 -158 q 56 -203 37 -186 l 56 -203 l 309 -416 l 310 -417 q 404 -629 437 -539 q 283 -810 370 -720 l 283 -810 q 158 -992 209 -885 q 187 -1234 107 -1100 l 187 -1234 q 354 -1385 250 -1339 q 536 -1429 458 -1432 l 536 -1429 q 712 -1314 676 -1423 q 652 -1133 748 -1206 l 652 -1133 q 615 -1133 630 -1115 q 623 -1172 599 -1152 l 623 -1172 q 663 -1305 704 -1235 q 537 -1381 621 -1376 l 537 -1381 q 425 -1340 476 -1384 q 371 -1234 373 -1296 l 371 -1234 q 415 -1074 367 -1118 q 494 -999 462 -1030 l 494 -999 q 637 -705 658 -830 q 378 -418 615 -580 l 378 -418 q 368 -401 367 -411 q 384 -389 369 -392 l 384 -389 q 480 -337 446 -375 q 551 -265 513 -300 l 551 -265 q 779 -187 680 -145 q 972 -337 878 -229 l 972 -337 q 976 -348 976 -342 l 976 -348 l 970 -1070 q 914 -1166 970 -1144 l 914 -1166 q 916 -1214 868 -1187 l 916 -1214 q 1116 -1312 1016 -1262 q 1317 -1412 1216 -1362 l 1317 -1412 q 1349 -1408 1335 -1422 q 1341 -1376 1362 -1395 l 1341 -1376 q 1237 -1225 1263 -1320 q 1211 -1005 1210 -1131 l 1211 -1005 l 1218 -301 q 1371 -196 1219 -141 l 1371 -196 q 1402 -190 1391 -204 q 1398 -163 1413 -177 l 1398 -163 l 1207 9 q 1180 20 1195 19 q 1153 14 1165 21 z m 1044 -1572 l 853 -1388 l 816 -1388 l 896 -1626 q 954 -1742 928 -1720 l 954 -1742 q 1025 -1768 984 -1768 l 1025 -1768 q 1120 -1696 1120 -1768 l 1120 -1696 q 1044 -1572 1120 -1646 l 1044 -1572 z"},"Û":{"ha":1460,"x_min":49,"x_max":1402,"o":"m 1153 14 l 1153 14 q 1018 -78 1052 -35 l 1018 -78 q 978 -247 982 -125 l 978 -247 q 969 -264 978 -261 q 950 -257 959 -267 l 950 -257 q 866 -167 908 -212 q 781 -78 823 -123 l 781 -78 q 370 -103 585 126 l 370 -103 q 222 -207 295 -182 q 80 -172 149 -233 l 80 -172 q 50 -172 62 -158 q 56 -203 37 -186 l 56 -203 l 309 -416 l 310 -417 q 404 -629 437 -539 q 283 -810 370 -720 l 283 -810 q 158 -992 209 -885 q 187 -1234 107 -1100 l 187 -1234 q 354 -1385 250 -1339 q 536 -1429 458 -1432 l 536 -1429 q 712 -1314 676 -1423 q 652 -1133 748 -1206 l 652 -1133 q 615 -1133 630 -1115 q 623 -1172 599 -1152 l 623 -1172 q 663 -1305 704 -1235 q 537 -1381 621 -1376 l 537 -1381 q 425 -1340 476 -1384 q 371 -1234 373 -1296 l 371 -1234 q 415 -1074 367 -1118 q 494 -999 462 -1030 l 494 -999 q 637 -705 658 -830 q 378 -418 615 -580 l 378 -418 q 368 -401 367 -411 q 384 -389 369 -392 l 384 -389 q 480 -337 446 -375 q 551 -265 513 -300 l 551 -265 q 779 -187 680 -145 q 972 -337 878 -229 l 972 -337 q 976 -348 976 -342 l 976 -348 l 970 -1070 q 914 -1166 970 -1144 l 914 -1166 q 916 -1214 868 -1187 l 916 -1214 q 1116 -1312 1016 -1262 q 1317 -1412 1216 -1362 l 1317 -1412 q 1349 -1408 1335 -1422 q 1341 -1376 1362 -1395 l 1341 -1376 q 1237 -1225 1263 -1320 q 1211 -1005 1210 -1131 l 1211 -1005 l 1218 -301 q 1371 -196 1219 -141 l 1371 -196 q 1402 -190 1391 -204 q 1398 -163 1413 -177 l 1398 -163 l 1207 9 q 1180 20 1195 19 q 1153 14 1165 21 z m 972 -1491 l 972 -1491 l 972 -1466 q 967 -1456 972 -1458 l 967 -1456 q 956 -1458 961 -1454 l 956 -1458 l 736 -1642 q 723 -1642 729 -1650 l 723 -1642 l 504 -1458 q 493 -1456 498 -1454 l 493 -1456 q 487 -1466 487 -1458 l 487 -1466 l 487 -1491 q 489 -1497 487 -1496 l 489 -1497 l 721 -1806 q 730 -1810 725 -1810 l 730 -1810 q 738 -1806 734 -1810 l 738 -1806 l 970 -1497 q 972 -1491 972 -1495 z"},"Ü":{"ha":1460,"x_min":49,"x_max":1402,"o":"m 1113 -1815 l 1113 -1815 q 1214 -1708 1224 -1815 l 1214 -1708 q 1147 -1599 1208 -1654 q 1049 -1546 1085 -1545 l 1049 -1546 q 994 -1603 1013 -1546 q 979 -1708 975 -1660 l 979 -1708 q 1024 -1784 982 -1754 q 1113 -1815 1065 -1815 z m 683 -1815 l 683 -1815 q 784 -1708 794 -1815 l 784 -1708 q 717 -1599 778 -1654 q 619 -1546 655 -1545 l 619 -1546 q 564 -1603 583 -1546 q 549 -1708 545 -1660 l 549 -1708 q 594 -1784 552 -1754 q 683 -1815 635 -1815 z m 1153 -29 l 1153 -29 q 1018 -121 1052 -78 l 1018 -121 q 978 -290 982 -168 l 978 -290 q 969 -307 978 -304 q 950 -300 959 -310 l 950 -300 q 866 -210 908 -255 q 781 -121 823 -166 l 781 -121 q 370 -146 585 83 l 370 -146 q 222 -250 295 -225 q 80 -215 149 -276 l 80 -215 q 50 -215 62 -201 q 56 -246 37 -229 l 56 -246 l 309 -459 l 310 -460 q 404 -672 437 -582 q 283 -853 370 -763 l 283 -853 q 158 -1035 209 -928 q 187 -1277 107 -1143 l 187 -1277 q 354 -1428 250 -1382 q 536 -1472 458 -1475 l 536 -1472 q 712 -1357 676 -1466 q 652 -1176 748 -1249 l 652 -1176 q 615 -1176 630 -1158 q 623 -1215 599 -1195 l 623 -1215 q 663 -1348 704 -1278 q 537 -1424 621 -1419 l 537 -1424 q 425 -1383 476 -1427 q 371 -1277 373 -1339 l 371 -1277 q 415 -1117 367 -1161 q 494 -1042 462 -1073 l 494 -1042 q 637 -748 658 -873 q 378 -461 615 -623 l 378 -461 q 368 -444 367 -454 q 384 -432 369 -435 l 384 -432 q 480 -380 446 -418 q 551 -308 513 -343 l 551 -308 q 779 -230 680 -188 q 972 -380 878 -272 l 972 -380 q 976 -391 976 -385 l 976 -391 l 970 -1113 q 914 -1209 970 -1187 l 914 -1209 q 916 -1257 868 -1230 l 916 -1257 q 1116 -1355 1016 -1305 q 1317 -1455 1216 -1405 l 1317 -1455 q 1349 -1451 1335 -1465 q 1341 -1419 1362 -1438 l 1341 -1419 q 1237 -1268 1263 -1363 q 1211 -1048 1210 -1174 l 1211 -1048 l 1218 -344 q 1371 -239 1219 -184 l 1371 -239 q 1402 -233 1391 -247 q 1398 -206 1413 -220 l 1398 -206 l 1207 -34 q 1180 -23 1195 -24 q 1153 -29 1165 -22 z"},"Ý":{"ha":1755,"x_min":45,"x_max":1701,"o":"m 380 -710 l 380 -710 q 603 -780 515 -704 l 603 -780 q 635 -786 620 -797 q 635 -763 650 -776 l 635 -763 q 400 -658 523 -655 l 400 -658 q 145 -763 244 -661 q 45 -1034 46 -866 l 45 -1034 q 183 -1334 45 -1202 q 526 -1467 320 -1467 l 526 -1467 q 778 -1406 661 -1467 q 959 -1236 894 -1345 l 959 -1236 q 1030 -1379 973 -1316 q 1181 -1468 1087 -1443 l 1181 -1468 q 1421 -1430 1309 -1501 q 1574 -1225 1532 -1360 l 1574 -1225 q 1671 -1047 1630 -1040 l 1671 -1047 q 1701 -1032 1695 -1052 q 1670 -1000 1706 -1013 l 1670 -1000 q 1460 -846 1481 -922 q 1558 -566 1438 -771 l 1558 -566 q 1647 -149 1696 -326 q 1421 163 1598 27 l 1421 163 q 1195 283 1310 244 q 963 319 1079 322 l 963 319 q 642 243 778 314 q 403 43 506 172 l 403 43 q 404 16 390 26 q 434 23 418 5 l 434 23 q 661 196 538 137 q 951 255 784 255 l 951 255 q 1358 32 1265 240 q 1282 -449 1450 -176 l 1282 -449 q 1222 -716 1182 -609 q 1439 -917 1262 -823 l 1439 -917 q 1448 -932 1448 -924 l 1448 -932 q 1439 -946 1448 -940 l 1439 -946 q 1366 -1010 1403 -964 q 1308 -1160 1329 -1057 l 1308 -1160 q 1248 -1301 1290 -1242 q 1118 -1350 1205 -1360 l 1118 -1350 q 1018 -1274 1047 -1341 q 1005 -1123 989 -1208 l 1005 -1123 q 1004 -888 1031 -1008 l 1004 -888 q 876 -570 959 -684 q 700 -373 792 -456 l 700 -373 q 695 -358 695 -368 l 695 -358 q 705 -346 696 -348 l 705 -346 q 806 -283 739 -331 l 806 -283 q 966 -222 901 -208 q 1086 -300 1031 -237 l 1086 -300 q 1127 -309 1107 -323 q 1129 -272 1146 -296 l 1129 -272 q 1039 -165 1076 -212 q 975 -82 1001 -118 l 975 -82 q 823 -4 915 2 q 639 -95 730 -11 l 639 -95 q 468 -131 538 -187 l 468 -131 q 433 -130 446 -115 q 443 -168 420 -145 l 443 -168 q 567 -287 501 -230 q 680 -417 632 -345 l 680 -417 q 784 -646 744 -514 q 819 -887 823 -779 l 819 -887 q 704 -1148 812 -1015 q 415 -1267 596 -1282 l 415 -1267 q 210 -1191 299 -1269 q 120 -996 120 -1113 l 120 -996 q 188 -796 119 -879 q 380 -710 257 -714 z m 1141 -1631 l 950 -1447 l 913 -1447 l 993 -1685 q 1051 -1801 1025 -1779 l 1051 -1801 q 1122 -1827 1081 -1827 l 1122 -1827 q 1217 -1755 1217 -1827 l 1217 -1755 q 1141 -1631 1217 -1705 l 1141 -1631 z"},"Þ":{"ha":1823,"x_min":31,"x_max":1766,"o":"m 972 -757 l 1574 -1060 q 1616 -1056 1603 -1073 q 1609 -1024 1629 -1040 l 1609 -1024 q 1570 -886 1538 -973 q 1692 -729 1601 -800 q 1766 -561 1783 -659 q 1613 -277 1748 -463 l 1613 -277 q 1309 0 1459 -68 l 1309 0 q 1025 -13 1185 57 l 1025 -13 l 1021 -15 q 962 -46 992 -28 l 962 -46 q 947 -47 954 -51 q 938 -35 939 -43 l 938 -35 q 887 176 923 91 q 775 332 850 261 l 775 332 q 749 336 761 345 q 747 310 737 327 l 747 310 q 798 -121 824 149 l 798 -121 q 788 -134 798 -130 l 788 -134 q 489 -116 588 -212 l 489 -116 q 457 -110 472 -99 q 455 -141 441 -122 l 455 -141 q 759 -356 611 -344 l 759 -356 q 771 -361 767 -357 q 774 -374 774 -365 l 774 -374 q 750 -631 762 -503 q 725 -889 737 -760 l 725 -889 q 626 -1141 710 -1035 q 417 -1250 542 -1248 l 417 -1250 q 191 -1184 283 -1257 q 99 -981 99 -1112 q 184 -774 99 -850 q 409 -698 268 -698 l 409 -698 q 575 -751 510 -696 l 575 -751 q 611 -753 596 -768 q 600 -711 626 -738 l 600 -711 q 508 -663 560 -675 q 403 -651 456 -652 l 403 -651 q 137 -746 243 -647 q 31 -1017 31 -846 q 164 -1312 31 -1189 q 525 -1435 297 -1435 l 525 -1435 q 757 -1366 663 -1432 q 902 -1217 851 -1300 q 960 -1066 952 -1134 q 970 -958 968 -999 l 970 -958 q 972 -757 973 -849 l 972 -757 z m 1062 -255 l 1062 -255 q 1385 -162 1265 -138 q 1576 -300 1504 -186 l 1576 -300 q 1482 -627 1645 -513 q 1313 -840 1319 -742 l 1313 -840 q 1305 -855 1313 -852 q 1289 -854 1297 -858 l 1289 -854 l 971 -698 q 967 -597 970 -644 l 967 -597 q 956 -326 959 -449 l 956 -326 q 965 -311 956 -314 l 965 -311 q 1062 -255 1008 -291 z"},"ß":{"ha":997,"x_min":-8,"x_max":935,"o":"m 115 -915 l 115 -915 l 8 -915 q -8 -929 -7 -915 l -8 -929 q 4 -946 -8 -944 l 4 -946 q 112 -1013 69 -957 q 149 -1159 155 -1069 l 149 -1159 q 186 -1397 142 -1301 q 362 -1451 230 -1494 l 362 -1451 q 530 -1400 469 -1419 q 615 -1421 590 -1382 l 615 -1421 q 644 -1436 629 -1442 l 644 -1436 q 634 -1400 645 -1435 l 634 -1400 q 541 -1246 598 -1286 q 328 -1272 483 -1207 l 328 -1272 q 191 -1218 211 -1326 q 234 -1078 170 -1111 l 234 -1078 q 361 -952 339 -1024 l 361 -952 q 374 -858 376 -905 l 374 -858 q 415 -858 378 -832 l 415 -858 q 527 -945 492 -913 l 527 -945 q 621 -1039 576 -990 l 621 -1039 q 676 -1041 656 -1072 l 676 -1041 q 704 -1015 685 -1021 q 733 -1000 722 -1010 l 733 -1000 q 830 -767 898 -873 q 622 -568 761 -661 l 622 -568 q 612 -551 611 -561 q 626 -539 613 -542 l 626 -539 q 781 -492 690 -532 q 911 -373 872 -452 q 935 -133 949 -294 l 935 -133 q 763 202 924 67 l 763 202 q 377 389 605 335 l 377 389 q 363 386 368 390 q 357 375 358 381 q 360 362 356 368 q 372 354 364 356 l 372 354 q 645 206 543 313 q 746 -67 746 99 l 746 -67 q 621 -362 733 -294 q 407 -428 508 -431 l 407 -428 q 401 -462 362 -438 l 401 -462 q 595 -605 511 -526 q 648 -786 679 -684 l 648 -786 q 569 -855 629 -843 l 569 -855 q 404 -798 530 -867 l 404 -798 q 381 -777 389 -791 q 371 -743 373 -763 l 371 -743 l 270 309 q 249 341 266 343 q 230 307 232 338 l 230 307 q 179 -304 205 1 l 179 -304 q 125 -906 153 -604 l 125 -906 q 115 -915 123 -915 z"},"à":{"ha":943,"x_min":53,"x_max":891,"o":"m 534 -141 l 534 -141 q 422 -55 483 -102 q 309 30 361 -9 l 309 30 q 281 42 291 44 q 272 24 270 40 l 272 24 q 210 -56 272 3 l 210 -56 q 53 -454 47 -209 l 53 -454 q 248 -809 59 -664 l 248 -809 q 357 -902 306 -853 q 446 -1021 407 -951 l 446 -1021 q 490 -1023 462 -1052 l 490 -1023 q 794 -820 642 -851 l 794 -820 q 804 -782 842 -811 l 804 -782 q 753 -698 757 -748 l 753 -698 l 753 -696 l 756 -239 q 790 -176 756 -193 q 862 -202 823 -159 l 862 -202 q 891 -210 877 -219 q 891 -180 904 -202 l 891 -180 q 822 -74 855 -126 q 765 34 788 -22 l 765 34 l 764 35 q 730 35 750 58 l 730 35 q 704 19 719 23 l 704 19 q 560 -132 590 -6 l 560 -132 q 550 -144 558 -138 l 550 -144 q 534 -141 541 -145 z m 545 -730 l 545 -730 q 400 -826 483 -747 l 400 -826 q 336 -835 360 -874 l 336 -835 q 253 -486 230 -677 l 253 -486 q 445 -149 285 -213 l 445 -149 q 447 -148 446 -149 l 447 -148 q 546 -197 488 -135 l 546 -197 q 550 -208 550 -203 l 550 -208 q 549 -255 549 -223 l 549 -255 l 558 -714 q 545 -730 558 -726 z m 681 -1054 l 490 -1238 q 414 -1362 414 -1312 l 414 -1362 q 509 -1434 414 -1434 l 509 -1434 q 580 -1408 550 -1434 l 580 -1408 q 638 -1292 606 -1386 l 638 -1292 l 718 -1054 l 681 -1054 z"},"á":{"ha":943,"x_min":53,"x_max":891,"o":"m 534 -141 l 534 -141 q 422 -55 483 -102 q 309 30 361 -9 l 309 30 q 281 42 291 44 q 272 24 270 40 l 272 24 q 210 -56 272 3 l 210 -56 q 53 -454 47 -209 l 53 -454 q 248 -809 59 -664 l 248 -809 q 357 -902 306 -853 q 446 -1021 407 -951 l 446 -1021 q 490 -1023 462 -1052 l 490 -1023 q 794 -820 642 -851 l 794 -820 q 804 -782 842 -811 l 804 -782 q 753 -698 757 -748 l 753 -698 l 753 -696 l 756 -239 q 790 -176 756 -193 q 862 -202 823 -159 l 862 -202 q 891 -210 877 -219 q 891 -180 904 -202 l 891 -180 q 822 -74 855 -126 q 765 34 788 -22 l 765 34 l 764 35 q 730 35 750 58 l 730 35 q 704 19 719 23 l 704 19 q 560 -132 590 -6 l 560 -132 q 550 -144 558 -138 l 550 -144 q 534 -141 541 -145 z m 545 -730 l 545 -730 q 400 -826 483 -747 l 400 -826 q 336 -835 360 -874 l 336 -835 q 253 -486 230 -677 l 253 -486 q 445 -149 285 -213 l 445 -149 q 447 -148 446 -149 l 447 -148 q 546 -197 488 -135 l 546 -197 q 550 -208 550 -203 l 550 -208 q 549 -255 549 -223 l 549 -255 l 558 -714 q 545 -730 558 -726 z m 493 -1237 l 302 -1053 l 265 -1053 l 345 -1291 q 403 -1407 377 -1385 l 403 -1407 q 474 -1433 433 -1433 l 474 -1433 q 569 -1361 569 -1433 l 569 -1361 q 493 -1237 569 -1311 l 493 -1237 z"},"â":{"ha":943,"x_min":53,"x_max":891,"o":"m 534 -141 l 534 -141 q 422 -55 483 -102 q 309 30 361 -9 l 309 30 q 281 42 291 44 q 272 24 270 40 l 272 24 q 210 -56 272 3 l 210 -56 q 53 -454 47 -209 l 53 -454 q 248 -809 59 -664 l 248 -809 q 357 -902 306 -853 q 446 -1021 407 -951 l 446 -1021 q 490 -1023 462 -1052 l 490 -1023 q 794 -820 642 -851 l 794 -820 q 804 -782 842 -811 l 804 -782 q 753 -698 757 -748 l 753 -698 l 753 -696 l 756 -239 q 790 -176 756 -193 q 862 -202 823 -159 l 862 -202 q 891 -210 877 -219 q 891 -180 904 -202 l 891 -180 q 822 -74 855 -126 q 765 34 788 -22 l 765 34 l 764 35 q 730 35 750 58 l 730 35 q 704 19 719 23 l 704 19 q 560 -132 590 -6 l 560 -132 q 550 -144 558 -138 l 550 -144 q 534 -141 541 -145 z m 545 -730 l 545 -730 q 400 -826 483 -747 l 400 -826 q 336 -835 360 -874 l 336 -835 q 253 -486 230 -677 l 253 -486 q 445 -149 285 -213 l 445 -149 q 447 -148 446 -149 l 447 -148 q 546 -197 488 -135 l 546 -197 q 550 -208 550 -203 l 550 -208 q 549 -255 549 -223 l 549 -255 l 558 -714 q 545 -730 558 -726 z m 714 -1127 l 714 -1127 l 714 -1102 q 709 -1092 714 -1094 l 709 -1092 q 698 -1094 703 -1090 l 698 -1094 l 478 -1278 q 465 -1278 471 -1286 l 465 -1278 l 246 -1094 q 235 -1092 240 -1090 l 235 -1092 q 229 -1102 229 -1094 l 229 -1102 l 229 -1127 q 231 -1133 229 -1132 l 231 -1133 l 463 -1442 q 472 -1446 467 -1446 l 472 -1446 q 480 -1442 476 -1446 l 480 -1442 l 712 -1133 q 714 -1127 714 -1131 z"},"ã":{"ha":943,"x_min":53,"x_max":891,"o":"m 534 -141 l 534 -141 q 422 -55 483 -102 q 309 30 361 -9 l 309 30 q 281 42 291 44 q 272 24 270 40 l 272 24 q 210 -56 272 3 l 210 -56 q 53 -454 47 -209 l 53 -454 q 248 -809 59 -664 l 248 -809 q 357 -902 306 -853 q 446 -1021 407 -951 l 446 -1021 q 490 -1023 462 -1052 l 490 -1023 q 794 -820 642 -851 l 794 -820 q 804 -782 842 -811 l 804 -782 q 753 -698 757 -748 l 753 -698 l 753 -696 l 756 -239 q 790 -176 756 -193 q 862 -202 823 -159 l 862 -202 q 891 -210 877 -219 q 891 -180 904 -202 l 891 -180 q 822 -74 855 -126 q 765 34 788 -22 l 765 34 l 764 35 q 730 35 750 58 l 730 35 q 704 19 719 23 l 704 19 q 560 -132 590 -6 l 560 -132 q 550 -144 558 -138 l 550 -144 q 534 -141 541 -145 z m 545 -730 l 545 -730 q 400 -826 483 -747 l 400 -826 q 336 -835 360 -874 l 336 -835 q 253 -486 230 -677 l 253 -486 q 445 -149 285 -213 l 445 -149 q 447 -148 446 -149 l 447 -148 q 546 -197 488 -135 l 546 -197 q 550 -208 550 -203 l 550 -208 q 549 -255 549 -223 l 549 -255 l 558 -714 q 545 -730 558 -726 z m 722 -1379 l 722 -1379 l 763 -1379 q 716 -1266 747 -1309 l 716 -1266 q 575 -1193 662 -1193 l 575 -1193 q 379 -1239 521 -1193 l 379 -1239 q 288 -1257 323 -1257 l 288 -1257 q 220 -1198 236 -1257 l 220 -1198 l 182 -1198 q 221 -1305 197 -1268 l 221 -1305 q 364 -1382 274 -1382 l 364 -1382 q 471 -1364 408 -1382 l 471 -1364 q 558 -1337 497 -1357 l 558 -1337 q 650 -1318 619 -1318 l 650 -1318 q 702 -1339 684 -1318 l 702 -1339 q 722 -1379 712 -1351 z"},"ä":{"ha":943,"x_min":53,"x_max":891,"o":"m 362 -1451 l 362 -1451 q 463 -1344 473 -1451 l 463 -1344 q 396 -1235 457 -1290 q 298 -1182 334 -1181 l 298 -1182 q 243 -1239 262 -1182 q 228 -1344 224 -1296 l 228 -1344 q 273 -1420 231 -1390 q 362 -1451 314 -1451 z m 741 -1451 l 741 -1451 q 842 -1344 852 -1451 l 842 -1344 q 775 -1235 836 -1290 q 677 -1182 713 -1181 l 677 -1182 q 622 -1239 641 -1182 q 607 -1344 603 -1296 l 607 -1344 q 652 -1420 610 -1390 q 741 -1451 693 -1451 z m 534 -188 l 534 -188 q 422 -102 483 -149 q 309 -17 361 -56 l 309 -17 q 281 -5 291 -3 q 272 -23 270 -7 l 272 -23 q 210 -103 272 -44 l 210 -103 q 53 -501 47 -256 l 53 -501 q 248 -856 59 -711 l 248 -856 q 357 -949 306 -900 q 446 -1068 407 -998 l 446 -1068 q 490 -1070 462 -1099 l 490 -1070 q 794 -867 642 -898 l 794 -867 q 804 -829 842 -858 l 804 -829 q 753 -745 757 -795 l 753 -745 l 753 -743 l 756 -286 q 790 -223 756 -240 q 862 -249 823 -206 l 862 -249 q 891 -257 877 -266 q 891 -227 904 -249 l 891 -227 q 822 -121 855 -173 q 765 -13 788 -69 l 765 -13 l 764 -12 q 730 -12 750 11 l 730 -12 q 704 -28 719 -24 l 704 -28 q 560 -179 590 -53 l 560 -179 q 550 -191 558 -185 l 550 -191 q 534 -188 541 -192 z m 545 -777 l 545 -777 q 400 -873 483 -794 l 400 -873 q 336 -882 360 -921 l 336 -882 q 253 -533 230 -724 l 253 -533 q 445 -196 285 -260 l 445 -196 q 447 -195 446 -196 l 447 -195 q 546 -244 488 -182 l 546 -244 q 550 -255 550 -250 l 550 -255 q 549 -302 549 -270 l 549 -302 l 558 -761 q 545 -777 558 -773 z"},"å":{"ha":943,"x_min":53,"x_max":891,"o":"m 480 -1551 l 480 -1551 q 648 -1485 578 -1551 q 717 -1326 717 -1419 l 717 -1326 q 648 -1166 717 -1232 q 480 -1100 578 -1100 l 480 -1100 q 313 -1166 382 -1100 q 244 -1326 244 -1232 l 244 -1326 q 313 -1485 244 -1419 q 480 -1551 382 -1551 z m 480 -1484 l 480 -1484 q 418 -1436 428 -1484 q 408 -1323 408 -1389 l 408 -1323 q 418 -1209 408 -1256 q 480 -1162 428 -1162 l 480 -1162 q 543 -1209 532 -1162 q 553 -1323 553 -1256 l 553 -1323 q 543 -1436 553 -1389 q 480 -1484 532 -1484 z m 534 -141 l 534 -141 q 422 -55 483 -102 q 309 30 361 -9 l 309 30 q 281 42 291 44 q 272 24 270 40 l 272 24 q 210 -56 272 3 l 210 -56 q 53 -454 47 -209 l 53 -454 q 248 -809 59 -664 l 248 -809 q 357 -902 306 -853 q 446 -1021 407 -951 l 446 -1021 q 490 -1023 462 -1052 l 490 -1023 q 794 -820 642 -851 l 794 -820 q 804 -782 842 -811 l 804 -782 q 753 -698 757 -748 l 753 -698 l 753 -696 l 756 -239 q 790 -176 756 -193 q 862 -202 823 -159 l 862 -202 q 891 -210 877 -219 q 891 -180 904 -202 l 891 -180 q 822 -74 855 -126 q 765 34 788 -22 l 765 34 l 764 35 q 730 35 750 58 l 730 35 q 704 19 719 23 l 704 19 q 560 -132 590 -6 l 560 -132 q 550 -144 558 -138 l 550 -144 q 534 -141 541 -145 z m 545 -730 l 545 -730 q 400 -826 483 -747 l 400 -826 q 336 -835 360 -874 l 336 -835 q 253 -486 230 -677 l 253 -486 q 445 -149 285 -213 l 445 -149 q 447 -148 446 -149 l 447 -148 q 546 -197 488 -135 l 546 -197 q 550 -208 550 -203 l 550 -208 q 549 -255 549 -223 l 549 -255 l 558 -714 q 545 -730 558 -726 z"},"æ":{"ha":1188,"x_min":53,"x_max":1131,"o":"m 783 28 l 783 28 q 758 -8 781 4 q 718 -32 734 -20 l 718 -32 q 579 -175 628 -93 l 579 -175 q 422 -55 474 -95 l 422 -55 q 309 30 361 -9 l 309 30 q 281 42 291 44 q 272 24 270 40 l 272 24 q 210 -56 272 3 l 210 -56 q 53 -454 47 -209 l 53 -454 q 248 -809 59 -664 l 248 -809 q 357 -902 306 -853 q 446 -1021 407 -951 l 446 -1021 q 490 -1023 462 -1052 l 490 -1023 q 644 -884 567 -935 l 644 -884 q 656 -895 650 -889 l 656 -895 q 792 -981 715 -948 q 950 -1036 869 -1015 l 950 -1036 q 987 -1011 975 -1041 l 987 -1011 l 1131 -673 q 1124 -639 1141 -646 l 1124 -639 l 1122 -639 l 712 -480 q 702 -461 700 -474 l 702 -461 q 866 -176 751 -239 q 1095 -158 981 -114 l 1095 -158 q 1121 -155 1115 -167 q 1113 -137 1126 -143 l 1113 -137 q 959 -53 1032 -96 q 827 37 885 -10 l 827 37 q 801 41 818 43 q 783 28 783 39 z m 400 -826 l 400 -826 q 336 -835 360 -874 l 336 -835 q 253 -486 230 -677 l 253 -486 q 445 -149 285 -213 l 445 -149 q 447 -148 446 -149 l 447 -148 q 563 -205 475 -139 l 563 -205 q 555 -222 559 -213 l 555 -222 q 502 -461 508 -335 l 502 -461 q 541 -731 495 -616 l 541 -731 l 514 -738 q 400 -826 483 -747 z m 690 -537 l 690 -537 q 697 -524 691 -529 q 712 -524 703 -520 l 712 -524 l 925 -604 q 934 -625 940 -610 l 934 -625 l 812 -924 q 776 -930 803 -946 l 776 -930 q 697 -775 718 -896 q 690 -537 676 -654 z"},"ç":{"ha":726,"x_min":59,"x_max":675,"o":"m 340 29 l 340 29 q 315 -7 338 5 q 275 -31 291 -19 l 275 -31 q 113 -221 160 -109 q 59 -460 65 -334 l 59 -460 q 213 -894 47 -745 l 213 -894 q 349 -980 272 -947 q 507 -1035 426 -1014 l 507 -1035 q 544 -1010 529 -1039 l 544 -1010 l 661 -774 q 654 -741 675 -745 l 654 -741 q 519 -689 580 -730 l 519 -689 q 473 -707 491 -671 l 473 -707 l 369 -923 q 333 -929 359 -944 l 333 -929 q 249 -743 267 -890 q 257 -473 231 -596 l 257 -473 q 420 -177 304 -242 q 652 -157 536 -112 l 652 -157 q 675 -155 667 -164 l 675 -155 q 670 -136 683 -142 l 670 -136 q 516 -52 589 -95 q 384 38 442 -9 l 384 38 q 358 42 375 44 q 340 29 340 40 z m 230 196 l 360 0 l 428 0 l 329 154 q 424 139 383 139 l 424 139 q 547 176 497 139 l 547 176 q 602 280 602 216 l 602 280 q 513 411 602 371 l 513 411 q 354 439 452 439 l 354 439 q 203 423 289 439 l 203 423 q 127 403 155 415 l 127 403 l 147 358 q 265 377 203 377 l 265 377 q 357 357 323 377 l 357 357 q 398 285 398 333 l 398 285 q 373 230 398 249 l 373 230 q 314 212 349 212 l 314 212 q 260 225 285 212 l 260 225 l 230 196 z"},"è":{"ha":741,"x_min":59,"x_max":688,"o":"m 340 28 l 340 28 q 315 -8 338 4 q 275 -32 291 -20 l 275 -32 q 113 -222 160 -110 q 59 -461 65 -335 l 59 -461 q 213 -895 47 -746 l 213 -895 q 349 -981 272 -948 q 507 -1036 426 -1015 l 507 -1036 q 544 -1011 532 -1041 l 544 -1011 l 688 -673 q 681 -639 698 -646 l 681 -639 l 679 -639 l 269 -480 q 259 -461 257 -474 l 259 -461 q 423 -176 308 -239 q 652 -158 538 -114 l 652 -158 q 678 -155 672 -167 q 670 -137 683 -143 l 670 -137 q 516 -53 589 -96 q 384 37 442 -10 l 384 37 q 358 41 375 43 q 340 28 340 39 z m 247 -537 l 247 -537 q 254 -524 248 -529 q 269 -524 260 -520 l 269 -524 l 482 -604 q 491 -625 497 -610 l 491 -625 l 369 -924 q 333 -930 360 -946 l 333 -930 q 254 -775 275 -896 q 247 -537 233 -654 z m 618 -1051 l 427 -1235 q 351 -1359 351 -1309 l 351 -1359 q 446 -1431 351 -1431 l 446 -1431 q 517 -1405 487 -1431 l 517 -1405 q 575 -1289 543 -1383 l 575 -1289 l 655 -1051 l 618 -1051 z"},"é":{"ha":741,"x_min":59,"x_max":688,"o":"m 340 28 l 340 28 q 315 -8 338 4 q 275 -32 291 -20 l 275 -32 q 113 -222 160 -110 q 59 -461 65 -335 l 59 -461 q 213 -895 47 -746 l 213 -895 q 349 -981 272 -948 q 507 -1036 426 -1015 l 507 -1036 q 544 -1011 532 -1041 l 544 -1011 l 688 -673 q 681 -639 698 -646 l 681 -639 l 679 -639 l 269 -480 q 259 -461 257 -474 l 259 -461 q 423 -176 308 -239 q 652 -158 538 -114 l 652 -158 q 678 -155 672 -167 q 670 -137 683 -143 l 670 -137 q 516 -53 589 -96 q 384 37 442 -10 l 384 37 q 358 41 375 43 q 340 28 340 39 z m 247 -537 l 247 -537 q 254 -524 248 -529 q 269 -524 260 -520 l 269 -524 l 482 -604 q 491 -625 497 -610 l 491 -625 l 369 -924 q 333 -930 360 -946 l 333 -930 q 254 -775 275 -896 q 247 -537 233 -654 z m 392 -1237 l 201 -1053 l 164 -1053 l 244 -1291 q 302 -1407 276 -1385 l 302 -1407 q 373 -1433 332 -1433 l 373 -1433 q 468 -1361 468 -1433 l 468 -1361 q 392 -1237 468 -1311 l 392 -1237 z"},"ê":{"ha":741,"x_min":59,"x_max":688,"o":"m 340 28 l 340 28 q 315 -8 338 4 q 275 -32 291 -20 l 275 -32 q 113 -222 160 -110 q 59 -461 65 -335 l 59 -461 q 213 -895 47 -746 l 213 -895 q 349 -981 272 -948 q 507 -1036 426 -1015 l 507 -1036 q 544 -1011 532 -1041 l 544 -1011 l 688 -673 q 681 -639 698 -646 l 681 -639 l 679 -639 l 269 -480 q 259 -461 257 -474 l 259 -461 q 423 -176 308 -239 q 652 -158 538 -114 l 652 -158 q 678 -155 672 -167 q 670 -137 683 -143 l 670 -137 q 516 -53 589 -96 q 384 37 442 -10 l 384 37 q 358 41 375 43 q 340 28 340 39 z m 247 -537 l 247 -537 q 254 -524 248 -529 q 269 -524 260 -520 l 269 -524 l 482 -604 q 491 -625 497 -610 l 491 -625 l 369 -924 q 333 -930 360 -946 l 333 -930 q 254 -775 275 -896 q 247 -537 233 -654 z m 614 -1127 l 614 -1127 l 614 -1102 q 609 -1092 614 -1094 l 609 -1092 q 598 -1094 603 -1090 l 598 -1094 l 378 -1278 q 365 -1278 371 -1286 l 365 -1278 l 146 -1094 q 135 -1092 140 -1090 l 135 -1092 q 129 -1102 129 -1094 l 129 -1102 l 129 -1127 q 131 -1133 129 -1132 l 131 -1133 l 363 -1442 q 372 -1446 367 -1446 l 372 -1446 q 380 -1442 376 -1446 l 380 -1442 l 612 -1133 q 614 -1127 614 -1131 z"},"ë":{"ha":741,"x_min":59,"x_max":700,"o":"m 273 -1427 l 273 -1427 q 374 -1320 384 -1427 l 374 -1320 q 307 -1211 368 -1266 q 209 -1158 245 -1157 l 209 -1158 q 154 -1215 173 -1158 q 139 -1320 135 -1272 l 139 -1320 q 184 -1396 142 -1366 q 273 -1427 225 -1427 z m 599 -1426 l 599 -1426 q 700 -1319 710 -1426 l 700 -1319 q 633 -1210 694 -1265 q 535 -1157 571 -1156 l 535 -1157 q 480 -1214 499 -1157 q 465 -1319 461 -1271 l 465 -1319 q 510 -1395 468 -1365 q 599 -1426 551 -1426 z m 340 28 l 340 28 q 315 -8 338 4 q 275 -32 291 -20 l 275 -32 q 113 -222 160 -110 q 59 -461 65 -335 l 59 -461 q 213 -895 47 -746 l 213 -895 q 349 -981 272 -948 q 507 -1036 426 -1015 l 507 -1036 q 544 -1011 532 -1041 l 544 -1011 l 688 -673 q 681 -639 698 -646 l 681 -639 l 679 -639 l 269 -480 q 259 -461 257 -474 l 259 -461 q 423 -176 308 -239 q 652 -158 538 -114 l 652 -158 q 678 -155 672 -167 q 670 -137 683 -143 l 670 -137 q 516 -53 589 -96 q 384 37 442 -10 l 384 37 q 358 41 375 43 q 340 28 340 39 z m 247 -537 l 247 -537 q 254 -524 248 -529 q 269 -524 260 -520 l 269 -524 l 482 -604 q 491 -625 497 -610 l 491 -625 l 369 -924 q 333 -930 360 -946 l 333 -930 q 254 -775 275 -896 q 247 -537 233 -654 z"},"ì":{"ha":559,"x_min":20,"x_max":503,"o":"m 165 -235 l 165 -235 l 158 -783 q 152 -814 158 -802 l 152 -814 q 111 -833 128 -853 l 111 -833 l 71 -792 q 41 -788 55 -774 q 45 -827 26 -802 l 45 -827 q 124 -937 89 -882 q 196 -1046 159 -992 l 196 -1046 q 233 -1045 212 -1065 l 233 -1045 q 315 -955 275 -994 q 429 -874 355 -917 l 429 -874 q 448 -855 450 -866 q 434 -843 445 -844 l 434 -843 q 388 -808 408 -833 q 368 -727 368 -784 l 368 -727 l 368 -304 q 406 -179 368 -202 l 406 -179 q 478 -201 450 -153 l 478 -201 q 503 -209 488 -220 q 502 -175 517 -199 l 502 -175 q 446 -80 472 -128 q 393 14 420 -33 l 393 14 q 346 26 374 42 l 346 26 q 211 -79 256 -17 q 165 -235 165 -141 z m 287 -1128 l 96 -1312 q 20 -1436 20 -1386 l 20 -1436 q 115 -1508 20 -1508 l 115 -1508 q 186 -1482 156 -1508 l 186 -1482 q 244 -1366 212 -1460 l 244 -1366 l 324 -1128 l 287 -1128 z"},"í":{"ha":559,"x_min":40,"x_max":503,"o":"m 165 -235 l 165 -235 l 158 -783 q 152 -814 158 -802 l 152 -814 q 111 -833 128 -853 l 111 -833 l 71 -792 q 41 -788 55 -774 q 45 -827 26 -802 l 45 -827 q 124 -937 89 -882 q 196 -1046 159 -992 l 196 -1046 q 233 -1045 212 -1065 l 233 -1045 q 315 -955 275 -994 q 429 -874 355 -917 l 429 -874 q 448 -855 450 -866 q 434 -843 445 -844 l 434 -843 q 388 -808 408 -833 q 368 -727 368 -784 l 368 -727 l 368 -304 q 406 -179 368 -202 l 406 -179 q 478 -201 450 -153 l 478 -201 q 503 -209 488 -220 q 502 -175 517 -199 l 502 -175 q 446 -80 472 -128 q 393 14 420 -33 l 393 14 q 346 26 374 42 l 346 26 q 211 -79 256 -17 q 165 -235 165 -141 z m 391 -1324 l 200 -1140 l 163 -1140 l 243 -1378 q 301 -1494 275 -1472 l 301 -1494 q 372 -1520 331 -1520 l 372 -1520 q 467 -1448 467 -1520 l 467 -1448 q 391 -1324 467 -1398 l 391 -1324 z"},"î":{"ha":559,"x_min":37,"x_max":522,"o":"m 165 -235 l 165 -235 l 158 -783 q 152 -814 158 -802 l 152 -814 q 111 -833 128 -853 l 111 -833 l 71 -792 q 41 -788 55 -774 q 45 -827 26 -802 l 45 -827 q 124 -937 89 -882 q 196 -1046 159 -992 l 196 -1046 q 233 -1045 212 -1065 l 233 -1045 q 315 -955 275 -994 q 429 -874 355 -917 l 429 -874 q 448 -855 450 -866 q 434 -843 445 -844 l 434 -843 q 388 -808 408 -833 q 368 -727 368 -784 l 368 -727 l 368 -304 q 406 -179 368 -202 l 406 -179 q 478 -201 450 -153 l 478 -201 q 503 -209 488 -220 q 502 -175 517 -199 l 502 -175 q 446 -80 472 -128 q 393 14 420 -33 l 393 14 q 346 26 374 42 l 346 26 q 211 -79 256 -17 q 165 -235 165 -141 z m 522 -1127 l 522 -1127 l 522 -1102 q 517 -1092 522 -1094 l 517 -1092 q 506 -1094 511 -1090 l 506 -1094 l 286 -1278 q 273 -1278 279 -1286 l 273 -1278 l 54 -1094 q 43 -1092 48 -1090 l 43 -1092 q 37 -1102 37 -1094 l 37 -1102 l 37 -1127 q 39 -1133 37 -1132 l 39 -1133 l 271 -1442 q 280 -1446 275 -1446 l 280 -1446 q 288 -1442 284 -1446 l 288 -1442 l 520 -1133 q 522 -1127 522 -1131 z"},"ï":{"ha":559,"x_min":13,"x_max":525,"o":"m 165 -235 l 165 -235 l 158 -783 q 152 -814 158 -802 l 152 -814 q 111 -833 128 -853 l 111 -833 l 71 -792 q 41 -788 55 -774 q 45 -827 26 -802 l 45 -827 q 124 -937 89 -882 q 196 -1046 159 -992 l 196 -1046 q 233 -1045 212 -1065 l 233 -1045 q 315 -955 275 -994 q 429 -874 355 -917 l 429 -874 q 448 -855 450 -866 q 434 -843 445 -844 l 434 -843 q 388 -808 408 -833 q 368 -727 368 -784 l 368 -727 l 368 -304 q 406 -179 368 -202 l 406 -179 q 478 -201 450 -153 l 478 -201 q 503 -209 488 -220 q 502 -175 517 -199 l 502 -175 q 446 -80 472 -128 q 393 14 420 -33 l 393 14 q 346 26 374 42 l 346 26 q 211 -79 256 -17 q 165 -235 165 -141 z m 147 -1413 l 147 -1413 q 248 -1306 258 -1413 l 248 -1306 q 181 -1197 242 -1252 q 83 -1144 119 -1143 l 83 -1144 q 28 -1201 47 -1144 q 13 -1306 9 -1258 l 13 -1306 q 58 -1382 16 -1352 q 147 -1413 99 -1413 z m 424 -1407 l 424 -1407 q 525 -1300 535 -1407 l 525 -1300 q 458 -1191 519 -1246 q 360 -1138 396 -1137 l 360 -1138 q 305 -1195 324 -1138 q 290 -1300 286 -1252 l 290 -1300 q 335 -1376 293 -1346 q 424 -1407 376 -1407 z"},"ð":{"ha":930,"x_min":50,"x_max":895,"o":"m 102 -979 l 102 -979 l 168 -1001 q 102 -1070 128 -1032 l 102 -1070 q 50 -1203 58 -1137 l 50 -1203 l 50 -1208 q 242 -1421 75 -1399 l 242 -1421 q 271 -1411 268 -1425 q 258 -1393 273 -1397 l 258 -1393 q 181 -1300 179 -1371 l 181 -1300 q 233 -1216 182 -1255 q 351 -1165 283 -1178 l 351 -1165 q 353 -1164 352 -1165 l 353 -1164 q 483 -1108 421 -1138 l 483 -1108 l 663 -1169 q 675 -1163 671 -1170 l 675 -1163 q 675 -1151 678 -1157 l 675 -1151 l 648 -1091 q 636 -1082 642 -1082 l 636 -1082 l 573 -1060 q 718 -960 651 -1015 l 718 -960 q 895 -594 874 -834 l 895 -594 l 895 -591 q 808 -291 874 -411 q 652 -108 742 -171 l 652 -108 l 651 -106 q 552 -42 609 -70 q 451 16 495 -14 l 451 16 q 415 16 423 35 l 415 16 q 106 -187 359 -117 l 106 -187 q 90 -202 91 -190 q 101 -219 89 -214 l 101 -219 q 164 -352 164 -243 l 164 -352 l 162 -768 q 194 -801 162 -803 l 194 -801 q 394 -869 294 -788 l 394 -869 q 400 -884 400 -873 l 400 -884 q 390 -896 398 -892 l 390 -896 q 314 -927 352 -912 l 314 -927 q 255 -953 284 -940 l 255 -953 l 73 -892 q 62 -897 64 -892 l 62 -897 q 62 -911 57 -903 l 62 -911 l 89 -970 q 102 -979 93 -977 z m 453 -868 l 453 -868 q 436 -866 444 -872 l 436 -866 l 389 -829 q 369 -793 369 -814 l 369 -793 l 373 -299 q 385 -278 373 -284 l 385 -278 l 601 -151 q 649 -163 627 -135 l 649 -163 q 719 -500 739 -290 q 545 -819 698 -711 l 545 -819 q 453 -868 517 -838 z"}}}
